<?xml version="1.0" encoding="utf-8"?>
<!-- Generator: Adobe Illustrator 16.0.0, SVG Export Plug-In . SVG Version: 6.00 Build 0)  -->
<!DOCTYPE svg PUBLIC "-//W3C//DTD SVG 1.1//EN" "http://www.w3.org/Graphics/SVG/1.1/DTD/svg11.dtd">
<svg version="1.1" id="Слой_1" xmlns="http://www.w3.org/2000/svg" xmlns:xlink="http://www.w3.org/1999/xlink" x="0px" y="0px"
	 width="25px" height="23.938px" viewBox="0 0 25 23.938" enable-background="new 0 0 25 23.938" xml:space="preserve">
<g>
	<path fill-rule="evenodd" clip-rule="evenodd" fill="#5E9FFB" d="M12.5,0L12.5,0c0.904,0,1.645,0.74,1.645,1.645V7.76
		c0,0.904-0.74,1.645-1.645,1.645l0,0c-0.904,0-1.645-0.74-1.645-1.645V1.645C10.856,0.74,11.596,0,12.5,0L12.5,0z"/>
	<path fill-rule="evenodd" clip-rule="evenodd" fill="#5E9FFB" d="M0.081,9.024L0.081,9.024c0.278-0.861,1.212-1.336,2.072-1.057
		l5.815,1.89c0.86,0.279,1.335,1.212,1.055,2.073l0,0c-0.279,0.861-1.211,1.335-2.072,1.055l-5.814-1.889
		C0.276,10.817-0.2,9.884,0.081,9.024L0.081,9.024z"/>
	<path fill-rule="evenodd" clip-rule="evenodd" fill="#5E9FFB" d="M4.824,23.624L4.824,23.624c-0.731-0.531-0.895-1.565-0.363-2.297
		l3.595-4.947c0.531-0.73,1.564-0.896,2.297-0.363l0,0c0.732,0.531,0.896,1.564,0.364,2.297l-3.594,4.947
		C6.591,23.993,5.556,24.157,4.824,23.624L4.824,23.624z"/>
	<path fill-rule="evenodd" clip-rule="evenodd" fill="#5E9FFB" d="M20.177,23.624L20.177,23.624
		c-0.732,0.532-1.767,0.369-2.298-0.363l-3.595-4.947c-0.531-0.732-0.367-1.766,0.364-2.297l0,0
		c0.731-0.533,1.766-0.367,2.297,0.363l3.595,4.947C21.072,22.059,20.91,23.093,20.177,23.624L20.177,23.624z"/>
	<path fill-rule="evenodd" clip-rule="evenodd" fill="#5E9FFB" d="M24.92,9.023L24.92,9.023c0.278,0.86-0.196,1.793-1.056,2.073
		l-5.814,1.889c-0.861,0.279-1.794-0.195-2.074-1.056l0,0c-0.279-0.86,0.195-1.793,1.057-2.073l5.815-1.889
		C23.708,7.688,24.642,8.163,24.92,9.023L24.92,9.023z"/>
</g>
</svg>
