<?xml version="1.0" encoding="utf-8"?>
<!-- Generator: Adobe Illustrator 16.0.0, SVG Export Plug-In . SVG Version: 6.00 Build 0)  -->
<!DOCTYPE svg PUBLIC "-//W3C//DTD SVG 1.1//EN" "http://www.w3.org/Graphics/SVG/1.1/DTD/svg11.dtd">
<svg version="1.1" id="Шар_1" xmlns="http://www.w3.org/2000/svg" xmlns:xlink="http://www.w3.org/1999/xlink" x="0px" y="0px"
	 width="13px" height="7.172px" viewBox="290.885 417.128 13 7.172" enable-background="new 290.885 417.128 13 7.172"
	 xml:space="preserve">
<g>
	<g>
		<path d="M303.523,417.492c-0.173-0.173-0.453-0.173-0.626,0l-5.505,5.516l-5.517-5.516c-0.173-0.173-0.454-0.173-0.626,0
			c-0.172,0.173-0.172,0.454,0,0.626l5.819,5.819c0.086,0.086,0.194,0.13,0.313,0.13c0.108,0,0.227-0.044,0.313-0.13l5.818-5.819
			C303.696,417.946,303.696,417.665,303.523,417.492z"/>
		<path d="M297.381,424.3c-0.184,0-0.349-0.068-0.479-0.198l-5.819-5.818c-0.264-0.264-0.264-0.693,0-0.957
			c0.127-0.128,0.297-0.198,0.479-0.198c0.181,0,0.351,0.07,0.479,0.198l5.351,5.351l5.341-5.351
			c0.128-0.128,0.298-0.198,0.479-0.198s0.351,0.07,0.479,0.198c0.129,0.13,0.199,0.301,0.196,0.483
			c-0.003,0.181-0.077,0.35-0.21,0.476l-5.816,5.816C297.733,424.228,297.559,424.3,297.381,424.3z M291.562,417.597
			c-0.056,0-0.108,0.021-0.148,0.061c-0.081,0.081-0.081,0.214,0,0.295l5.819,5.819c0.041,0.041,0.089,0.061,0.148,0.061
			c0.042,0,0.103-0.016,0.147-0.061l5.821-5.822l0.003-0.002c0.041-0.039,0.064-0.09,0.065-0.145
			c0.001-0.055-0.021-0.106-0.06-0.146c-0.039-0.04-0.092-0.061-0.147-0.061s-0.108,0.021-0.147,0.061l-5.671,5.682l-5.682-5.682
			C291.67,417.618,291.617,417.597,291.562,417.597z"/>
	</g>
</g>
</svg>
