<?xml version="1.0" encoding="utf-8"?>
<!-- Generator: Adobe Illustrator 16.0.0, SVG Export Plug-In . SVG Version: 6.00 Build 0)  -->
<!DOCTYPE svg PUBLIC "-//W3C//DTD SVG 1.1//EN" "http://www.w3.org/Graphics/SVG/1.1/DTD/svg11.dtd">
<svg version="1.1" id="Capa_1" xmlns="http://www.w3.org/2000/svg" xmlns:xlink="http://www.w3.org/1999/xlink" x="0px" y="0px"
	 width="16px" height="14.75px" viewBox="289.64 413.57 16 14.75" enable-background="new 289.64 413.57 16 14.75"
	 xml:space="preserve">
<g>
	<path d="M304.39,414.82h-0.25v-0.5c0-0.414-0.336-0.75-0.75-0.75s-0.75,0.336-0.75,0.75v0.5h-10v-0.5c0-0.414-0.336-0.75-0.75-0.75
		s-0.75,0.336-0.75,0.75v0.5h-0.25c-0.689,0-1.25,0.561-1.25,1.25v11c0,0.689,0.561,1.25,1.25,1.25h13.5
		c0.689,0,1.25-0.561,1.25-1.25v-11C305.64,415.38,305.079,414.82,304.39,414.82z M303.14,414.32c0-0.138,0.112-0.25,0.25-0.25
		s0.25,0.112,0.25,0.25v0.75v0v0v0.75c0,0.138-0.112,0.25-0.25,0.25s-0.25-0.112-0.25-0.25V414.32z M291.89,414.07
		c0.138,0,0.25,0.112,0.25,0.25v1.5c0,0.138-0.112,0.25-0.25,0.25s-0.25-0.112-0.25-0.25v-0.75c0,0,0,0,0,0s0,0,0,0v-0.75
		C291.64,414.182,291.752,414.07,291.89,414.07z M304.39,427.82h-13.5c-0.414,0-0.75-0.336-0.75-0.75v-9.5h12
		c0.138,0,0.25-0.112,0.25-0.25s-0.112-0.25-0.25-0.25h-12v-1c0-0.414,0.336-0.75,0.75-0.75h0.25v0.5c0,0.414,0.336,0.75,0.75,0.75
		s0.75-0.336,0.75-0.75v-0.5h10v0.5c0,0.414,0.336,0.75,0.75,0.75s0.75-0.336,0.75-0.75v-0.5h0.25c0.414,0,0.75,0.336,0.75,0.75v1
		h-0.5c-0.138,0-0.25,0.112-0.25,0.25s0.112,0.25,0.25,0.25h0.5v9.5C305.14,427.484,304.804,427.82,304.39,427.82z"/>
	<path d="M303.64,417.07h-0.5c-0.138,0-0.25,0.112-0.25,0.25s0.112,0.25,0.25,0.25h0.5c0.138,0,0.25-0.112,0.25-0.25
		S303.778,417.07,303.64,417.07z"/>
	<path d="M297.89,419.32h-0.5c-0.138,0-0.25,0.112-0.25,0.25s0.112,0.25,0.25,0.25h0.5c0.138,0,0.25-0.112,0.25-0.25
		S298.028,419.32,297.89,419.32z"/>
	<path d="M297.89,420.57h-0.5c-0.138,0-0.25,0.112-0.25,0.25s0.112,0.25,0.25,0.25h0.5c0.138,0,0.25-0.112,0.25-0.25
		S298.028,420.57,297.89,420.57z"/>
	<path d="M297.89,421.82h-0.5c-0.138,0-0.25,0.112-0.25,0.25s0.112,0.25,0.25,0.25h0.5c0.138,0,0.25-0.112,0.25-0.25
		S298.028,421.82,297.89,421.82z"/>
	<path d="M297.89,423.07h-0.5c-0.138,0-0.25,0.112-0.25,0.25s0.112,0.25,0.25,0.25h0.5c0.138,0,0.25-0.112,0.25-0.25
		S298.028,423.07,297.89,423.07z"/>
	<path d="M297.89,424.32h-0.5c-0.138,0-0.25,0.112-0.25,0.25s0.112,0.25,0.25,0.25h0.5c0.138,0,0.25-0.112,0.25-0.25
		S298.028,424.32,297.89,424.32z"/>
	<path d="M297.89,425.57h-0.5c-0.138,0-0.25,0.112-0.25,0.25s0.112,0.25,0.25,0.25h0.5c0.138,0,0.25-0.112,0.25-0.25
		S298.028,425.57,297.89,425.57z"/>
	<path d="M299.64,419.32h-0.5c-0.138,0-0.25,0.112-0.25,0.25s0.112,0.25,0.25,0.25h0.5c0.138,0,0.25-0.112,0.25-0.25
		S299.778,419.32,299.64,419.32z"/>
	<path d="M299.64,420.57h-0.5c-0.138,0-0.25,0.112-0.25,0.25s0.112,0.25,0.25,0.25h0.5c0.138,0,0.25-0.112,0.25-0.25
		S299.778,420.57,299.64,420.57z"/>
	<path d="M299.64,421.82h-0.5c-0.138,0-0.25,0.112-0.25,0.25s0.112,0.25,0.25,0.25h0.5c0.138,0,0.25-0.112,0.25-0.25
		S299.778,421.82,299.64,421.82z"/>
	<path d="M299.64,423.07h-0.5c-0.138,0-0.25,0.112-0.25,0.25s0.112,0.25,0.25,0.25h0.5c0.138,0,0.25-0.112,0.25-0.25
		S299.778,423.07,299.64,423.07z"/>
	<path d="M299.64,424.32h-0.5c-0.138,0-0.25,0.112-0.25,0.25s0.112,0.25,0.25,0.25h0.5c0.138,0,0.25-0.112,0.25-0.25
		S299.778,424.32,299.64,424.32z"/>
	<path d="M299.64,425.57h-0.5c-0.138,0-0.25,0.112-0.25,0.25s0.112,0.25,0.25,0.25h0.5c0.138,0,0.25-0.112,0.25-0.25
		S299.778,425.57,299.64,425.57z"/>
	<path d="M296.14,419.32h-0.5c-0.138,0-0.25,0.112-0.25,0.25s0.112,0.25,0.25,0.25h0.5c0.138,0,0.25-0.112,0.25-0.25
		S296.278,419.32,296.14,419.32z"/>
	<path d="M296.14,420.57h-0.5c-0.138,0-0.25,0.112-0.25,0.25s0.112,0.25,0.25,0.25h0.5c0.138,0,0.25-0.112,0.25-0.25
		S296.278,420.57,296.14,420.57z"/>
	<path d="M296.14,421.82h-0.5c-0.138,0-0.25,0.112-0.25,0.25s0.112,0.25,0.25,0.25h0.5c0.138,0,0.25-0.112,0.25-0.25
		S296.278,421.82,296.14,421.82z"/>
	<path d="M296.14,423.07h-0.5c-0.138,0-0.25,0.112-0.25,0.25s0.112,0.25,0.25,0.25h0.5c0.138,0,0.25-0.112,0.25-0.25
		S296.278,423.07,296.14,423.07z"/>
	<path d="M296.14,424.32h-0.5c-0.138,0-0.25,0.112-0.25,0.25s0.112,0.25,0.25,0.25h0.5c0.138,0,0.25-0.112,0.25-0.25
		S296.278,424.32,296.14,424.32z"/>
	<path d="M296.14,425.57h-0.5c-0.138,0-0.25,0.112-0.25,0.25s0.112,0.25,0.25,0.25h0.5c0.138,0,0.25-0.112,0.25-0.25
		S296.278,425.57,296.14,425.57z"/>
	<path d="M294.39,419.32h-0.5c-0.138,0-0.25,0.112-0.25,0.25s0.112,0.25,0.25,0.25h0.5c0.138,0,0.25-0.112,0.25-0.25
		S294.528,419.32,294.39,419.32z"/>
	<path d="M294.39,420.57h-0.5c-0.138,0-0.25,0.112-0.25,0.25s0.112,0.25,0.25,0.25h0.5c0.138,0,0.25-0.112,0.25-0.25
		S294.528,420.57,294.39,420.57z"/>
	<path d="M294.39,421.82h-0.5c-0.138,0-0.25,0.112-0.25,0.25s0.112,0.25,0.25,0.25h0.5c0.138,0,0.25-0.112,0.25-0.25
		S294.528,421.82,294.39,421.82z"/>
	<path d="M294.39,423.07h-0.5c-0.138,0-0.25,0.112-0.25,0.25s0.112,0.25,0.25,0.25h0.5c0.138,0,0.25-0.112,0.25-0.25
		S294.528,423.07,294.39,423.07z"/>
	<path d="M294.39,424.32h-0.5c-0.138,0-0.25,0.112-0.25,0.25s0.112,0.25,0.25,0.25h0.5c0.138,0,0.25-0.112,0.25-0.25
		S294.528,424.32,294.39,424.32z"/>
	<path d="M294.39,425.57h-0.5c-0.138,0-0.25,0.112-0.25,0.25s0.112,0.25,0.25,0.25h0.5c0.138,0,0.25-0.112,0.25-0.25
		S294.528,425.57,294.39,425.57z"/>
	<path d="M301.39,419.32h-0.5c-0.138,0-0.25,0.112-0.25,0.25s0.112,0.25,0.25,0.25h0.5c0.138,0,0.25-0.112,0.25-0.25
		S301.528,419.32,301.39,419.32z"/>
	<path d="M301.39,420.57h-0.5c-0.138,0-0.25,0.112-0.25,0.25s0.112,0.25,0.25,0.25h0.5c0.138,0,0.25-0.112,0.25-0.25
		S301.528,420.57,301.39,420.57z"/>
	<path d="M301.39,421.82h-0.5c-0.138,0-0.25,0.112-0.25,0.25s0.112,0.25,0.25,0.25h0.5c0.138,0,0.25-0.112,0.25-0.25
		S301.528,421.82,301.39,421.82z"/>
	<path d="M301.39,423.07h-0.5c-0.138,0-0.25,0.112-0.25,0.25s0.112,0.25,0.25,0.25h0.5c0.138,0,0.25-0.112,0.25-0.25
		S301.528,423.07,301.39,423.07z"/>
	<path d="M301.39,424.32h-0.5c-0.138,0-0.25,0.112-0.25,0.25s0.112,0.25,0.25,0.25h0.5c0.138,0,0.25-0.112,0.25-0.25
		S301.528,424.32,301.39,424.32z"/>
	<path d="M301.39,425.57h-0.5c-0.138,0-0.25,0.112-0.25,0.25s0.112,0.25,0.25,0.25h0.5c0.138,0,0.25-0.112,0.25-0.25
		S301.528,425.57,301.39,425.57z"/>
	<path d="M303.14,419.32h-0.5c-0.138,0-0.25,0.112-0.25,0.25s0.112,0.25,0.25,0.25h0.5c0.138,0,0.25-0.112,0.25-0.25
		S303.278,419.32,303.14,419.32z"/>
	<path d="M303.14,420.57h-0.5c-0.138,0-0.25,0.112-0.25,0.25s0.112,0.25,0.25,0.25h0.5c0.138,0,0.25-0.112,0.25-0.25
		S303.278,420.57,303.14,420.57z"/>
	<path d="M303.14,421.82h-0.5c-0.138,0-0.25,0.112-0.25,0.25s0.112,0.25,0.25,0.25h0.5c0.138,0,0.25-0.112,0.25-0.25
		S303.278,421.82,303.14,421.82z"/>
	<path d="M303.14,423.07h-0.5c-0.138,0-0.25,0.112-0.25,0.25s0.112,0.25,0.25,0.25h0.5c0.138,0,0.25-0.112,0.25-0.25
		S303.278,423.07,303.14,423.07z"/>
	<path d="M303.14,424.32h-0.5c-0.138,0-0.25,0.112-0.25,0.25s0.112,0.25,0.25,0.25h0.5c0.138,0,0.25-0.112,0.25-0.25
		S303.278,424.32,303.14,424.32z"/>
	<path d="M303.14,425.57h-0.5c-0.138,0-0.25,0.112-0.25,0.25s0.112,0.25,0.25,0.25h0.5c0.138,0,0.25-0.112,0.25-0.25
		S303.278,425.57,303.14,425.57z"/>
	<path d="M292.64,419.32h-0.5c-0.138,0-0.25,0.112-0.25,0.25s0.112,0.25,0.25,0.25h0.5c0.138,0,0.25-0.112,0.25-0.25
		S292.778,419.32,292.64,419.32z"/>
	<path d="M292.64,420.57h-0.5c-0.138,0-0.25,0.112-0.25,0.25s0.112,0.25,0.25,0.25h0.5c0.138,0,0.25-0.112,0.25-0.25
		S292.778,420.57,292.64,420.57z"/>
	<path d="M292.64,421.82h-0.5c-0.138,0-0.25,0.112-0.25,0.25s0.112,0.25,0.25,0.25h0.5c0.138,0,0.25-0.112,0.25-0.25
		S292.778,421.82,292.64,421.82z"/>
	<path d="M292.64,423.07h-0.5c-0.138,0-0.25,0.112-0.25,0.25s0.112,0.25,0.25,0.25h0.5c0.138,0,0.25-0.112,0.25-0.25
		S292.778,423.07,292.64,423.07z"/>
	<path d="M292.64,424.32h-0.5c-0.138,0-0.25,0.112-0.25,0.25s0.112,0.25,0.25,0.25h0.5c0.138,0,0.25-0.112,0.25-0.25
		S292.778,424.32,292.64,424.32z"/>
	<path d="M292.64,425.57h-0.5c-0.138,0-0.25,0.112-0.25,0.25s0.112,0.25,0.25,0.25h0.5c0.138,0,0.25-0.112,0.25-0.25
		S292.778,425.57,292.64,425.57z"/>
</g>
</svg>
