<svg version="1.1" id="Шар_1" xmlns="http://www.w3.org/2000/svg" xmlns:xlink="http://www.w3.org/1999/xlink" x="0px" y="0px"
	 width="57px" height="61.417px" viewBox="269.137 315.823 57 61.417" enable-background="new 269.137 315.823 57 61.417"
	 xml:space="preserve">
<g>
	<polygon points="312.163,366.152 309.34,363.329 308.193,364.475 312.163,368.446 318.192,362.417 317.044,361.27 	"/>
	<path d="M312.163,368.928l-4.452-4.453l1.629-1.628l2.823,2.823l4.881-4.881l1.629,1.628L312.163,368.928z M308.674,364.475
		l3.489,3.489l5.546-5.547l-0.665-0.665l-4.881,4.881l-2.823-2.823L308.674,364.475z"/>
</g>
<g>
	<path d="M283.37,343.954h-1.21c-0.684,0-1.239,0.555-1.239,1.239c0,0.684,0.555,1.239,1.239,1.239h1.21
		c0.685,0,1.239-0.555,1.239-1.239C284.609,344.509,284.054,343.954,283.37,343.954z"/>
	<path d="M283.37,346.773h-1.21c-0.871,0-1.58-0.708-1.58-1.58c0-0.872,0.708-1.58,1.58-1.58h1.21c0.871,0,1.58,0.708,1.58,1.58
		C284.949,346.064,284.241,346.773,283.37,346.773z M282.159,344.294c-0.495,0-0.898,0.403-0.898,0.899
		c0,0.495,0.403,0.898,0.898,0.898h1.21c0.495,0,0.898-0.403,0.898-0.898c0-0.496-0.403-0.899-0.898-0.899H282.159z"/>
</g>
<g>
	<path d="M283.37,354.383h-1.21c-0.684,0-1.239,0.555-1.239,1.239s0.555,1.239,1.239,1.239h1.21c0.685,0,1.239-0.555,1.239-1.239
		S284.054,354.383,283.37,354.383z"/>
	<path d="M283.37,357.202h-1.21c-0.871,0-1.58-0.709-1.58-1.58s0.708-1.58,1.58-1.58h1.21c0.871,0,1.58,0.708,1.58,1.58
		S284.241,357.202,283.37,357.202z M282.159,354.724c-0.495,0-0.898,0.403-0.898,0.898s0.403,0.898,0.898,0.898h1.21
		c0.495,0,0.898-0.403,0.898-0.898s-0.403-0.898-0.898-0.898H282.159z"/>
</g>
<g>
	<path d="M283.37,364.819h-1.21c-0.684,0-1.239,0.555-1.239,1.239s0.555,1.239,1.239,1.239h1.21c0.685,0,1.239-0.555,1.239-1.239
		C284.609,365.375,284.054,364.819,283.37,364.819z"/>
	<path d="M283.37,367.638h-1.21c-0.871,0-1.58-0.708-1.58-1.58s0.708-1.58,1.58-1.58h1.21c0.871,0,1.58,0.709,1.58,1.58
		S284.241,367.638,283.37,367.638z M282.159,365.16c-0.495,0-0.898,0.403-0.898,0.898s0.403,0.898,0.898,0.898h1.21
		c0.495,0,0.898-0.403,0.898-0.898s-0.403-0.898-0.898-0.898H282.159z"/>
</g>
<g>
	<path d="M298.1,343.954h-1.21c-0.684,0-1.239,0.555-1.239,1.239c0,0.684,0.555,1.239,1.239,1.239h1.21
		c0.685,0,1.239-0.555,1.239-1.239C299.339,344.509,298.784,343.954,298.1,343.954z"/>
	<path d="M298.1,346.773h-1.21c-0.871,0-1.58-0.708-1.58-1.58c0-0.872,0.708-1.58,1.58-1.58h1.21c0.871,0,1.58,0.708,1.58,1.58
		C299.68,346.064,298.971,346.773,298.1,346.773z M296.889,344.294c-0.495,0-0.898,0.403-0.898,0.899
		c0,0.495,0.403,0.898,0.898,0.898h1.21c0.495,0,0.898-0.403,0.898-0.898c0-0.496-0.403-0.899-0.898-0.899H296.889z"/>
</g>
<g>
	<path d="M298.1,354.383h-1.21c-0.684,0-1.239,0.555-1.239,1.239s0.555,1.239,1.239,1.239h1.21c0.685,0,1.239-0.555,1.239-1.239
		S298.784,354.383,298.1,354.383z"/>
	<path d="M298.1,357.202h-1.21c-0.871,0-1.58-0.709-1.58-1.58s0.708-1.58,1.58-1.58h1.21c0.871,0,1.58,0.708,1.58,1.58
		S298.971,357.202,298.1,357.202z M296.889,354.724c-0.495,0-0.898,0.403-0.898,0.898s0.403,0.898,0.898,0.898h1.21
		c0.495,0,0.898-0.403,0.898-0.898s-0.403-0.898-0.898-0.898H296.889z"/>
</g>
<g>
	<path d="M298.1,364.819h-1.21c-0.684,0-1.239,0.555-1.239,1.239s0.555,1.239,1.239,1.239h1.21c0.685,0,1.239-0.555,1.239-1.239
		C299.339,365.375,298.784,364.819,298.1,364.819z"/>
	<path d="M298.1,367.638h-1.21c-0.871,0-1.58-0.708-1.58-1.58s0.708-1.58,1.58-1.58h1.21c0.871,0,1.58,0.709,1.58,1.58
		S298.971,367.638,298.1,367.638z M296.889,365.16c-0.495,0-0.898,0.403-0.898,0.898s0.403,0.898,0.898,0.898h1.21
		c0.495,0,0.898-0.403,0.898-0.898s-0.403-0.898-0.898-0.898H296.889z"/>
</g>
<g>
	<path d="M311.62,346.433h1.21c0.685,0,1.239-0.555,1.239-1.239c0-0.685-0.555-1.239-1.239-1.239h-1.21
		c-0.685,0-1.239,0.555-1.239,1.239C310.38,345.877,310.936,346.433,311.62,346.433z"/>
	<path d="M312.83,346.773h-1.21c-0.423,0-0.82-0.165-1.118-0.463c-0.299-0.299-0.462-0.695-0.462-1.117
		c0-0.871,0.709-1.58,1.58-1.58h1.21c0.871,0,1.58,0.708,1.58,1.58C314.41,346.064,313.701,346.773,312.83,346.773z M311.62,344.294
		c-0.495,0-0.898,0.403-0.898,0.899c-0.001,0.24,0.093,0.465,0.262,0.635c0.17,0.17,0.396,0.264,0.637,0.264h1.21
		c0.495,0,0.898-0.403,0.898-0.898c0-0.496-0.403-0.899-0.898-0.899H311.62z"/>
</g>
<g>
	<path d="M311.62,356.861h1.21c0.685,0,1.239-0.555,1.239-1.239s-0.555-1.239-1.239-1.239h-1.21c-0.685,0-1.239,0.555-1.239,1.239
		C310.38,356.307,310.936,356.861,311.62,356.861z"/>
	<path d="M312.83,357.202h-1.21c-0.423,0-0.82-0.165-1.118-0.464c-0.299-0.298-0.462-0.695-0.462-1.117
		c0-0.871,0.709-1.579,1.58-1.579h1.21c0.871,0,1.58,0.708,1.58,1.58S313.701,357.202,312.83,357.202z M311.62,354.724
		c-0.495,0-0.898,0.403-0.898,0.898c-0.001,0.24,0.093,0.465,0.262,0.635c0.17,0.17,0.396,0.264,0.637,0.264h1.21
		c0.495,0,0.898-0.403,0.898-0.898s-0.403-0.898-0.898-0.898H311.62z"/>
</g>
<g>
	<path d="M320.317,320.627V318.3c0-1.178-0.958-2.136-2.136-2.136h-1.767c-1.178,0-2.137,0.958-2.137,2.136v2.281h-13.764V318.3
		c0-1.178-0.959-2.136-2.136-2.136h-1.768c-1.178,0-2.136,0.958-2.136,2.136v2.281h-13.763V318.3c0-1.178-0.958-2.136-2.136-2.136
		h-1.767c-1.177,0-2.136,0.958-2.136,2.136v2.368c-2.967,0.482-5.194,3.032-5.194,6.121v43.902c0,3.423,2.785,6.208,6.208,6.208
		h43.902c3.423,0,6.208-2.786,6.208-6.208v-43.902C325.797,323.613,323.398,320.99,320.317,320.627z M315.9,318.3
		c0-0.284,0.23-0.514,0.515-0.514h1.767c0.283,0,0.514,0.23,0.514,0.514v6.183c0,0.284-0.23,0.514-0.514,0.514h-1.767
		c-0.284,0-0.515-0.23-0.515-0.514V318.3z M296.097,318.3c0-0.284,0.23-0.514,0.514-0.514h1.767c0.284,0,0.515,0.23,0.515,0.514
		v6.183c0,0.284-0.23,0.514-0.515,0.514h-1.767c-0.284,0-0.514-0.23-0.514-0.514V318.3z M276.295,318.3
		c0-0.284,0.23-0.514,0.514-0.514h1.767c0.284,0,0.514,0.23,0.514,0.514v6.183c0,0.284-0.23,0.514-0.514,0.514h-1.767
		c-0.284,0-0.514-0.23-0.514-0.514V318.3z M274.673,322.32v2.165c0,1.178,0.958,2.136,2.136,2.136h1.767
		c1.177,0,2.136-0.958,2.136-2.136v-2.281h13.764v2.281c0,1.178,0.959,2.136,2.136,2.136h1.767c1.178,0,2.137-0.958,2.137-2.136
		v-2.281h13.764v2.281c0,1.178,0.959,2.136,2.137,2.136h1.767c1.177,0,2.136-0.958,2.136-2.136v-2.218
		c2.184,0.351,3.858,2.243,3.858,4.523v7.893H271.1v-7.893C271.1,324.6,272.614,322.779,274.673,322.32z M319.588,375.278h-43.901
		c-2.529,0-4.586-2.058-4.586-4.587v-34.386h53.075v34.386C324.175,373.22,322.117,375.278,319.588,375.278z"/>
	<path d="M319.588,377.24h-43.902c-3.611,0-6.549-2.938-6.549-6.549v-43.902c0-3.127,2.167-5.775,5.195-6.404V318.3
		c0-1.366,1.111-2.477,2.477-2.477h1.767c1.366,0,2.477,1.111,2.477,2.477v1.94h13.082v-1.94c0-1.366,1.111-2.477,2.477-2.477h1.768
		c1.365,0,2.477,1.111,2.477,2.477v1.94h13.083v-1.94c0-1.366,1.11-2.477,2.477-2.477h1.767c1.365,0,2.477,1.111,2.477,2.477v2.031
		c3.146,0.517,5.48,3.242,5.479,6.458v43.901C326.137,374.302,323.199,377.24,319.588,377.24z M276.808,316.504
		c-0.99,0-1.795,0.806-1.795,1.796v2.658l-0.286,0.047c-2.844,0.462-4.909,2.895-4.909,5.784v43.902
		c0,3.236,2.632,5.868,5.868,5.868h43.902c3.235,0,5.867-2.632,5.867-5.868v-43.902c0.001-2.973-2.226-5.476-5.178-5.824
		l-0.302-0.035v-2.63c0-0.99-0.805-1.796-1.795-1.796h-1.767c-0.99,0-1.796,0.806-1.796,1.796v2.621h-14.445V318.3
		c0-0.99-0.805-1.796-1.795-1.796h-1.768c-0.99,0-1.795,0.806-1.795,1.796v2.621h-14.444V318.3c0-0.99-0.806-1.796-1.796-1.796
		H276.808z M319.588,375.618h-43.901c-2.717,0-4.927-2.21-4.927-4.927v-34.727h53.756v34.727
		C324.516,373.408,322.305,375.618,319.588,375.618z M271.441,336.646v34.045c0,2.341,1.905,4.246,4.246,4.246h43.901
		c2.341,0,4.246-1.905,4.246-4.246v-34.045H271.441z M324.517,335.023h-53.758v-8.234c0-2.323,1.579-4.298,3.84-4.802l0.415-0.092
		v2.589c0,0.99,0.806,1.795,1.796,1.795h1.767c0.99,0,1.795-0.805,1.795-1.795v-2.622h14.445v2.622c0,0.99,0.805,1.795,1.795,1.795
		h1.767c0.99,0,1.796-0.805,1.796-1.795v-2.622h14.445v2.622c0,0.99,0.806,1.795,1.796,1.795h1.767c0.989,0,1.795-0.805,1.795-1.795
		v-2.618l0.396,0.063c2.401,0.387,4.144,2.43,4.144,4.859V335.023z M271.44,334.342h52.396v-7.553c0-1.958-1.313-3.625-3.177-4.104
		v1.799c0,1.366-1.111,2.477-2.477,2.477h-1.767c-1.366,0-2.478-1.111-2.478-2.477v-1.941h-13.082v1.941
		c0,1.366-1.111,2.477-2.478,2.477h-1.767c-1.366,0-2.477-1.111-2.477-2.477v-1.941h-13.083v1.941c0,1.366-1.111,2.477-2.477,2.477
		h-1.767c-1.366,0-2.477-1.111-2.477-2.477v-1.718c-1.723,0.568-2.892,2.166-2.892,4.022V334.342z M318.181,325.338h-1.767
		c-0.472,0-0.854-0.383-0.854-0.855V318.3c0-0.471,0.383-0.855,0.854-0.855h1.767c0.471,0,0.854,0.384,0.854,0.855v6.183
		C319.035,324.955,318.652,325.338,318.181,325.338z M316.414,318.126c-0.096,0-0.174,0.078-0.174,0.174v6.183
		c0,0.096,0.078,0.174,0.174,0.174h1.767c0.096,0,0.174-0.078,0.174-0.174V318.3c0-0.096-0.078-0.174-0.174-0.174H316.414z
		 M298.378,325.338h-1.767c-0.472,0-0.855-0.383-0.855-0.855V318.3c0-0.471,0.383-0.855,0.855-0.855h1.767
		c0.472,0,0.855,0.384,0.855,0.855v6.183C299.234,324.955,298.85,325.338,298.378,325.338z M296.612,318.126
		c-0.096,0-0.174,0.078-0.174,0.174v6.183c0,0.096,0.078,0.174,0.174,0.174h1.767c0.096,0,0.174-0.078,0.174-0.174V318.3
		c0-0.096-0.078-0.174-0.174-0.174H296.612z M278.576,325.338h-1.767c-0.471,0-0.855-0.383-0.855-0.855V318.3
		c0-0.471,0.384-0.855,0.855-0.855h1.767c0.471,0,0.854,0.384,0.854,0.855v6.183C279.43,324.955,279.047,325.338,278.576,325.338z
		 M276.809,318.126c-0.096,0-0.173,0.078-0.173,0.174v6.183c0,0.096,0.078,0.174,0.173,0.174h1.767c0.096,0,0.173-0.078,0.173-0.174
		V318.3c0-0.096-0.078-0.174-0.173-0.174H276.809z"/>
</g>
</svg>
