<?xml version="1.0" encoding="utf-8"?>
<!-- Generator: Adobe Illustrator 16.0.0, SVG Export Plug-In . SVG Version: 6.00 Build 0)  -->
<!DOCTYPE svg PUBLIC "-//W3C//DTD SVG 1.1//EN" "http://www.w3.org/Graphics/SVG/1.1/DTD/svg11.dtd">
<svg version="1.1" id="Шар_1" xmlns="http://www.w3.org/2000/svg" xmlns:xlink="http://www.w3.org/1999/xlink" x="0px" y="0px"
	 width="21px" height="20.854px" viewBox="0 0 21 20.854" enable-background="new 0 0 21 20.854" xml:space="preserve">
<g>
	<path fill="#1D1D1B" d="M9.495,10.43L0.2,19.727c-0.259,0.258-0.259,0.676,0,0.935c0.129,0.129,0.298,0.193,0.467,0.193
		s0.338-0.064,0.468-0.193l9.365-9.365l9.365,9.365c0.129,0.129,0.298,0.193,0.467,0.193c0.17,0,0.339-0.064,0.468-0.193
		c0.259-0.259,0.259-0.677,0-0.935l-9.295-9.297l9.302-9.302c0.258-0.258,0.258-0.676,0-0.935c-0.259-0.258-0.678-0.258-0.936,0
		L10.5,9.566L1.128,0.194c-0.258-0.258-0.676-0.258-0.935,0c-0.258,0.258-0.258,0.677,0,0.935L9.495,10.43z"/>
</g>
</svg>
