<?xml version="1.0" encoding="utf-8"?>
<!-- Generator: Adobe Illustrator 16.0.0, SVG Export Plug-In . SVG Version: 6.00 Build 0)  -->
<!DOCTYPE svg PUBLIC "-//W3C//DTD SVG 1.1//EN" "http://www.w3.org/Graphics/SVG/1.1/DTD/svg11.dtd">
<svg version="1.1" id="Capa_1" xmlns="http://www.w3.org/2000/svg" xmlns:xlink="http://www.w3.org/1999/xlink" x="0px" y="0px"
	 width="13px" height="18.562px" viewBox="291.135 411.665 13 18.562" enable-background="new 291.135 411.665 13 18.562"
	 xml:space="preserve">
<g>
	<path d="M297.696,415.732c-1.308,0-2.373,1.065-2.373,2.373s1.065,2.373,2.373,2.373s2.373-1.065,2.373-2.373
		S299.004,415.732,297.696,415.732z M297.696,419.8c-0.935,0-1.695-0.76-1.695-1.695s0.76-1.695,1.695-1.695
		c0.934,0,1.695,0.76,1.695,1.695S298.63,419.8,297.696,419.8z"/>
	<path d="M302.233,413.568c-1.228-1.228-2.86-1.904-4.597-1.904s-3.369,0.676-4.597,1.904c-2.272,2.272-2.554,6.546-0.611,9.136
		l5.208,7.521l5.2-7.511C304.787,420.115,304.504,415.84,302.233,413.568z M302.286,422.319l-4.65,6.716l-4.658-6.727
		c-1.763-2.35-1.51-6.21,0.541-8.26c1.1-1.1,2.562-1.706,4.117-1.706c1.555,0,3.018,0.606,4.117,1.706
		C303.804,416.098,304.057,419.958,302.286,422.319z"/>
</g>
</svg>
