<?xml version="1.0" encoding="utf-8"?>
<!-- Generator: Adobe Illustrator 16.0.0, SVG Export Plug-In . SVG Version: 6.00 Build 0)  -->
<!DOCTYPE svg PUBLIC "-//W3C//DTD SVG 1.1//EN" "http://www.w3.org/Graphics/SVG/1.1/DTD/svg11.dtd">
<svg version="1.1" id="Шар_1" xmlns="http://www.w3.org/2000/svg" xmlns:xlink="http://www.w3.org/1999/xlink" x="0px" y="0px"
	 width="53.5px" height="49.148px" viewBox="0 0 53.5 49.148" enable-background="new 0 0 53.5 49.148" xml:space="preserve">
<g>
	<g>
		<path d="M9.083,20.566h11.481c0.492,0,0.885-0.393,0.885-0.88c0-0.488-0.393-0.884-0.885-0.884H9.083
			c-0.487,0-0.884,0.396-0.884,0.884C8.199,20.173,8.597,20.566,9.083,20.566L9.083,20.566z M9.083,20.566"/>
	</g>
	<g>
		<path d="M32.051,24.103H9.083c-0.487,0-0.884,0.392-0.884,0.879c0,0.487,0.397,0.885,0.884,0.885h22.967
			c0.487,0,0.885-0.397,0.885-0.885C32.936,24.495,32.538,24.103,32.051,24.103L32.051,24.103z M32.051,24.103"/>
	</g>
	<g>
		<path d="M32.051,29.398H9.083c-0.487,0-0.884,0.396-0.884,0.884c0,0.488,0.397,0.885,0.884,0.885h22.967
			c0.487,0,0.885-0.396,0.885-0.885C32.936,29.795,32.538,29.398,32.051,29.398L32.051,29.398z M32.051,29.398"/>
	</g>
	<g>
		<path d="M48.014,0.311L17.856,0.25c-2.89,0-5.24,2.351-5.24,5.236v4.529l-7.129,0.013c-2.886,0-5.236,2.351-5.236,5.24V33.94
			c0,2.89,2.351,5.24,5.236,5.24h5.366v8.833c0,0.362,0.225,0.69,0.564,0.824c0.104,0.039,0.212,0.061,0.315,0.061
			c0.247,0,0.484-0.104,0.656-0.289l8.57-9.433l14.686-0.061c2.89,0,5.24-2.347,5.24-5.236v-0.1l4.646,5.111
			c0.173,0.186,0.41,0.289,0.656,0.289c0.104,0,0.211-0.021,0.314-0.061c0.341-0.129,0.564-0.457,0.564-0.823v-8.834h0.949
			c2.886,0,5.236-2.351,5.236-5.235V5.552C53.25,2.662,50.899,0.315,48.014,0.311L48.014,0.311z M39.116,33.88
			c0,1.915-1.558,3.472-3.473,3.472l-15.079,0.061c-0.25,0-0.487,0.108-0.65,0.289l-7.298,8.027v-7.432
			c0-0.487-0.393-0.885-0.885-0.885H5.486c-1.91,0-3.467-1.557-3.467-3.472V15.269c0-1.916,1.557-3.473,3.471-3.473l8.01-0.017
			l22.144-0.047c1.915,0,3.473,1.557,3.473,3.472V33.88z M51.481,24.223c0,1.915-1.557,3.472-3.468,3.472h-1.828
			c-0.492,0-0.885,0.397-0.885,0.885v7.432l-4.417-4.856v-15.95c0-2.885-2.351-5.236-5.24-5.236l-21.259,0.043V5.486
			c0-1.915,1.557-3.472,3.467-3.472L48.01,2.079h0.004c1.915,0,3.473,1.558,3.473,3.473v18.671H51.481z M51.481,24.223"/>
		<path d="M11.731,49.148c-0.131,0-0.267-0.025-0.402-0.076c-0.437-0.172-0.727-0.597-0.727-1.059v-8.583H5.486
			C2.461,39.431,0,36.968,0,33.94V15.269c0-3.027,2.461-5.49,5.486-5.49l6.879-0.013v-4.28c0-3.025,2.463-5.486,5.49-5.486
			l30.159,0.061C51.039,0.065,53.5,2.529,53.5,5.552v18.676c0,3.024-2.461,5.485-5.486,5.485h-0.699v8.584
			c0,0.468-0.292,0.893-0.726,1.057c-0.457,0.175-0.933,0.041-1.242-0.292L41.109,34.4c-0.263,2.782-2.614,4.966-5.466,4.966
			l-14.575,0.061l-8.496,9.351C12.353,49.014,12.046,49.148,11.731,49.148z M17.855,0.5c-2.751,0-4.99,2.237-4.99,4.986v4.779
			l-7.379,0.014c-2.75,0-4.987,2.239-4.987,4.99V33.94c0,2.752,2.237,4.99,4.986,4.99h5.616v9.083c0,0.258,0.163,0.496,0.406,0.592
			c0.261,0.096,0.524,0.019,0.696-0.166l8.643-9.513h0.11l14.686-0.061c2.753,0,4.991-2.237,4.991-4.986v-0.746l5.08,5.59
			c0.171,0.184,0.429,0.264,0.698,0.162c0.24-0.091,0.402-0.327,0.402-0.589v-9.084h1.199c2.749,0,4.986-2.236,4.986-4.985V5.552
			c0-2.748-2.237-4.986-4.986-4.991L17.855,0.5z M12.366,46.375v-8.078c0-0.35-0.285-0.635-0.635-0.635H5.486
			c-2.05,0-3.717-1.67-3.717-3.722V15.269c0-2.053,1.669-3.723,3.721-3.723l30.153-0.064c2.053,0,3.723,1.669,3.723,3.722V33.88
			c0,2.052-1.67,3.722-3.723,3.722l-15.078,0.061c-0.178,0-0.347,0.075-0.466,0.207L12.366,46.375z M35.645,11.982L5.491,12.046
			c-1.777,0-3.222,1.446-3.222,3.223V33.94c0,1.776,1.443,3.222,3.217,3.222h6.245c0.625,0,1.135,0.509,1.135,1.135v6.785
			l6.863-7.549c0.213-0.235,0.518-0.371,0.835-0.371l15.078-0.061c1.778,0,3.224-1.445,3.224-3.222V15.204
			C38.866,13.428,37.421,11.982,35.645,11.982L35.645,11.982z M45.551,36.657l-4.917-5.406V15.204c0-2.749-2.238-4.985-4.99-4.986
			l-21.509,0.043V5.486c0-2.052,1.667-3.722,3.717-3.722l30.159,0.064c2.056,0,3.726,1.67,3.726,3.723l-0.013,18.921
			c-0.13,1.936-1.744,3.472-3.71,3.472h-1.828c-0.35,0-0.635,0.285-0.635,0.635V36.657z M41.134,31.058l3.917,4.307v-6.785
			c0-0.626,0.509-1.135,1.135-1.135h1.828c1.774,0,3.218-1.445,3.218-3.222l0.005-18.671c0-1.777-1.445-3.223-3.223-3.223
			L17.851,2.265c-1.773,0-3.217,1.445-3.217,3.222v4.274l21.009-0.042c3.027,0,5.49,2.461,5.49,5.486V31.058z"/>
	</g>
</g>
</svg>
