<?xml version="1.0" encoding="utf-8"?>
<!-- Generator: Adobe Illustrator 16.0.0, SVG Export Plug-In . SVG Version: 6.00 Build 0)  -->
<!DOCTYPE svg PUBLIC "-//W3C//DTD SVG 1.1//EN" "http://www.w3.org/Graphics/SVG/1.1/DTD/svg11.dtd">
<svg version="1.1" id="Capa_1" xmlns="http://www.w3.org/2000/svg" xmlns:xlink="http://www.w3.org/1999/xlink" x="0px" y="0px"
	 width="10px" height="18.496px" viewBox="0 0 10 18.496" enable-background="new 0 0 10 18.496" xml:space="preserve">
<g>
	<path d="M9.623,0.004L7.225,0C4.529,0,2.789,1.787,2.789,4.553v2.099H0.377C0.168,6.651,0,6.819,0,7.028v3.041
		c0,0.209,0.168,0.378,0.377,0.378h2.412v7.674c0,0.207,0.168,0.377,0.377,0.377h3.146c0.208,0,0.377-0.17,0.377-0.377v-7.674h2.818
		c0.209,0,0.379-0.169,0.379-0.378l0.001-3.041c0-0.1-0.04-0.196-0.11-0.267C9.707,6.69,9.61,6.651,9.51,6.651h-2.82V4.873
		c0-0.855,0.203-1.289,1.316-1.289l1.617-0.002C9.83,3.582,10,3.414,10,3.205V0.381C10,0.174,9.83,0.006,9.623,0.004z"/>
</g>
</svg>
