<?xml version="1.0" encoding="utf-8"?>
<!-- Generator: Adobe Illustrator 16.0.0, SVG Export Plug-In . SVG Version: 6.00 Build 0)  -->
<!DOCTYPE svg PUBLIC "-//W3C//DTD SVG 1.1//EN" "http://www.w3.org/Graphics/SVG/1.1/DTD/svg11.dtd">
<svg version="1.1" id="Capa_1" xmlns="http://www.w3.org/2000/svg" xmlns:xlink="http://www.w3.org/1999/xlink" x="0px" y="0px"
	 width="49px" height="49.042px" viewBox="-2.794 -8.789 49 49.042" enable-background="new -2.794 -8.789 49 49.042"
	 xml:space="preserve">
<g display="none">
	<path display="inline" fill="#BBBABB" d="M22.712,42.574c-1.309-0.098-2.613-0.296-3.887-0.586l0.32-1.402
		c1.2,0.277,2.437,0.463,3.67,0.557L22.712,42.574z M29.563,42.199l-0.266-1.414c1.215-0.22,2.425-0.543,3.59-0.951l0.474,1.359
		C32.125,41.617,30.847,41.961,29.563,42.199z M12.393,39.586c-1.156-0.618-2.274-1.322-3.325-2.105l0.857-1.147
		c0.993,0.734,2.047,1.401,3.139,1.986L12.393,39.586z M39.489,38.098l-0.811-1.18c1.021-0.7,1.997-1.48,2.904-2.316l0.979,1.049
		C41.599,36.54,40.566,37.369,39.489,38.098z M4.134,32.714c-0.811-1.03-1.555-2.12-2.203-3.257l1.242-0.713
		c0.616,1.071,1.317,2.104,2.087,3.072L4.134,32.714z M46.946,30.369l-1.216-0.764c0.665-1.043,1.249-2.155,1.742-3.283l1.314,0.576
		C48.263,28.097,47.645,29.263,46.946,30.369z M-0.685,23.112c-0.333-1.263-0.574-2.562-0.713-3.865l1.429-0.154
		c0.132,1.232,0.36,2.459,0.675,3.653L-0.685,23.112z M50.688,20.299l-1.42-0.211c0.183-1.218,0.276-2.465,0.276-3.708
		c0-0.875-0.047-1.77-0.138-2.637l1.427-0.149c0.104,0.922,0.146,1.861,0.146,2.786C50.977,17.689,50.882,19.01,50.688,20.299z
		 M0.166,12.605l-1.42-0.217c0.199-1.292,0.492-2.585,0.884-3.83l1.366,0.427C0.634,10.16,0.351,11.379,0.166,12.605z M47.884,7.429
		c-0.448-1.148-0.98-2.275-1.596-3.353l1.248-0.709c0.645,1.138,1.211,2.328,1.687,3.546L47.884,7.429z M3.726,3.098L2.518,2.327
		c0.703-1.105,1.489-2.164,2.347-3.152l1.087,0.942C5.135,1.05,4.39,2.052,3.726,3.098z M42.359-1.087
		c-0.867-0.879-1.811-1.7-2.805-2.442l0.862-1.146c1.048,0.781,2.045,1.648,2.962,2.579L42.359-1.087z M10.804-4.192l-0.802-1.188
		c1.083-0.734,2.23-1.392,3.406-1.955l0.623,1.296C12.909-5.507,11.827-4.889,10.804-4.192z M33.894-6.698
		c-1.146-0.457-2.341-0.831-3.544-1.111l0.325-1.399c1.274,0.297,2.536,0.692,3.753,1.177L33.894-6.698z M20.193-8.046l-0.26-1.407
		c1.284-0.238,2.599-0.376,3.907-0.42l0.046,1.435C22.648-8.397,21.409-8.266,20.193-8.046z"/>
</g>
<g>
	<g>
		<path fill="#BBBABB" d="M21.669,40.253l-0.072-1.022c0.716,0,1.363-0.026,1.999-0.078l0.084,1.019
			C23.016,40.226,22.339,40.253,21.669,40.253z M16.417,39.688c-0.678-0.147-1.357-0.326-2.019-0.531l0.303-0.977
			c0.633,0.197,1.284,0.368,1.934,0.51L16.417,39.688z M28.799,39.2l-0.298-0.979c0.637-0.192,1.271-0.415,1.888-0.661l0.379,0.949
			C30.125,38.767,29.462,38.999,28.799,39.2z M9.614,37.093c-0.605-0.343-1.202-0.714-1.772-1.104l0.576-0.845
			c0.547,0.374,1.119,0.729,1.699,1.058L9.614,37.093z M35.37,36.074l-0.57-0.849c0.544-0.365,1.085-0.765,1.609-1.188l0.641,0.797
			C36.504,35.275,35.938,35.692,35.37,36.074z M3.875,32.611c-0.475-0.5-0.936-1.029-1.371-1.572L3.301,30.4
			c0.417,0.52,0.859,1.027,1.315,1.507L3.875,32.611z M40.739,31.158l-0.795-0.646c0.418-0.515,0.819-1.055,1.193-1.605l0.847,0.573
			C41.594,30.056,41.175,30.62,40.739,31.158z M-0.303,26.65c-0.31-0.621-0.596-1.263-0.851-1.904l0.951-0.377
			c0.244,0.615,0.518,1.229,0.814,1.826L-0.303,26.65z M44.436,24.885l-0.949-0.383c0.248-0.612,0.473-1.247,0.668-1.887l0.979,0.3
			C44.929,23.582,44.693,24.245,44.436,24.885z M-2.542,19.724c-0.113-0.683-0.197-1.379-0.251-2.071l1.02-0.08
			c0.052,0.663,0.132,1.331,0.24,1.986L-2.542,19.724z M46.118,17.8L45.1,17.714c0.057-0.659,0.084-1.331,0.084-1.998
			c0-0.24-0.004-0.478-0.011-0.714l1.022-0.03c0.007,0.246,0.011,0.494,0.011,0.744C46.206,16.411,46.177,17.112,46.118,17.8z
			 M-1.639,12.582l-1.013-0.135c0.092-0.69,0.214-1.381,0.363-2.056l0.999,0.221C-1.434,11.258-1.551,11.92-1.639,12.582z
			 M44.499,10.057c-0.161-0.649-0.351-1.294-0.563-1.919l0.969-0.33c0.222,0.652,0.419,1.325,0.587,2.003L44.499,10.057z
			 M0.303,5.881l-0.928-0.427c0.29-0.629,0.611-1.254,0.955-1.857l0.888,0.506C0.889,4.68,0.581,5.278,0.303,5.881z M41.833,3.611
			c-0.34-0.567-0.712-1.128-1.104-1.668l0.829-0.6c0.407,0.563,0.795,1.149,1.151,1.741L41.833,3.611z M4.133,0.048L3.372-0.633
			c0.462-0.517,0.952-1.02,1.456-1.496l0.702,0.744C5.046-0.929,4.576-0.447,4.133,0.048z M37.393-1.771
			c-0.493-0.443-1.013-0.872-1.544-1.273l0.617-0.815c0.554,0.418,1.095,0.866,1.609,1.329L37.393-1.771z M9.501-4.41L8.972-5.284
			c0.589-0.357,1.204-0.694,1.828-1.004l0.454,0.916C10.656-5.076,10.066-4.751,9.501-4.41z M31.569-5.619
			c-0.604-0.281-1.225-0.538-1.848-0.765l0.35-0.96c0.65,0.237,1.3,0.505,1.93,0.799L31.569-5.619z M15.938-7.096L15.69-8.087
			c0.671-0.168,1.359-0.309,2.044-0.42l0.163,1.009C17.241-7.392,16.582-7.256,15.938-7.096z M24.875-7.582
			c-0.66-0.09-1.33-0.152-1.992-0.186l0.053-1.021c0.689,0.035,1.389,0.1,2.077,0.193L24.875-7.582z"/>
	</g>
	<g>
		<g>
			<path fill="#7F7F7F" d="M26.395,6.264L23.942,6.26c-2.756,0-4.534,1.827-4.534,4.655v2.146h-2.466
				c-0.213,0-0.385,0.172-0.385,0.385v3.108c0,0.214,0.172,0.388,0.385,0.388h2.466v7.846c0,0.212,0.172,0.386,0.386,0.386h3.216
				c0.212,0,0.386-0.174,0.386-0.386v-7.846h2.881c0.214,0,0.388-0.174,0.388-0.388v-3.108c0-0.103-0.04-0.201-0.111-0.273
				c-0.072-0.072-0.172-0.112-0.273-0.112h-2.884v-1.818c0-0.875,0.208-1.318,1.346-1.318l1.653-0.002
				c0.212,0,0.386-0.172,0.386-0.386V6.649C26.78,6.438,26.606,6.266,26.395,6.264z"/>
		</g>
	</g>
</g>
</svg>
