<?xml version="1.0" encoding="utf-8"?>
<!-- Generator: Adobe Illustrator 16.0.0, SVG Export Plug-In . SVG Version: 6.00 Build 0)  -->
<!DOCTYPE svg PUBLIC "-//W3C//DTD SVG 1.1//EN" "http://www.w3.org/Graphics/SVG/1.1/DTD/svg11.dtd">
<svg version="1.1" id="Шар_1" xmlns="http://www.w3.org/2000/svg" xmlns:xlink="http://www.w3.org/1999/xlink" x="0px" y="0px"
	 width="56px" height="58.088px" viewBox="280.572 319.262 56 58.088" enable-background="new 280.572 319.262 56 58.088"
	 xml:space="preserve">
<g>
	<g>
		<path d="M323.545,372.218h-38.129v-51.353h38.129v17.636h1.325V319.54h-40.78v4.13h-3.241v53.401h35.729v-3.53h8.292v-20.351
			h-1.325V372.218z M315.253,375.748h-33.078v-50.751h1.916v48.546h31.163V375.748z"/>
		<path fill="#020202" d="M316.857,377.35h-36.285v-53.958h3.241v-4.131h41.336v19.517h-1.882v-17.635h-37.573v50.796h37.573
			v-19.027h1.882v20.908h-8.292V377.35z M281.128,376.793H316.3v-3.53h8.292v-19.794h-0.769v19.027h-38.686v-51.909h38.686v17.636
			h0.769v-18.404h-40.223v4.13h-3.241V376.793z M315.531,376.025h-33.635v-51.307h2.472v48.546h31.163V376.025z M282.453,375.469
			h32.521v-1.648h-31.163v-48.546h-1.359V375.469z"/>
	</g>
	<g>
		<rect x="289.422" y="323.671" width="8.656" height="1.325"/>
		<path fill="#020202" d="M298.357,325.275h-9.213v-1.882h9.213V325.275z M289.7,324.718h8.099v-0.769H289.7V324.718z"/>
	</g>
	<g>
		<rect x="289.422" y="331.101" width="30.302" height="1.325"/>
		<path fill="#020202" d="M320.002,332.705h-30.858v-1.881h30.858V332.705z M289.7,332.148h29.745v-0.769H289.7V332.148z"/>
	</g>
	<g>
		<rect x="289.422" y="337.838" width="30.302" height="1.325"/>
		<path fill="#020202" d="M320.002,339.442h-30.858v-1.882h30.858V339.442z M289.7,338.885h29.745v-0.769H289.7V338.885z"/>
	</g>
	<g>
		<rect x="289.422" y="344.685" width="25.773" height="1.325"/>
		<path fill="#020202" d="M315.474,346.289h-26.33v-1.882h26.33V346.289z M289.7,345.732h25.217v-0.769H289.7V345.732z"/>
	</g>
	<g>
		<rect x="289.422" y="351.311" width="19.82" height="1.325"/>
		<path fill="#020202" d="M309.521,352.915h-20.377v-1.882h20.377V352.915z M289.7,352.358h19.264v-0.769H289.7V352.358z"/>
	</g>
	<g>
		<rect x="289.422" y="358.49" width="15.374" height="1.325"/>
		<path fill="#020202" d="M305.074,360.094h-15.931v-1.882h15.931V360.094z M289.7,359.537h14.817v-0.769H289.7V359.537z"/>
	</g>
	<g>
		<rect x="289.422" y="365.619" width="21.072" height="1.325"/>
		<path fill="#020202" d="M310.773,367.222h-21.629v-1.882h21.629V367.222z M289.7,366.666h20.516v-0.769H289.7V366.666z"/>
	</g>
	<g>
		<path d="M308.384,356.428l-1.521,6.582l6.571-1.49l-0.012-0.054l0.104,0.105l22.651-22.652l-5.222-5.221l-22.65,22.65
			L308.384,356.428z M308.629,361.25l0.86-3.717l2.871,2.871L308.629,361.25z M329.292,343.931l-11.614,11.614l-3.348-3.348
			l11.613-11.613L329.292,343.931z M326.881,339.646l0.422-0.421l3.347,3.348l-0.42,0.42L326.881,339.646z M334.304,338.919
			l-2.718,2.718l-3.347-3.348l2.717-2.717L334.304,338.919z M313.394,353.134l3.348,3.348l-3.215,3.215l-3.348-3.348
			L313.394,353.134z"/>
		<path fill="#020202" d="M306.492,363.38l1.586-6.864l-0.166-0.167l23.044-23.044l5.615,5.614l-22.805,22.805l0.002,0.005
			l-0.009,0.001l-0.233,0.233l-0.146-0.147L306.492,363.38z M308.685,356.363l-1.451,6.278l5.866-1.331l-0.169-0.73l0.596,0.597
			l22.258-22.258l-4.828-4.827L308.685,356.363z M308.258,361.62l1.073-4.638l3.582,3.582L308.258,361.62z M309.648,358.085
			L309,360.88l2.807-0.636L309.648,358.085z M313.527,360.091l-3.741-3.742l3.608-3.608l3.741,3.742L313.527,360.091z
			 M310.573,356.349l2.954,2.955l2.821-2.821l-2.954-2.955L310.573,356.349z M317.678,355.939l-3.741-3.742l12.007-12.007
			l3.742,3.741L317.678,355.939z M314.724,352.197l2.954,2.955l11.221-11.221l-2.955-2.954L314.724,352.197z M330.23,343.387
			l-3.742-3.74l0.815-0.814l3.74,3.741L330.23,343.387z M327.276,339.646l2.954,2.953l0.026-0.026l-2.953-2.954L327.276,339.646z
			 M331.586,342.031l-3.74-3.741l3.11-3.11l3.741,3.74L331.586,342.031z M328.633,338.29l2.953,2.954l2.323-2.324l-2.953-2.953
			L328.633,338.29z"/>
	</g>
	<g>
		<path d="M319.779,323.671h-8.752v6.215h8.752V323.671z M318.453,328.562h-6.102v-3.565h6.102V328.562z"/>
		<path fill="#020202" d="M320.057,330.165h-9.309v-6.772h9.309V330.165z M311.305,329.608h8.195v-5.659h-8.195V329.608z
			 M318.732,328.84h-6.658v-4.122h6.658V328.84z M312.63,328.283h5.545v-3.008h-5.545V328.283z"/>
	</g>
	<g>
		<path d="M313.539,366.281c0,1.888,1.536,3.424,3.424,3.424s3.424-1.536,3.424-3.424s-1.536-3.424-3.424-3.424
			S313.539,364.394,313.539,366.281z M319.061,366.281c0,1.157-0.941,2.099-2.098,2.099c-1.157,0-2.099-0.942-2.099-2.099
			s0.941-2.099,2.099-2.099C318.119,364.183,319.061,365.125,319.061,366.281z"/>
		<path fill="#020202" d="M316.963,369.983c-2.042,0-3.702-1.661-3.702-3.702s1.66-3.702,3.702-3.702
			c2.041,0,3.702,1.661,3.702,3.702S319.004,369.983,316.963,369.983z M316.963,363.136c-1.734,0-3.146,1.411-3.146,3.146
			s1.411,3.146,3.146,3.146s3.146-1.411,3.146-3.146S318.698,363.136,316.963,363.136z M316.963,368.658
			c-1.311,0-2.377-1.066-2.377-2.377s1.066-2.377,2.377-2.377s2.376,1.066,2.376,2.377S318.274,368.658,316.963,368.658z
			 M316.963,364.461c-1.004,0-1.82,0.816-1.82,1.82s0.816,1.82,1.82,1.82c1.003,0,1.819-0.816,1.819-1.82
			S317.966,364.461,316.963,364.461z"/>
	</g>
	<g>
		<rect x="299.332" y="323.671" width="2.977" height="1.325"/>
		<path fill="#020202" d="M302.587,325.275h-3.533v-1.882h3.533V325.275z M299.611,324.718h2.42v-0.769h-2.42V324.718z"/>
	</g>
</g>
</svg>
