<?xml version="1.0" encoding="utf-8"?>
<!-- Generator: Adobe Illustrator 16.0.0, SVG Export Plug-In . SVG Version: 6.00 Build 0)  -->
<!DOCTYPE svg PUBLIC "-//W3C//DTD SVG 1.1//EN" "http://www.w3.org/Graphics/SVG/1.1/DTD/svg11.dtd">
<svg version="1.1" id="Layer_1" xmlns="http://www.w3.org/2000/svg" xmlns:xlink="http://www.w3.org/1999/xlink" x="0px" y="0px"
	 width="60px" height="61.297px" viewBox="267.64 390.296 60 61.297" enable-background="new 267.64 390.296 60 61.297"
	 xml:space="preserve">
<g>
	<g>
		<g>
			<path d="M327.281,413.641c-0.444-0.99-1.247-1.748-2.262-2.133c-0.479-0.182-0.978-0.27-1.476-0.266l0.756-1.989
				c0.386-1.015,0.353-2.119-0.093-3.106c-0.444-0.99-1.248-1.747-2.261-2.132c-0.65-0.247-1.325-0.314-1.971-0.229
				c-0.047-0.413-0.157-0.819-0.332-1.208c-0.444-0.989-1.247-1.747-2.261-2.132c-2.094-0.794-4.443,0.261-5.238,2.354l-0.561,1.475
				c-0.369-0.333-0.8-0.599-1.28-0.781c-1.013-0.385-2.116-0.352-3.105,0.093c-0.988,0.445-1.745,1.248-2.131,2.262l-1.351,3.557
				c-0.254,0.667,0.082,1.415,0.749,1.668c0.151,0.058,0.307,0.084,0.459,0.084c0.521,0,1.014-0.318,1.21-0.834l1.351-3.557
				c0.14-0.369,0.415-0.66,0.773-0.822c0.359-0.161,0.759-0.173,1.127-0.034c0.368,0.14,0.659,0.415,0.821,0.775
				c0.161,0.357,0.173,0.757,0.034,1.124l-1.698,4.471l-1.904,5.013c-0.254,0.667,0.082,1.415,0.75,1.668
				c0.151,0.058,0.306,0.084,0.459,0.084c0.521,0,1.013-0.318,1.209-0.834l1.904-5.013l3.602-9.482
				c0.288-0.76,1.142-1.144,1.901-0.855c0.368,0.14,0.659,0.415,0.821,0.774c0.161,0.358,0.173,0.758,0.032,1.127l-0.609,1.604
				l-3.602,9.482c-0.254,0.668,0.082,1.415,0.75,1.668c0.15,0.057,0.306,0.084,0.459,0.084c0.521,0,1.013-0.318,1.209-0.834
				l3.602-9.482c0.289-0.76,1.142-1.144,1.901-0.854c0.368,0.14,0.659,0.415,0.821,0.775c0.161,0.358,0.174,0.758,0.033,1.126
				l-2.1,5.528l-3.602,9.482c-0.253,0.668,0.082,1.414,0.75,1.668c0.668,0.253,1.415-0.082,1.668-0.75l3.602-9.481
				c0.14-0.368,0.415-0.66,0.773-0.821c0.359-0.162,0.761-0.173,1.128-0.034c0.368,0.14,0.659,0.414,0.82,0.773
				s0.173,0.76,0.033,1.127l-4.008,10.553l-0.042,0.109c-0.029,0.078-0.05,0.157-0.063,0.235l-6.467,21.872l-21.115-8.021
				c-0.668-0.253-1.415,0.082-1.668,0.75c-0.254,0.668,0.082,1.415,0.75,1.668l22.419,8.516c0.148,0.057,0.304,0.084,0.459,0.084
				c0.197,0,0.395-0.045,0.574-0.134c0.323-0.16,0.564-0.447,0.666-0.792l6.923-23.416l3.99-10.506
				C327.758,415.732,327.725,414.629,327.281,413.641z"/>
		</g>
	</g>
	<g>
		<g>
			<path d="M303.899,437.572l-1.844-24.348v-11.238c0-1.084-0.422-2.104-1.188-2.869c-0.767-0.768-1.786-1.191-2.871-1.191
				c-0.52,0-1.017,0.099-1.474,0.278v-2.13c0-1.086-0.423-2.106-1.19-2.871c-0.767-0.767-1.787-1.189-2.871-1.189
				c-0.695,0-1.351,0.176-1.923,0.485c-0.19-0.369-0.438-0.71-0.739-1.012c-0.767-0.767-1.787-1.19-2.871-1.19
				c-2.239,0-4.061,1.822-4.061,4.061v1.578c-0.463-0.18-0.961-0.275-1.474-0.275c-2.238,0-4.059,1.821-4.059,4.06v18.46
				l-3.022-2.072c-0.001-0.001-0.003-0.001-0.004-0.003c-0.711-0.486-1.543-0.743-2.405-0.743c-1.139,0-2.21,0.443-3.016,1.249
				c-1.662,1.662-1.662,4.366,0,6.028l8.448,8.447v6.584c0,0.714,0.579,1.293,1.293,1.293h23.981
				c0.36,0.001,0.704-0.149,0.948-0.413C303.802,438.286,303.926,437.931,303.899,437.572z M279.92,436.376L279.92,436.376v-5.826
				c0,0,0-0.001,0-0.002c0-0.029-0.001-0.051-0.003-0.069c-0.017-0.307-0.141-0.609-0.375-0.844l-8.827-8.826
				c-0.653-0.653-0.653-1.717,0-2.37c0.316-0.317,0.738-0.491,1.187-0.491c0.339,0,0.667,0.101,0.947,0.293c0,0,0,0,0,0l5.042,3.456
				c0.224,0.153,0.478,0.227,0.73,0.227c0.412,0,0.817-0.196,1.068-0.563c0.122-0.177,0.191-0.373,0.216-0.572
				c0.01-0.039,0.015-0.091,0.015-0.159v-20.911c0-0.813,0.661-1.474,1.473-1.474c0.394,0,0.763,0.153,1.043,0.433
				c0.278,0.277,0.431,0.647,0.431,1.041v4.781v5.362c0,0.714,0.579,1.293,1.293,1.293s1.293-0.579,1.293-1.293V404.5v-10.143
				c0-0.813,0.661-1.474,1.474-1.474c0.394,0,0.764,0.153,1.042,0.432c0.277,0.278,0.431,0.648,0.431,1.042v1.716v10.143
				c0,0.714,0.579,1.293,1.293,1.293c0.714,0,1.293-0.579,1.293-1.293v-10.143c0-0.813,0.661-1.474,1.474-1.474
				c0.394,0,0.763,0.153,1.043,0.433c0.278,0.277,0.431,0.647,0.431,1.041v5.913v10.143c0,0.714,0.579,1.293,1.293,1.293
				c0.714,0,1.293-0.579,1.293-1.293v-10.143c0-0.813,0.661-1.474,1.474-1.474c0.394,0,0.763,0.153,1.041,0.433
				c0.278,0.278,0.432,0.648,0.432,1.042v11.405c0,0.083,0.009,0.165,0.024,0.243l1.721,22.742H279.92L279.92,436.376z"/>
		</g>
	</g>
</g>
</svg>
