<?xml version="1.0" encoding="utf-8"?>
<!-- Generator: Adobe Illustrator 16.0.0, SVG Export Plug-In . SVG Version: 6.00 Build 0)  -->
<!DOCTYPE svg PUBLIC "-//W3C//DTD SVG 1.1//EN" "http://www.w3.org/Graphics/SVG/1.1/DTD/svg11.dtd">
<svg version="1.1" id="Capa_1" xmlns="http://www.w3.org/2000/svg" xmlns:xlink="http://www.w3.org/1999/xlink" x="0px" y="0px"
	 width="49px" height="48.957px" viewBox="0 0 49 48.957" enable-background="new 0 0 49 48.957" xml:space="preserve">
<g display="none">
	<path display="inline" fill="#BBBABB" d="M22.712,42.575c-1.309-0.099-2.613-0.298-3.887-0.587l0.32-1.401
		c1.2,0.276,2.437,0.463,3.67,0.558L22.712,42.575z M29.563,42.2l-0.266-1.414c1.215-0.222,2.426-0.543,3.59-0.951l0.475,1.358
		C32.125,41.618,30.848,41.961,29.563,42.2z M12.393,39.586c-1.156-0.619-2.274-1.322-3.325-2.105l0.857-1.146
		c0.993,0.733,2.047,1.399,3.139,1.985L12.393,39.586z M39.488,38.098l-0.812-1.18c1.021-0.701,1.996-1.48,2.904-2.316l0.979,1.049
		C41.6,36.54,40.566,37.37,39.488,38.098z M4.134,32.713c-0.811-1.029-1.555-2.119-2.203-3.256l1.242-0.713
		c0.616,1.07,1.317,2.104,2.087,3.072L4.134,32.713z M46.945,30.37l-1.215-0.765c0.664-1.043,1.248-2.155,1.742-3.283l1.313,0.576
		C48.264,28.098,47.645,29.264,46.945,30.37z M-0.685,23.112c-0.333-1.263-0.574-2.562-0.713-3.865l1.429-0.154
		c0.132,1.232,0.36,2.459,0.675,3.653L-0.685,23.112z M50.688,20.299l-1.42-0.211c0.186-1.218,0.275-2.465,0.275-3.708
		c0-0.875-0.047-1.77-0.139-2.637l1.428-0.149c0.104,0.922,0.146,1.861,0.146,2.786C50.977,17.689,50.881,19.01,50.688,20.299z
		 M0.166,12.605l-1.42-0.217c0.199-1.292,0.492-2.585,0.884-3.83l1.366,0.427C0.634,10.16,0.351,11.379,0.166,12.605z M47.883,7.429
		c-0.447-1.148-0.979-2.275-1.596-3.353l1.248-0.709c0.646,1.138,1.211,2.328,1.688,3.546L47.883,7.429z M3.726,3.098L2.518,2.327
		c0.703-1.105,1.489-2.164,2.347-3.152l1.087,0.942C5.135,1.05,4.39,2.052,3.726,3.098z M42.359-1.087
		c-0.866-0.879-1.813-1.7-2.805-2.442l0.86-1.146c1.047,0.781,2.045,1.648,2.961,2.579L42.359-1.087z M10.804-4.192L10.002-5.38
		c1.083-0.734,2.23-1.392,3.406-1.955l0.623,1.296C12.909-5.507,11.827-4.889,10.804-4.192z M33.895-6.698
		c-1.146-0.457-2.342-0.831-3.545-1.111l0.325-1.399c1.274,0.297,2.536,0.692,3.753,1.177L33.895-6.698z M20.193-8.046l-0.26-1.407
		c1.284-0.238,2.599-0.376,3.907-0.42l0.046,1.435C22.648-8.397,21.409-8.266,20.193-8.046z"/>
</g>
<g>
	<path d="M26.607,48.957l-0.078-1.018c0.668-0.054,1.336-0.135,1.982-0.24l0.166,1.008C28.001,48.818,27.305,48.902,26.607,48.957z
		 M21.406,48.816c-0.688-0.092-1.379-0.213-2.053-0.361l0.221-0.997c0.646,0.144,1.309,0.259,1.968,0.349L21.406,48.816z
		 M33.695,47.32l-0.377-0.95c0.621-0.246,1.234-0.521,1.826-0.813l0.453,0.914C34.982,46.777,34.342,47.063,33.695,47.32z
		 M14.418,46.792c-0.633-0.292-1.257-0.612-1.855-0.953l0.506-0.888c0.572,0.326,1.17,0.633,1.777,0.913L14.418,46.792z
		 M39.982,43.665l-0.64-0.796c0.521-0.419,1.027-0.861,1.507-1.314l0.705,0.739C41.055,42.77,40.527,43.229,39.982,43.665z
		 M8.338,42.798c-0.52-0.465-1.023-0.952-1.495-1.454l0.743-0.701c0.453,0.479,0.936,0.949,1.432,1.396L8.338,42.798z M44.93,38.332
		l-0.846-0.577c0.373-0.545,0.729-1.116,1.057-1.696l0.892,0.504C45.689,37.167,45.318,37.764,44.93,38.332z M3.69,37.203
		c-0.361-0.596-0.699-1.211-1.003-1.827l0.916-0.453c0.292,0.591,0.616,1.181,0.962,1.753L3.69,37.203z M48.094,31.782l-0.976-0.304
		c0.196-0.634,0.366-1.283,0.509-1.934l0.997,0.219C48.477,30.443,48.298,31.12,48.094,31.782z M0.89,30.491
		c-0.167-0.671-0.309-1.356-0.419-2.042l1.009-0.164c0.106,0.656,0.241,1.314,0.401,1.958L0.89,30.491z M48.167,24.589
		c0-0.714-0.024-1.362-0.077-1.999l1.018-0.084c0.057,0.665,0.082,1.342,0.082,2.012L48.167,24.589z M1.209,23.305l-1.021-0.053
		c0.036-0.689,0.1-1.388,0.193-2.076l1.013,0.139C1.305,21.973,1.242,22.643,1.209,23.305z M47.16,17.689
		c-0.193-0.635-0.416-1.271-0.661-1.885l0.948-0.378c0.256,0.642,0.488,1.304,0.689,1.968L47.16,17.689z M2.592,16.471l-0.96-0.35
		c0.236-0.649,0.505-1.298,0.798-1.929l0.927,0.431C3.076,15.228,2.818,15.85,2.592,16.471z M44.166,11.397
		c-0.367-0.546-0.766-1.086-1.186-1.607l0.795-0.641c0.438,0.543,0.854,1.108,1.238,1.679L44.166,11.397z M5.928,10.349L5.114,9.733
		c0.417-0.551,0.863-1.091,1.328-1.608l0.76,0.683C6.756,9.303,6.328,9.822,5.928,10.349z M39.458,6.256
		c-0.521-0.42-1.06-0.822-1.604-1.193l0.571-0.845c0.571,0.387,1.136,0.805,1.675,1.244L39.458,6.256z M10.911,5.472l-0.599-0.828
		c0.56-0.405,1.145-0.792,1.738-1.149l0.526,0.875C12.008,4.712,11.447,5.083,10.911,5.472z M33.452,2.716
		c-0.619-0.25-1.253-0.474-1.886-0.667l0.3-0.977c0.659,0.202,1.321,0.437,1.967,0.696L33.452,2.716z M17.102,2.268L16.771,1.3
		c0.658-0.224,1.332-0.42,2.002-0.586l0.246,0.992C18.376,1.865,17.73,2.054,17.102,2.268z M26.669,1.105
		c-0.897-0.076-1.815-0.1-2.711-0.073L23.93,0.011c0.932-0.026,1.888-0.002,2.825,0.077L26.669,1.105z"/>
</g>
<g>
	<path d="M28.497,15.979H20.88c-2.588,0-4.691,2.104-4.691,4.691v7.617c0,2.586,2.104,4.691,4.691,4.691h7.617
		c2.586,0,4.691-2.105,4.691-4.691V20.67C33.188,18.083,31.083,15.979,28.497,15.979z M31.681,28.287
		c0,1.756-1.428,3.184-3.184,3.184H20.88c-1.756,0-3.184-1.428-3.184-3.184V20.67c0-1.756,1.428-3.184,3.184-3.184h7.617
		c1.756,0,3.184,1.428,3.184,3.184V28.287L31.681,28.287z"/>
	<path d="M24.688,20.098c-2.416,0-4.381,1.966-4.381,4.382c0,2.415,1.966,4.379,4.381,4.379s4.381-1.965,4.381-4.379
		C29.069,22.064,27.105,20.098,24.688,20.098z M24.688,27.35c-1.584,0-2.872-1.287-2.872-2.871c0-1.584,1.288-2.872,2.872-2.872
		c1.583,0,2.873,1.289,2.873,2.872C27.562,26.063,26.273,27.35,24.688,27.35z"/>
	<path d="M29.253,18.82c-0.291,0-0.576,0.118-0.781,0.323c-0.207,0.205-0.324,0.492-0.324,0.783s0.117,0.576,0.324,0.781
		c0.205,0.205,0.49,0.324,0.781,0.324s0.576-0.119,0.781-0.324c0.207-0.205,0.324-0.492,0.324-0.781
		c0-0.293-0.117-0.578-0.324-0.783C29.829,18.938,29.544,18.82,29.253,18.82z"/>
</g>
</svg>
