<?xml version="1.0" encoding="utf-8"?>
<!-- Generator: Adobe Illustrator 16.0.0, SVG Export Plug-In . SVG Version: 6.00 Build 0)  -->
<!DOCTYPE svg PUBLIC "-//W3C//DTD SVG 1.1//EN" "http://www.w3.org/Graphics/SVG/1.1/DTD/svg11.dtd">
<svg version="1.1" id="Layer_1" xmlns="http://www.w3.org/2000/svg" xmlns:xlink="http://www.w3.org/1999/xlink" x="0px" y="0px"
	 width="17px" height="17px" viewBox="76.031 76.031 17 17" enable-background="new 76.031 76.031 17 17" xml:space="preserve">
<g>
	<path d="M88.339,76.031h-7.617c-2.587,0-4.691,2.104-4.691,4.691v7.618c0,2.586,2.104,4.691,4.691,4.691h7.617
		c2.587,0,4.692-2.105,4.692-4.691v-7.618C93.031,78.135,90.926,76.031,88.339,76.031z M91.523,88.34
		c0,1.755-1.428,3.183-3.183,3.183h-7.618c-1.755,0-3.183-1.428-3.183-3.183v-7.618c0-1.755,1.428-3.183,3.183-3.183h7.617
		c1.756,0,3.184,1.428,3.184,3.183V88.34L91.523,88.34z"/>
	<path d="M84.531,80.151c-2.416,0-4.38,1.965-4.38,4.381c0,2.415,1.965,4.38,4.38,4.38s4.38-1.965,4.38-4.38
		C88.911,82.116,86.947,80.151,84.531,80.151z M84.531,87.403c-1.583,0-2.872-1.288-2.872-2.872s1.288-2.872,2.872-2.872
		c1.583,0,2.873,1.289,2.873,2.872S86.115,87.403,84.531,87.403z"/>
	<path d="M89.095,78.872c-0.29,0-0.576,0.118-0.781,0.324c-0.206,0.205-0.324,0.491-0.324,0.782c0,0.291,0.118,0.576,0.324,0.782
		c0.205,0.205,0.491,0.324,0.781,0.324c0.292,0,0.576-0.119,0.782-0.324c0.206-0.206,0.324-0.492,0.324-0.782
		c0-0.292-0.118-0.577-0.324-0.782C89.672,78.99,89.387,78.872,89.095,78.872z"/>
</g>
</svg>
