<svg version="1.1" 	 xmlns="http://www.w3.org/2000/svg" xmlns:xlink="http://www.w3.org/1999/xlink" x="0px" y="0px" width="22px" height="22px"
	 viewBox="138.997 139.003 22 22" enable-background="new 138.997 139.003 22 22" xml:space="preserve">
<g id="g4384" transform="matrix(.90995 0 0 .92063 -440.87 568.84)">
	<ellipse id="path3338-9" fill="#CECECE" cx="649.34" cy="-454.945" rx="12.089" ry="11.949"/>
	<path id="path4177-1-8" fill="#FFFFFF" d="M655.797-458.472c-1.472,0-2.666,1.183-2.666,2.642c0,0.004,0.001,0.009,0.001,0.013
		c-4.766,1.374-9.445,4.857-11.764,9.855c1.241,1.088,2.7,1.889,4.277,2.397c0.882-5.233,4.76-9.213,8.132-10.545
		c0.505,0.583,1.243,0.921,2.02,0.922c1.472,0,2.666-1.183,2.666-2.642C658.463-457.289,657.269-458.472,655.797-458.472
		L655.797-458.472z"/>
	<path id="path3338" fill="#FFFFFF" d="M647.394-463.505c-1.472,0-2.666,1.183-2.666,2.642c0.001,0.059,0.003,0.119,0.007,0.178
		c-3.312,1.295-5.835,3.446-7.48,6.047c0.071,2.316,0.786,4.564,2.122,6.462c0.122-4.249,2.264-8.322,5.919-11.058
		c0.505,0.64,1.278,1.013,2.098,1.014c1.472,0,2.665-1.183,2.666-2.642C650.061-462.322,648.867-463.505,647.394-463.505
		L647.394-463.505z"/>
</g>
</svg>
