<?xml version="1.0" encoding="utf-8"?>
<!-- Generator: Adobe Illustrator 16.0.0, SVG Export Plug-In . SVG Version: 6.00 Build 0)  -->
<!DOCTYPE svg PUBLIC "-//W3C//DTD SVG 1.1//EN" "http://www.w3.org/Graphics/SVG/1.1/DTD/svg11.dtd">
<svg version="1.1" id="Шар_1" xmlns="http://www.w3.org/2000/svg" xmlns:xlink="http://www.w3.org/1999/xlink" x="0px" y="0px"
	 width="36px" height="21.027px" viewBox="279.384 399.532 36 21.027" enable-background="new 279.384 399.532 36 21.027"
	 xml:space="preserve">
<g>
	<g>
		<g>
			<path fill="#B5B5B5" d="M314.629,401.693c-0.485-0.485-1.273-0.485-1.759,0l-15.469,15.5l-15.5-15.5
				c-0.485-0.485-1.274-0.485-1.759,0c-0.485,0.485-0.485,1.274,0,1.759l16.349,16.349c0.243,0.243,0.546,0.364,0.88,0.364
				c0.303,0,0.637-0.121,0.879-0.364l16.349-16.349C315.115,402.967,315.115,402.178,314.629,401.693z"/>
			<path fill="#FFFFFF" d="M297.371,420.56c-0.444,0-0.845-0.166-1.159-0.479l-16.349-16.349c-0.639-0.639-0.639-1.678,0-2.317
				c0.31-0.309,0.721-0.479,1.159-0.479s0.849,0.17,1.159,0.479l15.22,15.221l15.19-15.22c0.31-0.31,0.721-0.48,1.159-0.48
				c0.438,0,0.849,0.17,1.158,0.479c0.313,0.313,0.482,0.729,0.476,1.168c-0.007,0.438-0.188,0.847-0.51,1.152L298.53,420.08
				C298.225,420.385,297.802,420.56,297.371,420.56z M281.022,401.724c-0.227,0-0.44,0.088-0.601,0.249
				c-0.332,0.331-0.332,0.87,0,1.201l16.349,16.349c0.165,0.165,0.367,0.249,0.601,0.249c0.22,0,0.445-0.093,0.601-0.249
				l16.358-16.357c0.168-0.158,0.263-0.37,0.266-0.594c0.004-0.225-0.083-0.438-0.244-0.599c-0.16-0.161-0.374-0.249-0.601-0.249
				c-0.228,0-0.44,0.088-0.601,0.249l-15.749,15.778l-15.779-15.778C281.462,401.812,281.249,401.724,281.022,401.724z"/>
		</g>
	</g>
	<g>
		<g>
			<path fill="#B5B5B5" d="M303.821,399.836c-0.187-0.187-0.489-0.187-0.677,0l-5.951,5.963l-5.962-5.963
				c-0.187-0.187-0.49-0.187-0.677,0c-0.187,0.187-0.187,0.49,0,0.677l6.29,6.29c0.093,0.093,0.21,0.14,0.338,0.14
				c0.116,0,0.245-0.047,0.338-0.14l6.29-6.29C304.008,400.327,304.008,400.023,303.821,399.836z"/>
			<path fill="#FFFFFF" d="M297.182,407.107c-0.175,0-0.332-0.065-0.455-0.188l-6.289-6.289c-0.25-0.25-0.25-0.658,0-0.909
				c0.122-0.121,0.283-0.188,0.455-0.188s0.333,0.067,0.455,0.188l5.846,5.846l5.834-5.846c0.122-0.121,0.283-0.188,0.455-0.188
				s0.333,0.067,0.454,0.188c0.123,0.123,0.189,0.286,0.188,0.459c-0.003,0.172-0.075,0.333-0.202,0.454l-6.286,6.286
				C297.517,407.039,297.351,407.107,297.182,407.107z M290.892,399.861c-0.084,0-0.163,0.033-0.222,0.092
				c-0.123,0.123-0.123,0.322,0,0.444l6.289,6.29c0.061,0.061,0.136,0.092,0.223,0.092c0.082,0,0.165-0.034,0.222-0.092l6.29-6.29
				c0.065-0.062,0.101-0.14,0.102-0.223s-0.03-0.162-0.091-0.221c-0.059-0.059-0.138-0.092-0.222-0.092s-0.163,0.033-0.223,0.092
				l-6.066,6.079l-6.079-6.079C291.055,399.894,290.976,399.861,290.892,399.861z"/>
		</g>
	</g>
</g>
</svg>
