<svg version="1.1" id="Шар_1" 	 xmlns="http://www.w3.org/2000/svg" xmlns:xlink="http://www.w3.org/1999/xlink" x="0px" y="0px" width="137.942px"
	 height="97.473px" viewBox="0 0 137.942 97.473" enable-background="new 0 0 137.942 97.473" xml:space="preserve">
<g>
	<g>
		<g>
			<path fill="#767679" d="M189.95,147.592H-51.312V-58.425H189.95V147.592z M-46.436,142.715h231.509V-53.548H-46.436V142.715z"/>
		</g>
		<g>
			<path fill="#767679" d="M-34.567,169.538l0.009-249.909h207.772v249.899L-34.567,169.538z M-29.681-75.494l-0.009,240.155
				l198.028-0.01V-75.494H-29.681z"/>
		</g>
	</g>
	<g>
		<g>
			<path fill="#767679" d="M-118.998,213.239h2.22l6.973,16.612l7.096-16.612h2.22l-7.982,18.579l10.145,23.455l18.126-42.415h2.41
				l-19.46,45.016h-2.162l-10.335-23.965l-10.334,23.965h-2.153l-19.402-45.016h2.353l18.193,42.415l10.078-23.455L-118.998,213.239
				z"/>
		</g>
		<g>
			<path fill="#767679" d="M-42.292,257.874h-2.152V239.49c0-8.62-2.981-13.059-8.687-13.059c-5.83,0-11.602,4.687-13.25,10.84
				v20.603h-2.152v-46.282h2.152v21.555c2.724-5.324,8.049-8.744,13.631-8.744c7.039,0,10.458,5.387,10.458,14.831V257.874z"/>
		</g>
		<g>
			<path fill="#767679" d="M-29.29,216.916v-5.324h2.153v5.324H-29.29z M-29.29,257.874v-32.967h2.153v32.967H-29.29z"/>
		</g>
		<g>
			<path fill="#767679" d="M0,256.359c-0.314,0.124-2.915,1.839-6.401,1.839c-3.305,0-6.086-2.029-6.086-5.458v-25.928h-4.696
				v-1.905h4.696v-11.349h2.152v11.349h7.801v1.905h-7.801v25.613c0.19,2.467,2.153,3.743,4.306,3.743c2.733,0,5.01-1.4,5.2-1.591
				L0,256.359z"/>
		</g>
		<g>
			<path fill="#767679" d="M6.524,241.205c0-9.258,6.916-16.803,15.793-16.803c9.068,0,15.974,7.668,16.04,16.993
				c0,0.19,0,0.886-0.066,0.943H8.744c0.638,8.115,6.658,14.335,13.954,14.335c4.811,0,9.506-2.725,11.278-6.658l1.972,0.505
				c-1.838,4.63-7.487,7.991-13.383,7.991C13.63,258.512,6.524,250.645,6.524,241.205z M36.195,240.5
				c-0.571-8.301-6.401-14.197-13.821-14.197c-7.411,0-13.183,6.025-13.63,14.197H36.195z"/>
		</g>
		<g>
			<path fill="#767679" d="M86.031,257.874l-6.277-6.524c-3.296,4.305-8.115,7.162-13.954,7.162
				c-7.163,0-13.945-4.248-13.945-11.668c0-6.21,4.82-10.021,10.459-13.82c-5.134-5.392-6.906-8.24-6.906-11.35
				c0-5.006,4.687-9.383,10.773-9.383c5.648,0,9.764,3.678,9.764,8.302c0,5.2-5.135,8.878-10.707,12.688l14.393,15.021
				c2.029-3.485,3.162-7.667,3.162-11.982h1.973c0,4.82-1.4,9.516-3.811,13.383l7.925,8.173H86.031z M78.487,250.016L63.59,234.356
				c-5.201,3.548-9.583,7.163-9.583,12.611c0,6.534,6.411,9.706,12.049,9.706C71.257,256.674,75.572,254.073,78.487,250.016z
				 M63.904,231.947c6.086-4.125,10.011-6.973,10.011-11.221c0-3.744-3.296-6.535-7.734-6.535c-4.943,0-8.678,3.363-8.678,7.482
				C57.503,223.893,58.579,226.303,63.904,231.947z"/>
		</g>
		<g>
			<path fill="#767679" d="M118.807,213.239h2.22l6.973,16.612l7.105-16.612h2.219l-7.991,18.579l10.145,23.455l18.136-42.415h2.41
				l-19.47,45.016H138.4l-10.335-23.965l-10.335,23.965h-2.152l-19.403-45.016h2.344l18.193,42.415l10.087-23.455L118.807,213.239z"
				/>
		</g>
		<g>
			<path fill="#767679" d="M195.522,257.874h-2.162V239.49c0-8.62-2.972-13.059-8.678-13.059c-5.839,0-11.611,4.687-13.259,10.84
				v20.603h-2.153v-46.282h2.153v21.555c2.733-5.324,8.058-8.744,13.63-8.744c7.039,0,10.469,5.387,10.469,14.831V257.874z"/>
		</g>
		<g>
			<path fill="#767679" d="M208.515,216.916v-5.324h2.152v5.324H208.515z M208.515,257.874v-32.967h2.152v32.967H208.515z"/>
		</g>
		<g>
			<path fill="#767679" d="M237.805,256.359c-0.314,0.124-2.915,1.839-6.401,1.839c-3.295,0-6.086-2.029-6.086-5.458v-25.928h-4.696
				v-1.905h4.696v-11.349h2.152v11.349h7.801v1.905h-7.801v25.613c0.19,2.467,2.152,3.743,4.314,3.743
				c2.725,0,5.011-1.4,5.201-1.591L237.805,256.359z"/>
		</g>
		<g>
			<path fill="#767679" d="M244.339,241.205c0-9.258,6.905-16.803,15.783-16.803c9.067,0,15.974,7.668,16.04,16.993
				c0,0.19,0,0.886-0.066,0.943h-29.547c0.638,8.115,6.657,14.335,13.954,14.335c4.819,0,9.506-2.725,11.287-6.658l1.963,0.505
				c-1.839,4.63-7.478,7.991-13.374,7.991C251.435,258.512,244.339,250.645,244.339,241.205z M274.01,240.5
				c-0.571-8.301-6.411-14.197-13.821-14.197c-7.42,0-13.192,6.025-13.64,14.197H274.01z"/>
		</g>
		<g>
			<path fill="#767679" d="M-42.196,306.443c0,1.161-0.2,2.229-0.601,3.2c-0.39,0.98-0.952,1.819-1.676,2.533
				c-0.725,0.715-1.601,1.276-2.62,1.667c-1.019,0.4-2.152,0.6-3.4,0.6h-6.21v-15.982h6.21c1.248,0,2.382,0.199,3.4,0.6
				c1.02,0.4,1.896,0.962,2.62,1.667c0.724,0.715,1.286,1.553,1.676,2.534C-42.396,304.232-42.196,305.3-42.196,306.443z
				 M-45.987,306.443c0-0.791-0.105-1.496-0.314-2.135c-0.2-0.638-0.495-1.181-0.876-1.619c-0.39-0.447-0.857-0.781-1.41-1.019
				c-0.562-0.238-1.19-0.362-1.905-0.362h-2.477v10.287h2.477c0.715,0,1.343-0.124,1.905-0.361c0.553-0.238,1.02-0.572,1.41-1.02
				c0.381-0.438,0.676-0.981,0.876-1.619C-46.092,307.957-45.987,307.243-45.987,306.443z"/>
		</g>
		<g>
			<path fill="#767679" d="M-23.127,298.461v2.848h-6.563v3.734h5.029v2.743h-5.029v3.81h6.563v2.848h-10.287v-15.982H-23.127z"/>
		</g>
		<g>
			<path fill="#767679" d="M-11.897,298.479c0.114,0.02,0.209,0.048,0.295,0.086c0.085,0.038,0.171,0.095,0.257,0.171
				c0.076,0.067,0.172,0.172,0.267,0.296l7.602,9.602c-0.038-0.314-0.058-0.61-0.067-0.896c-0.019-0.295-0.029-0.563-0.029-0.819
				v-8.458h3.277v15.982h-1.934c-0.286,0-0.524-0.047-0.724-0.133c-0.19-0.096-0.381-0.248-0.571-0.477l-7.534-9.525
				c0.019,0.277,0.038,0.553,0.047,0.819c0.019,0.267,0.029,0.515,0.029,0.753v8.563h-3.277v-15.982h1.953
				C-12.145,298.461-12.011,298.471-11.897,298.479z"/>
		</g>
		<g>
			<path fill="#767679" d="M20.869,298.461v2.943h-4.505v13.039h-3.706v-13.039H8.163v-2.943H20.869z"/>
		</g>
		<g>
			<path fill="#767679" d="M42.11,314.443h-2.876c-0.324,0-0.581-0.076-0.781-0.219c-0.19-0.152-0.343-0.343-0.448-0.581
				l-0.942-2.781h-6.077l-0.943,2.781c-0.085,0.21-0.229,0.391-0.438,0.553c-0.209,0.171-0.467,0.247-0.771,0.247h-2.896
				l6.191-15.982h3.791L42.11,314.443z M31.842,308.338h4.363l-1.467-4.381c-0.114-0.276-0.229-0.609-0.353-0.981
				c-0.124-0.381-0.248-0.79-0.372-1.229c-0.114,0.447-0.238,0.866-0.362,1.247c-0.114,0.382-0.229,0.705-0.343,0.981
				L31.842,308.338z"/>
		</g>
		<g>
			<path fill="#767679" d="M53.665,311.481h5.924v2.962h-9.63v-15.982h3.706V311.481z"/>
		</g>
		<g>
			<path fill="#767679" d="M87.889,301.709c-0.105,0.171-0.22,0.305-0.343,0.391c-0.124,0.086-0.276,0.133-0.467,0.133
				c-0.172,0-0.353-0.047-0.543-0.162c-0.191-0.104-0.42-0.219-0.658-0.352c-0.247-0.134-0.523-0.248-0.838-0.362
				c-0.314-0.104-0.676-0.152-1.076-0.152c-0.695,0-1.219,0.143-1.553,0.438c-0.343,0.305-0.514,0.704-0.514,1.209
				c0,0.314,0.104,0.581,0.305,0.801c0.209,0.209,0.476,0.391,0.81,0.543c0.333,0.152,0.714,0.295,1.143,0.428
				c0.429,0.124,0.867,0.268,1.314,0.429c0.438,0.153,0.876,0.334,1.306,0.553c0.428,0.21,0.809,0.477,1.143,0.81
				c0.333,0.334,0.6,0.733,0.81,1.2c0.2,0.477,0.305,1.038,0.305,1.705c0,0.743-0.124,1.429-0.381,2.076s-0.629,1.21-1.114,1.687
				c-0.486,0.477-1.086,0.857-1.801,1.124c-0.714,0.276-1.523,0.419-2.429,0.419c-0.505,0-1.01-0.058-1.524-0.152
				c-0.514-0.105-1.01-0.248-1.495-0.438s-0.934-0.409-1.362-0.667c-0.428-0.257-0.79-0.533-1.104-0.857l1.095-1.733
				c0.086-0.124,0.201-0.229,0.344-0.305c0.143-0.085,0.295-0.133,0.467-0.133c0.219,0,0.438,0.076,0.666,0.209
				c0.22,0.144,0.477,0.296,0.753,0.467c0.286,0.162,0.609,0.314,0.972,0.457c0.371,0.144,0.8,0.21,1.295,0.21
				c0.677,0,1.2-0.152,1.572-0.447c0.371-0.296,0.562-0.763,0.562-1.41c0-0.371-0.104-0.676-0.314-0.905
				c-0.2-0.237-0.466-0.429-0.8-0.581c-0.333-0.162-0.715-0.295-1.143-0.409c-0.42-0.114-0.857-0.248-1.306-0.391
				c-0.438-0.143-0.876-0.314-1.305-0.524c-0.419-0.209-0.8-0.485-1.134-0.828c-0.333-0.333-0.6-0.762-0.81-1.267
				c-0.2-0.515-0.305-1.134-0.305-1.886c0-0.601,0.124-1.182,0.362-1.753c0.248-0.571,0.6-1.076,1.066-1.524
				c0.467-0.447,1.039-0.81,1.725-1.076c0.676-0.267,1.457-0.4,2.333-0.4c0.495,0,0.972,0.039,1.429,0.115
				c0.467,0.085,0.915,0.189,1.324,0.342c0.419,0.153,0.81,0.334,1.172,0.543c0.361,0.201,0.686,0.438,0.972,0.705L87.889,301.709z"
				/>
		</g>
		<g>
			<path fill="#767679" d="M109.282,298.461v2.943h-4.496v13.039h-3.705v-13.039h-4.506v-2.943H109.282z"/>
		</g>
		<g>
			<path fill="#767679" d="M124.417,311.52c0.496,0,0.943-0.086,1.334-0.248c0.391-0.171,0.724-0.399,0.99-0.714
				c0.276-0.305,0.477-0.677,0.619-1.124c0.143-0.438,0.219-0.943,0.219-1.505v-9.468h3.706v9.468c0,0.981-0.162,1.876-0.477,2.695
				s-0.771,1.524-1.362,2.124c-0.6,0.591-1.314,1.048-2.162,1.382c-0.848,0.323-1.81,0.495-2.867,0.495
				c-1.066,0-2.028-0.172-2.877-0.495c-0.848-0.334-1.571-0.791-2.162-1.382c-0.59-0.6-1.047-1.305-1.361-2.124
				s-0.467-1.714-0.467-2.695v-9.468h3.705v9.458c0,0.563,0.076,1.067,0.219,1.505c0.144,0.448,0.344,0.819,0.619,1.134
				c0.268,0.314,0.601,0.543,0.991,0.714C123.474,311.434,123.922,311.52,124.417,311.52z"/>
		</g>
		<g>
			<path fill="#767679" d="M155.278,306.443c0,1.161-0.199,2.229-0.6,3.2c-0.4,0.98-0.962,1.819-1.686,2.533
				c-0.725,0.715-1.601,1.276-2.62,1.667c-1.019,0.4-2.152,0.6-3.391,0.6h-6.21v-15.982h6.21c1.238,0,2.372,0.199,3.391,0.6
				c1.02,0.4,1.896,0.962,2.62,1.667c0.724,0.715,1.285,1.553,1.686,2.534C155.079,304.232,155.278,305.3,155.278,306.443z
				 M151.478,306.443c0-0.791-0.104-1.496-0.305-2.135c-0.209-0.638-0.504-1.181-0.885-1.619c-0.382-0.447-0.857-0.781-1.41-1.019
				c-0.553-0.238-1.191-0.362-1.896-0.362h-2.486v10.287h2.486c0.704,0,1.343-0.124,1.896-0.361c0.553-0.238,1.028-0.572,1.41-1.02
				c0.381-0.438,0.676-0.981,0.885-1.619C151.373,307.957,151.478,307.243,151.478,306.443z"/>
		</g>
		<g>
			<path fill="#767679" d="M167.785,314.443h-3.733v-15.982h3.733V314.443z"/>
		</g>
		<g>
			<path fill="#767679" d="M193.15,306.443c0,1.161-0.2,2.238-0.6,3.229c-0.391,1-0.953,1.857-1.677,2.601
				c-0.724,0.733-1.6,1.305-2.619,1.724s-2.152,0.629-3.4,0.629c-1.238,0-2.372-0.21-3.4-0.629c-1.02-0.419-1.896-0.99-2.629-1.724
				c-0.725-0.743-1.286-1.601-1.687-2.601c-0.399-0.99-0.6-2.067-0.6-3.229c0-1.153,0.2-2.229,0.6-3.221
				c0.4-1,0.962-1.856,1.687-2.59c0.733-0.734,1.609-1.306,2.629-1.725c1.028-0.419,2.162-0.629,3.4-0.629
				c1.248,0,2.381,0.21,3.4,0.639c1.02,0.419,1.896,0.99,2.619,1.724s1.286,1.591,1.677,2.591
				C192.95,304.224,193.15,305.3,193.15,306.443z M189.359,306.443c0-0.791-0.104-1.496-0.314-2.135
				c-0.2-0.628-0.495-1.162-0.876-1.6c-0.391-0.438-0.857-0.781-1.41-1.01c-0.562-0.238-1.19-0.353-1.904-0.353
				c-0.715,0-1.353,0.114-1.915,0.353c-0.562,0.229-1.028,0.571-1.409,1.01c-0.391,0.438-0.686,0.972-0.887,1.6
				c-0.209,0.639-0.305,1.344-0.305,2.135c0,0.8,0.096,1.514,0.305,2.152c0.201,0.629,0.496,1.162,0.887,1.6
				c0.381,0.448,0.848,0.781,1.409,1.01c0.563,0.229,1.2,0.344,1.915,0.344c0.714,0,1.343-0.115,1.904-0.344
				c0.553-0.229,1.02-0.562,1.41-1.01c0.381-0.438,0.676-0.971,0.876-1.6C189.255,307.957,189.359,307.243,189.359,306.443z"/>
		</g>
	</g>
	<g>
		<path fill="#767679" d="M46.568,97.473l-4.467-0.009L0.695,3.422L2.934,0h27.585v4.877H6.667l37.681,85.586l22.194-49.731
			L50.111,3.422L52.35,0h33.948l2.229,3.432l-16.65,37.312l21.89,49.719l38.187-85.586h-24.585V0h28.347l2.229,3.432L95.984,97.473
			l-4.467-0.009L69.2,46.754L46.568,97.473z M56.084,4.877l13.145,29.842L82.545,4.877H56.084z"/>
	</g>
</g>
</svg>
