<?xml version="1.0" encoding="utf-8"?>
<!-- Generator: Adobe Illustrator 16.0.0, SVG Export Plug-In . SVG Version: 6.00 Build 0)  -->
<!DOCTYPE svg PUBLIC "-//W3C//DTD SVG 1.1//EN" "http://www.w3.org/Graphics/SVG/1.1/DTD/svg11.dtd">
<svg version="1.1" id="Шар_1" xmlns="http://www.w3.org/2000/svg" xmlns:xlink="http://www.w3.org/1999/xlink" x="0px" y="0px"
	 width="162px" height="153.158px" viewBox="0 0 162 153.158" enable-background="new 0 0 162 153.158" xml:space="preserve">
<g>
	<g>
		<g>
			<path fill="#777679" d="M128.571,88.391H35.023V8.509h93.548V88.391z M36.915,86.5h89.766V10.4H36.915V86.5z"/>
		</g>
		<g>
			<path fill="#777679" d="M41.517,96.901L41.52,0h80.563v96.897L41.517,96.901z M43.411,1.891L43.408,95.01l76.784-0.004V1.891
				H43.411z"/>
		</g>
	</g>
	<g>
		<g>
			<path fill="#777679" d="M8.779,113.846H9.64l2.704,6.441l2.751-6.441h0.861l-3.095,7.203l3.934,9.095l7.028-16.446h0.935
				l-7.545,17.455h-0.838l-4.007-9.292l-4.007,9.292H7.523L0,113.698h0.912l7.054,16.446l3.908-9.095L8.779,113.846z"/>
		</g>
		<g>
			<path fill="#777679" d="M38.521,131.153h-0.834v-7.128c0-3.343-1.156-5.063-3.368-5.063c-2.261,0-4.499,1.816-5.138,4.203v7.988
				h-0.834v-17.946h0.834v8.358c1.057-2.064,3.121-3.391,5.286-3.391c2.729,0,4.055,2.089,4.055,5.751V131.153z"/>
		</g>
		<g>
			<path fill="#777679" d="M43.563,115.271v-2.064h0.835v2.064H43.563z M43.563,131.153V118.37h0.835v12.783H43.563z"/>
		</g>
		<g>
			<path fill="#777679" d="M54.919,130.565c-0.122,0.049-1.13,0.714-2.482,0.714c-1.281,0-2.36-0.787-2.36-2.117v-10.053h-1.821
				v-0.739h1.821v-4.4h0.834v4.4h3.025v0.739h-3.025v9.932c0.074,0.956,0.835,1.451,1.67,1.451c1.06,0,1.942-0.543,2.016-0.617
				L54.919,130.565z"/>
		</g>
		<g>
			<path fill="#777679" d="M57.449,124.689c0-3.589,2.682-6.515,6.124-6.515c3.516,0,6.193,2.973,6.219,6.589
				c0,0.074,0,0.344-0.026,0.366H58.31c0.248,3.146,2.582,5.558,5.411,5.558c1.865,0,3.686-1.056,4.373-2.581l0.765,0.195
				c-0.713,1.795-2.903,3.099-5.189,3.099C60.205,131.4,57.449,128.349,57.449,124.689z M68.954,124.416
				c-0.222-3.218-2.482-5.505-5.359-5.505c-2.874,0-5.112,2.337-5.285,5.505H68.954z"/>
		</g>
		<g>
			<path fill="#777679" d="M88.277,131.153l-2.434-2.53c-1.278,1.669-3.146,2.777-5.411,2.777c-2.777,0-5.407-1.647-5.407-4.524
				c0-2.407,1.869-3.885,4.056-5.358c-1.991-2.091-2.678-3.195-2.678-4.4c0-1.941,1.817-3.639,4.178-3.639
				c2.189,0,3.785,1.426,3.785,3.219c0,2.017-1.99,3.442-4.151,4.92l5.581,5.824c0.787-1.352,1.226-2.973,1.226-4.646h0.766
				c0,1.869-0.544,3.689-1.478,5.189l3.072,3.169H88.277z M85.353,128.106l-5.776-6.072c-2.017,1.376-3.715,2.777-3.715,4.891
				c0,2.533,2.485,3.763,4.672,3.763C82.549,130.687,84.223,129.679,85.353,128.106z M79.698,121.1
				c2.359-1.6,3.882-2.704,3.882-4.352c0-1.451-1.278-2.533-2.999-2.533c-1.917,0-3.365,1.304-3.365,2.901
				C77.216,117.977,77.633,118.911,79.698,121.1z"/>
		</g>
		<g>
			<path fill="#777679" d="M100.986,113.846h0.86l2.704,6.441l2.755-6.441h0.86l-3.099,7.203l3.934,9.095l7.032-16.446h0.935
				l-7.55,17.455h-0.834l-4.008-9.292l-4.007,9.292h-0.835l-7.523-17.455h0.909l7.054,16.446l3.911-9.095L100.986,113.846z"/>
		</g>
		<g>
			<path fill="#777679" d="M130.732,131.153h-0.839v-7.128c0-3.343-1.151-5.063-3.364-5.063c-2.264,0-4.502,1.816-5.141,4.203v7.988
				h-0.835v-17.946h0.835v8.358c1.06-2.064,3.124-3.391,5.284-3.391c2.729,0,4.06,2.089,4.06,5.751V131.153z"/>
		</g>
		<g>
			<path fill="#777679" d="M135.771,115.271v-2.064h0.834v2.064H135.771z M135.771,131.153V118.37h0.834v12.783H135.771z"/>
		</g>
		<g>
			<path fill="#777679" d="M147.127,130.565c-0.122,0.049-1.13,0.714-2.481,0.714c-1.278,0-2.36-0.787-2.36-2.117v-10.053h-1.821
				v-0.739h1.821v-4.4h0.835v4.4h3.024v0.739h-3.024v9.932c0.073,0.956,0.834,1.451,1.673,1.451c1.056,0,1.942-0.543,2.017-0.617
				L147.127,130.565z"/>
		</g>
		<g>
			<path fill="#777679" d="M149.661,124.689c0-3.589,2.677-6.515,6.119-6.515c3.516,0,6.194,2.973,6.22,6.589
				c0,0.074,0,0.344-0.025,0.366h-11.457c0.247,3.146,2.581,5.558,5.411,5.558c1.868,0,3.686-1.056,4.376-2.581l0.761,0.195
				c-0.713,1.795-2.898,3.099-5.186,3.099C152.412,131.4,149.661,128.349,149.661,124.689z M161.165,124.416
				c-0.221-3.218-2.485-5.505-5.358-5.505c-2.877,0-5.115,2.337-5.289,5.505H161.165z"/>
		</g>
		<g>
			<path fill="#777679" d="M38.558,149.985c0,0.45-0.078,0.864-0.233,1.241c-0.151,0.38-0.369,0.705-0.649,0.982
				c-0.281,0.277-0.621,0.495-1.016,0.646c-0.395,0.155-0.834,0.232-1.318,0.232h-2.408v-6.197h2.408
				c0.484,0,0.923,0.077,1.318,0.232c0.396,0.155,0.735,0.373,1.016,0.646c0.28,0.277,0.498,0.602,0.649,0.982
				C38.48,149.127,38.558,149.542,38.558,149.985z M37.088,149.985c0-0.307-0.041-0.58-0.122-0.827
				c-0.078-0.247-0.192-0.458-0.34-0.628c-0.151-0.174-0.332-0.303-0.546-0.396c-0.218-0.092-0.462-0.14-0.739-0.14h-0.96v3.988
				h0.96c0.277,0,0.521-0.048,0.739-0.14c0.214-0.093,0.395-0.223,0.546-0.396c0.148-0.17,0.262-0.381,0.34-0.628
				C37.048,150.572,37.088,150.295,37.088,149.985z"/>
		</g>
		<g>
			<path fill="#777679" d="M45.952,146.89v1.104h-2.544v1.447h1.95v1.063h-1.95v1.478h2.544v1.104h-3.989v-6.197H45.952z"/>
		</g>
		<g>
			<path fill="#777679" d="M50.307,146.897c0.044,0.008,0.081,0.019,0.115,0.033c0.033,0.016,0.066,0.037,0.099,0.066
				c0.03,0.026,0.067,0.066,0.104,0.115l2.948,3.723c-0.015-0.122-0.022-0.236-0.026-0.348c-0.008-0.114-0.011-0.218-0.011-0.317
				v-3.279h1.271v6.197h-0.75c-0.111,0-0.203-0.019-0.281-0.052c-0.074-0.037-0.147-0.096-0.221-0.185l-2.921-3.693
				c0.007,0.107,0.015,0.214,0.018,0.317c0.007,0.104,0.011,0.199,0.011,0.292v3.32h-1.271v-6.197h0.757
				C50.21,146.89,50.262,146.894,50.307,146.897z"/>
		</g>
		<g>
			<path fill="#777679" d="M63.012,146.89v1.142h-1.747v5.056h-1.437v-5.056h-1.743v-1.142H63.012z"/>
		</g>
		<g>
			<path fill="#777679" d="M71.248,153.087h-1.115c-0.125,0-0.225-0.03-0.303-0.085c-0.074-0.06-0.133-0.133-0.174-0.226
				l-0.365-1.078h-2.356l-0.366,1.078c-0.033,0.082-0.089,0.151-0.17,0.215c-0.081,0.065-0.181,0.096-0.299,0.096h-1.123l2.4-6.197
				h1.47L71.248,153.087z M67.266,150.72h1.692l-0.569-1.699c-0.044-0.107-0.088-0.236-0.137-0.381
				c-0.048-0.147-0.096-0.306-0.144-0.476c-0.044,0.173-0.092,0.336-0.14,0.483c-0.044,0.147-0.089,0.273-0.133,0.38L67.266,150.72z
				"/>
		</g>
		<g>
			<path fill="#777679" d="M75.728,151.939h2.297v1.148h-3.734v-6.197h1.437V151.939z"/>
		</g>
		<g>
			<path fill="#777679" d="M88.998,148.15c-0.041,0.065-0.085,0.118-0.133,0.151s-0.107,0.051-0.181,0.051
				c-0.067,0-0.137-0.018-0.211-0.063c-0.074-0.041-0.163-0.085-0.255-0.137c-0.097-0.052-0.203-0.096-0.325-0.14
				c-0.122-0.041-0.262-0.06-0.417-0.06c-0.271,0-0.473,0.056-0.603,0.17c-0.133,0.118-0.199,0.273-0.199,0.469
				c0,0.122,0.041,0.226,0.118,0.311c0.081,0.081,0.185,0.151,0.314,0.211c0.129,0.059,0.276,0.114,0.442,0.166
				c0.166,0.048,0.336,0.104,0.51,0.166c0.17,0.06,0.34,0.129,0.506,0.214c0.166,0.082,0.314,0.185,0.443,0.314
				c0.129,0.129,0.232,0.284,0.314,0.465c0.077,0.185,0.118,0.402,0.118,0.661c0,0.288-0.049,0.555-0.148,0.806
				s-0.243,0.469-0.432,0.653s-0.421,0.333-0.698,0.436c-0.277,0.107-0.591,0.163-0.941,0.163c-0.196,0-0.392-0.022-0.592-0.06
				c-0.199-0.041-0.392-0.096-0.579-0.17c-0.188-0.073-0.362-0.158-0.528-0.259c-0.166-0.1-0.307-0.206-0.429-0.332l0.425-0.672
				c0.033-0.048,0.078-0.089,0.133-0.118c0.056-0.033,0.115-0.052,0.182-0.052c0.085,0,0.17,0.029,0.258,0.081
				c0.085,0.056,0.185,0.115,0.292,0.181c0.111,0.063,0.236,0.122,0.377,0.178c0.144,0.056,0.311,0.081,0.502,0.081
				c0.263,0,0.466-0.059,0.609-0.173c0.145-0.115,0.218-0.296,0.218-0.547c0-0.145-0.04-0.263-0.121-0.352
				c-0.078-0.092-0.181-0.166-0.311-0.225c-0.129-0.063-0.277-0.115-0.443-0.159c-0.162-0.044-0.332-0.096-0.506-0.151
				c-0.17-0.056-0.34-0.122-0.506-0.203c-0.162-0.081-0.311-0.188-0.439-0.321c-0.13-0.129-0.232-0.295-0.314-0.491
				c-0.077-0.199-0.118-0.439-0.118-0.731c0-0.232,0.048-0.458,0.141-0.68c0.097-0.222,0.232-0.417,0.413-0.591
				c0.182-0.174,0.403-0.313,0.669-0.417c0.263-0.104,0.565-0.155,0.905-0.155c0.191,0,0.376,0.015,0.554,0.045
				c0.181,0.032,0.354,0.073,0.514,0.132c0.162,0.06,0.313,0.13,0.454,0.211c0.14,0.078,0.266,0.17,0.377,0.273L88.998,148.15z"/>
		</g>
		<g>
			<path fill="#777679" d="M97.293,146.89v1.142H95.55v5.056h-1.437v-5.056h-1.747v-1.142H97.293z"/>
		</g>
		<g>
			<path fill="#777679" d="M103.161,151.954c0.193,0,0.366-0.033,0.518-0.097c0.151-0.066,0.281-0.154,0.384-0.276
				c0.107-0.118,0.186-0.263,0.24-0.436c0.056-0.17,0.085-0.366,0.085-0.584v-3.671h1.438v3.671c0,0.381-0.063,0.728-0.186,1.045
				c-0.122,0.318-0.299,0.592-0.528,0.824c-0.232,0.229-0.509,0.406-0.838,0.535c-0.329,0.126-0.702,0.192-1.112,0.192
				c-0.413,0-0.786-0.066-1.115-0.192c-0.328-0.129-0.609-0.307-0.838-0.535c-0.229-0.232-0.406-0.506-0.528-0.824
				c-0.122-0.317-0.181-0.664-0.181-1.045v-3.671h1.437v3.667c0,0.219,0.029,0.414,0.085,0.584c0.056,0.174,0.133,0.317,0.24,0.439
				c0.104,0.122,0.232,0.21,0.384,0.276C102.796,151.92,102.97,151.954,103.161,151.954z"/>
		</g>
		<g>
			<path fill="#777679" d="M115.128,149.985c0,0.45-0.077,0.864-0.232,1.241c-0.155,0.38-0.373,0.705-0.653,0.982
				c-0.281,0.277-0.621,0.495-1.017,0.646c-0.395,0.155-0.834,0.232-1.314,0.232h-2.408v-6.197h2.408c0.48,0,0.92,0.077,1.314,0.232
				c0.396,0.155,0.735,0.373,1.017,0.646c0.28,0.277,0.498,0.602,0.653,0.982C115.051,149.127,115.128,149.542,115.128,149.985z
				 M113.654,149.985c0-0.307-0.041-0.58-0.118-0.827c-0.081-0.247-0.195-0.458-0.343-0.628c-0.148-0.174-0.333-0.303-0.547-0.396
				c-0.215-0.092-0.462-0.14-0.735-0.14h-0.964v3.988h0.964c0.273,0,0.521-0.048,0.735-0.14c0.214-0.093,0.398-0.223,0.547-0.396
				c0.147-0.17,0.262-0.381,0.343-0.628C113.613,150.572,113.654,150.295,113.654,149.985z"/>
		</g>
		<g>
			<path fill="#777679" d="M119.978,153.087h-1.447v-6.197h1.447V153.087z"/>
		</g>
		<g>
			<path fill="#777679" d="M129.813,149.985c0,0.45-0.077,0.868-0.232,1.252c-0.151,0.388-0.369,0.721-0.65,1.009
				c-0.28,0.284-0.62,0.506-1.016,0.668c-0.395,0.162-0.834,0.244-1.318,0.244c-0.479,0-0.92-0.082-1.318-0.244
				c-0.396-0.162-0.735-0.384-1.02-0.668c-0.28-0.288-0.498-0.621-0.653-1.009c-0.155-0.384-0.232-0.802-0.232-1.252
				c0-0.447,0.077-0.864,0.232-1.248c0.155-0.389,0.373-0.721,0.653-1.005c0.284-0.284,0.624-0.506,1.02-0.669
				c0.398-0.162,0.839-0.243,1.318-0.243c0.484,0,0.924,0.081,1.318,0.247c0.396,0.163,0.735,0.385,1.016,0.669
				c0.281,0.284,0.499,0.616,0.65,1.004C129.735,149.125,129.813,149.542,129.813,149.985z M128.343,149.985
				c0-0.307-0.041-0.58-0.122-0.827c-0.077-0.244-0.192-0.451-0.34-0.62c-0.151-0.17-0.332-0.304-0.547-0.392
				c-0.218-0.093-0.461-0.137-0.738-0.137s-0.524,0.044-0.742,0.137c-0.218,0.088-0.398,0.222-0.547,0.392
				c-0.151,0.169-0.266,0.376-0.344,0.62c-0.081,0.247-0.118,0.521-0.118,0.827c0,0.311,0.037,0.587,0.118,0.835
				c0.078,0.244,0.192,0.45,0.344,0.62c0.148,0.174,0.329,0.303,0.547,0.392s0.465,0.133,0.742,0.133s0.521-0.044,0.738-0.133
				c0.215-0.089,0.396-0.218,0.547-0.392c0.147-0.17,0.263-0.376,0.34-0.62C128.302,150.572,128.343,150.295,128.343,149.985z"/>
		</g>
	</g>
	<g>
		<path fill="#777679" d="M72.976,68.958l-1.732-0.003L55.189,32.49l0.868-1.327h10.696v1.891h-9.248L72.116,66.24l8.605-19.283
			L74.35,32.49l0.868-1.327h13.163l0.864,1.331l-6.456,14.467l8.487,19.278l14.807-33.186h-9.532v-1.891h10.991l0.864,1.331
			l-16.27,36.464l-1.731-0.003l-8.653-19.663L72.976,68.958z M76.666,33.054l5.097,11.571l5.163-11.571H76.666z"/>
	</g>
</g>
</svg>
