<?xml version="1.0" encoding="utf-8"?>
<!-- Generator: Adobe Illustrator 16.0.0, SVG Export Plug-In . SVG Version: 6.00 Build 0)  -->
<!DOCTYPE svg PUBLIC "-//W3C//DTD SVG 1.1//EN" "http://www.w3.org/Graphics/SVG/1.1/DTD/svg11.dtd">
<svg version="1.1" id="Режим_ізоляції"
	 xmlns="http://www.w3.org/2000/svg" xmlns:xlink="http://www.w3.org/1999/xlink" x="0px" y="0px" width="418px" height="103.082px"
	 viewBox="0 0 418 103.082" enable-background="new 0 0 418 103.082" xml:space="preserve">
<g>
	<g>
		<path fill="#707077" d="M22.651,1.648h2.221l6.976,16.62l7.099-16.62h2.221l-7.986,18.588l10.149,23.466L61.466,1.267h2.411
			L44.408,46.304h-2.163l-10.34-23.976L21.565,46.304h-2.154L0,1.267h2.354l18.202,42.436l10.083-23.466L22.651,1.648z"/>
	</g>
	<g>
		<path fill="#707077" d="M99.394,46.304h-2.153V27.911c0-8.624-2.983-13.064-8.691-13.064c-5.832,0-11.607,4.688-13.256,10.845
			v20.612H73.14V0h2.153v21.564c2.726-5.326,8.053-8.748,13.638-8.748c7.042,0,10.463,5.39,10.463,14.838V46.304z"/>
	</g>
	<g>
		<path fill="#707077" d="M112.402,5.326V0h2.154v5.326H112.402z M112.402,46.304V13.321h2.154v32.982H112.402z"/>
	</g>
	<g>
		<path fill="#707077" d="M141.706,44.789c-0.314,0.124-2.917,1.84-6.404,1.84c-3.306,0-6.089-2.03-6.089-5.461v-25.94h-4.698
			v-1.906h4.698V1.968h2.153v11.354h7.805v1.906h-7.805v25.626c0.19,2.468,2.154,3.745,4.308,3.745c2.735,0,5.012-1.401,5.203-1.592
			L141.706,44.789z"/>
	</g>
	<g>
		<path fill="#707077" d="M148.234,29.627c0-9.262,6.918-16.811,15.8-16.811c9.072,0,15.981,7.672,16.048,17.001
			c0,0.191,0,0.887-0.066,0.944h-29.561c0.638,8.119,6.661,14.342,13.96,14.342c4.813,0,9.511-2.726,11.283-6.661l1.973,0.505
			c-1.839,4.632-7.49,7.995-13.389,7.995C155.343,46.942,148.234,39.071,148.234,29.627z M177.919,28.922
			c-0.572-8.305-6.404-14.204-13.828-14.204c-7.414,0-13.189,6.028-13.637,14.204H177.919z"/>
	</g>
	<g>
		<path fill="#707077" d="M227.778,46.304l-6.28-6.527c-3.298,4.307-8.119,7.166-13.961,7.166c-7.166,0-13.952-4.25-13.952-11.674
			c0-6.213,4.822-10.025,10.464-13.827c-5.137-5.394-6.91-8.244-6.91-11.354c0-5.009,4.689-9.388,10.779-9.388
			c5.651,0,9.768,3.68,9.768,8.306c0,5.203-5.137,8.883-10.712,12.693l14.399,15.028c2.03-3.487,3.164-7.671,3.164-11.988h1.973
			c0,4.822-1.4,9.521-3.812,13.389l7.929,8.177H227.778z M220.23,38.442l-14.904-15.667c-5.204,3.55-9.587,7.166-9.587,12.617
			c0,6.537,6.414,9.711,12.055,9.711C212.997,45.104,217.314,42.502,220.23,38.442z M205.641,20.365
			c6.088-4.127,10.015-6.977,10.015-11.227c0-3.745-3.297-6.538-7.738-6.538c-4.946,0-8.682,3.365-8.682,7.486
			C199.236,12.307,200.313,14.718,205.641,20.365z"/>
	</g>
	<g>
		<path fill="#707077" d="M260.569,1.648h2.221l6.977,16.62l7.108-16.62h2.22L271.1,20.236l10.149,23.466l18.145-42.436h2.411
			l-19.479,45.037h-2.153l-10.34-23.976l-10.34,23.976h-2.153L237.927,1.267h2.345l18.202,42.436l10.092-23.466L260.569,1.648z"/>
	</g>
	<g>
		<path fill="#707077" d="M337.322,46.304h-2.163V27.911c0-8.624-2.974-13.064-8.683-13.064c-5.842,0-11.616,4.688-13.265,10.845
			v20.612h-2.154V0h2.154v21.564c2.734-5.326,8.062-8.748,13.637-8.748c7.042,0,10.474,5.39,10.474,14.838V46.304z"/>
	</g>
	<g>
		<path fill="#707077" d="M350.32,5.326V0h2.153v5.326H350.32z M350.32,46.304V13.321h2.153v32.982H350.32z"/>
	</g>
	<g>
		<path fill="#707077" d="M379.624,44.789c-0.314,0.124-2.916,1.84-6.404,1.84c-3.297,0-6.089-2.03-6.089-5.461v-25.94h-4.698
			v-1.906h4.698V1.968h2.153v11.354h7.805v1.906h-7.805v25.626c0.19,2.468,2.153,3.745,4.316,3.745c2.727,0,5.014-1.401,5.204-1.592
			L379.624,44.789z"/>
	</g>
	<g>
		<path fill="#707077" d="M386.161,29.627c0-9.262,6.909-16.811,15.791-16.811c9.072,0,15.981,7.672,16.048,17.001
			c0,0.191,0,0.887-0.066,0.944h-29.562c0.639,8.119,6.661,14.342,13.961,14.342c4.822,0,9.511-2.726,11.293-6.661l1.964,0.505
			c-1.84,4.632-7.481,7.995-13.381,7.995C393.261,46.942,386.161,39.071,386.161,29.627z M415.847,28.922
			c-0.571-8.305-6.414-14.204-13.828-14.204c-7.423,0-13.198,6.028-13.646,14.204H415.847z"/>
	</g>
	<g>
		<path fill="#707077" d="M99.49,94.896c0,1.162-0.2,2.229-0.601,3.202c-0.39,0.98-0.952,1.82-1.676,2.534
			c-0.725,0.715-1.602,1.277-2.622,1.668c-1.019,0.4-2.153,0.6-3.402,0.6h-6.213V86.91h6.213c1.249,0,2.383,0.199,3.402,0.601
			c1.02,0.4,1.896,0.962,2.622,1.667c0.724,0.716,1.286,1.554,1.676,2.536C99.29,92.685,99.49,93.753,99.49,94.896z M95.697,94.896
			c0-0.791-0.105-1.497-0.314-2.136c-0.2-0.638-0.495-1.181-0.877-1.62c-0.39-0.447-0.857-0.781-1.41-1.019
			c-0.563-0.238-1.191-0.362-1.906-0.362h-2.478v10.292h2.478c0.715,0,1.344-0.124,1.906-0.361c0.553-0.239,1.02-0.573,1.41-1.021
			c0.382-0.438,0.677-0.981,0.877-1.62C95.592,96.411,95.697,95.697,95.697,94.896z"/>
	</g>
	<g>
		<path fill="#707077" d="M118.568,86.91v2.85h-6.566v3.735h5.032v2.745h-5.032v3.812h6.566v2.849h-10.292V86.91H118.568z"/>
	</g>
	<g>
		<path fill="#707077" d="M129.804,86.929c0.114,0.02,0.209,0.048,0.295,0.086c0.085,0.038,0.171,0.095,0.257,0.171
			c0.076,0.067,0.172,0.173,0.267,0.297l7.605,9.605c-0.038-0.314-0.058-0.61-0.067-0.896c-0.019-0.295-0.029-0.563-0.029-0.82
			V86.91h3.278v15.99h-1.935c-0.286,0-0.524-0.047-0.725-0.133c-0.19-0.096-0.381-0.248-0.571-0.477l-7.538-9.53
			c0.019,0.277,0.038,0.553,0.047,0.82c0.02,0.267,0.029,0.515,0.029,0.753v8.566h-3.279V86.91h1.954
			C129.556,86.91,129.689,86.92,129.804,86.929z"/>
	</g>
	<g>
		<path fill="#707077" d="M162.585,86.91v2.945h-4.507V102.9h-3.707V89.855h-4.498V86.91H162.585z"/>
	</g>
	<g>
		<path fill="#707077" d="M183.836,102.9h-2.877c-0.324,0-0.582-0.076-0.781-0.219c-0.19-0.152-0.344-0.343-0.449-0.581
			l-0.943-2.783h-6.08l-0.943,2.783c-0.086,0.21-0.229,0.391-0.438,0.553c-0.209,0.171-0.467,0.247-0.772,0.247h-2.897l6.194-15.99
			h3.792L183.836,102.9z M173.563,96.792h4.365l-1.468-4.383c-0.114-0.276-0.229-0.609-0.353-0.982
			c-0.124-0.381-0.248-0.79-0.372-1.229c-0.114,0.447-0.238,0.866-0.362,1.248c-0.114,0.382-0.229,0.705-0.343,0.981L173.563,96.792
			z"/>
	</g>
	<g>
		<path fill="#707077" d="M195.396,99.938h5.927v2.963h-9.634V86.91h3.708V99.938z"/>
	</g>
	<g>
		<path fill="#707077" d="M229.637,90.16c-0.105,0.171-0.22,0.305-0.343,0.391c-0.124,0.086-0.276,0.133-0.467,0.133
			c-0.172,0-0.354-0.047-0.544-0.162c-0.191-0.104-0.42-0.219-0.658-0.352c-0.247-0.134-0.523-0.248-0.838-0.362
			c-0.315-0.104-0.677-0.152-1.077-0.152c-0.695,0-1.219,0.143-1.554,0.438c-0.343,0.305-0.514,0.704-0.514,1.209
			c0,0.315,0.104,0.582,0.305,0.802c0.209,0.209,0.476,0.391,0.811,0.543c0.333,0.152,0.714,0.295,1.143,0.428
			c0.429,0.124,0.868,0.268,1.315,0.43c0.438,0.153,0.876,0.334,1.307,0.553c0.428,0.21,0.809,0.477,1.143,0.81
			c0.333,0.334,0.6,0.733,0.81,1.201c0.201,0.477,0.306,1.038,0.306,1.706c0,0.743-0.124,1.429-0.382,2.077
			c-0.257,0.647-0.629,1.21-1.114,1.687c-0.486,0.478-1.087,0.858-1.802,1.125c-0.714,0.276-1.524,0.419-2.43,0.419
			c-0.505,0-1.011-0.058-1.525-0.152c-0.514-0.105-1.01-0.248-1.496-0.438c-0.485-0.19-0.934-0.409-1.362-0.667
			s-0.791-0.534-1.105-0.858l1.096-1.734c0.086-0.124,0.201-0.229,0.344-0.305c0.143-0.085,0.295-0.133,0.467-0.133
			c0.219,0,0.438,0.076,0.666,0.209c0.221,0.144,0.478,0.296,0.754,0.467c0.286,0.162,0.609,0.315,0.972,0.458
			c0.371,0.144,0.801,0.21,1.296,0.21c0.677,0,1.2-0.152,1.573-0.447c0.371-0.297,0.562-0.764,0.562-1.411
			c0-0.371-0.104-0.677-0.314-0.906c-0.2-0.237-0.467-0.429-0.801-0.581c-0.333-0.162-0.715-0.295-1.143-0.409
			c-0.42-0.114-0.858-0.248-1.307-0.391c-0.438-0.143-0.876-0.314-1.305-0.525c-0.42-0.209-0.801-0.485-1.135-0.828
			c-0.333-0.333-0.6-0.762-0.81-1.268c-0.2-0.515-0.306-1.134-0.306-1.886c0-0.602,0.125-1.183,0.363-1.754
			c0.248-0.572,0.6-1.077,1.066-1.525c0.467-0.447,1.04-0.811,1.726-1.077c0.676-0.267,1.458-0.4,2.334-0.4
			c0.495,0,0.973,0.039,1.43,0.115c0.467,0.085,0.915,0.189,1.324,0.342c0.42,0.153,0.811,0.335,1.173,0.544
			c0.361,0.201,0.686,0.438,0.973,0.705L229.637,90.16z"/>
	</g>
	<g>
		<path fill="#707077" d="M251.04,86.91v2.945h-4.498V102.9h-3.707V89.855h-4.508V86.91H251.04z"/>
	</g>
	<g>
		<path fill="#707077" d="M266.183,99.976c0.496,0,0.943-0.086,1.335-0.248c0.391-0.172,0.724-0.4,0.99-0.715
			c0.276-0.305,0.477-0.677,0.619-1.124c0.143-0.438,0.219-0.944,0.219-1.506V86.91h3.708v9.473c0,0.981-0.162,1.877-0.477,2.696
			c-0.314,0.82-0.771,1.525-1.363,2.125c-0.6,0.592-1.314,1.049-2.163,1.383c-0.848,0.323-1.811,0.495-2.868,0.495
			c-1.067,0-2.029-0.172-2.879-0.495c-0.848-0.334-1.571-0.791-2.163-1.383c-0.59-0.6-1.047-1.305-1.361-2.125
			c-0.314-0.819-0.467-1.715-0.467-2.696V86.91h3.706v9.463c0,0.563,0.076,1.067,0.219,1.506c0.145,0.448,0.345,0.819,0.62,1.134
			c0.268,0.314,0.601,0.543,0.991,0.715C265.238,99.89,265.688,99.976,266.183,99.976z"/>
	</g>
	<g>
		<path fill="#707077" d="M297.059,94.896c0,1.162-0.199,2.229-0.6,3.202c-0.401,0.98-0.963,1.82-1.687,2.534
			c-0.725,0.715-1.602,1.277-2.621,1.668c-1.02,0.4-2.154,0.6-3.393,0.6h-6.213V86.91h6.213c1.238,0,2.373,0.199,3.393,0.601
			c1.02,0.4,1.896,0.962,2.621,1.667c0.724,0.716,1.285,1.554,1.687,2.536C296.859,92.685,297.059,93.753,297.059,94.896z
			 M293.256,94.896c0-0.791-0.104-1.497-0.305-2.136c-0.209-0.638-0.504-1.181-0.886-1.62c-0.382-0.447-0.857-0.781-1.41-1.019
			c-0.553-0.238-1.192-0.362-1.896-0.362h-2.487v10.292h2.487c0.704,0,1.344-0.124,1.896-0.361c0.553-0.239,1.028-0.573,1.41-1.021
			c0.382-0.438,0.677-0.981,0.886-1.62C293.151,96.411,293.256,95.697,293.256,94.896z"/>
	</g>
	<g>
		<path fill="#707077" d="M309.571,102.9h-3.735V86.91h3.735V102.9z"/>
	</g>
	<g>
		<path fill="#707077" d="M334.948,94.896c0,1.162-0.2,2.239-0.6,3.23c-0.391,1-0.953,1.858-1.678,2.602
			c-0.724,0.733-1.6,1.306-2.62,1.725c-1.02,0.419-2.153,0.629-3.402,0.629c-1.238,0-2.373-0.21-3.401-0.629
			c-1.021-0.419-1.896-0.991-2.631-1.725c-0.725-0.743-1.286-1.602-1.687-2.602c-0.4-0.991-0.601-2.068-0.601-3.23
			c0-1.153,0.2-2.23,0.601-3.222c0.4-1.001,0.962-1.857,1.687-2.592c0.734-0.734,1.61-1.306,2.631-1.725
			c1.028-0.42,2.163-0.63,3.401-0.63c1.249,0,2.383,0.21,3.402,0.64c1.021,0.419,1.896,0.99,2.62,1.724
			c0.725,0.734,1.287,1.592,1.678,2.593C334.748,92.676,334.948,93.753,334.948,94.896z M331.156,94.896
			c0-0.791-0.104-1.497-0.315-2.136c-0.2-0.628-0.495-1.162-0.876-1.601c-0.391-0.438-0.857-0.781-1.411-1.01
			c-0.562-0.238-1.19-0.353-1.905-0.353s-1.353,0.114-1.916,0.353c-0.562,0.229-1.028,0.571-1.409,1.01
			c-0.391,0.438-0.687,0.973-0.888,1.601c-0.209,0.639-0.305,1.345-0.305,2.136c0,0.801,0.096,1.515,0.305,2.153
			c0.201,0.629,0.497,1.163,0.888,1.601c0.381,0.448,0.848,0.781,1.409,1.011c0.563,0.229,1.201,0.344,1.916,0.344
			s1.344-0.115,1.905-0.344c0.554-0.229,1.021-0.563,1.411-1.011c0.381-0.438,0.676-0.972,0.876-1.601
			C331.052,96.411,331.156,95.697,331.156,94.896z"/>
	</g>
</g>
</svg>
