<?xml version="1.0" encoding="utf-8"?>
<!-- Generator: Adobe Illustrator 16.0.0, SVG Export Plug-In . SVG Version: 6.00 Build 0)  -->
<!DOCTYPE svg PUBLIC "-//W3C//DTD SVG 1.1//EN" "http://www.w3.org/Graphics/SVG/1.1/DTD/svg11.dtd">
<svg version="1.1" id="Шар_1" xmlns="http://www.w3.org/2000/svg" xmlns:xlink="http://www.w3.org/1999/xlink" x="0px" y="0px"
	 width="80px" height="82.867px" viewBox="0 0 80 82.867" enable-background="new 0 0 80 82.867" xml:space="preserve">
<g>
	<g>
		<g>
			<path fill="#767679" d="M80,75.59H0V7.277h80V75.59z M1.617,73.973h76.766V8.894H1.617V73.973z"/>
		</g>
		<g>
			<path fill="#767679" d="M5.552,82.867L5.555,0H74.45v82.864L5.552,82.867z M7.172,1.617L7.169,81.25l65.664-0.003V1.617H7.172z"
				/>
		</g>
	</g>
	<g>
		<path fill="#767679" d="M32.456,58.971l-1.481-0.003l-13.73-31.183l0.742-1.135h9.147v1.617h-7.909L31.72,56.646l7.359-16.49
			l-5.448-12.372l0.742-1.135H45.63l0.739,1.138L40.848,40.16l7.258,16.486l12.663-28.379h-8.152V26.65h9.399l0.739,1.138
			L48.842,58.971l-1.481-0.003l-7.4-16.815L32.456,58.971z M35.611,28.267l4.358,9.896l4.416-9.896H35.611z"/>
	</g>
</g>
</svg>
