<?xml version="1.0" encoding="utf-8"?>
<!-- Generator: Adobe Illustrator 16.0.0, SVG Export Plug-In . SVG Version: 6.00 Build 0)  -->
<!DOCTYPE svg PUBLIC "-//W3C//DTD SVG 1.1//EN" "http://www.w3.org/Graphics/SVG/1.1/DTD/svg11.dtd">
<svg version="1.1" id="Capa_1" xmlns="http://www.w3.org/2000/svg" xmlns:xlink="http://www.w3.org/1999/xlink" x="0px" y="0px"
	 width="22px" height="22.849px" viewBox="286.638 409.521 22 22.849" enable-background="new 286.638 409.521 22 22.849"
	 xml:space="preserve">
<path d="M308.518,431.639l-6.409-6.666c1.635-1.64,2.647-3.9,2.647-6.393c0-4.996-4.063-9.059-9.059-9.059
	c-4.996,0-9.059,4.063-9.059,9.059c0,4.995,4.063,9.059,9.059,9.059c2.192,0,4.205-0.784,5.773-2.085l6.425,6.683
	c0.085,0.089,0.198,0.133,0.312,0.133c0.107,0,0.215-0.04,0.299-0.121C308.678,432.083,308.683,431.811,308.518,431.639z
	 M295.698,426.776c-4.52,0-8.196-3.677-8.196-8.196c0-4.52,3.677-8.196,8.196-8.196s8.196,3.677,8.196,8.196
	C303.894,423.099,300.216,426.776,295.698,426.776z"/>
</svg>
