<?xml version="1.0" encoding="utf-8"?>
<!-- Generator: Adobe Illustrator 16.0.0, SVG Export Plug-In . SVG Version: 6.00 Build 0)  -->
<!DOCTYPE svg PUBLIC "-//W3C//DTD SVG 1.1//EN" "http://www.w3.org/Graphics/SVG/1.1/DTD/svg11.dtd">
<svg version="1.1" id="Capa_1" xmlns="http://www.w3.org/2000/svg" xmlns:xlink="http://www.w3.org/1999/xlink" x="0px" y="0px"
	 width="26px" height="16.68px" viewBox="0 0 26 16.68" enable-background="new 0 0 26 16.68" xml:space="preserve">
<g>
	<g>
		<path d="M0.98,1.963h24.037c0.543,0,0.982-0.44,0.982-0.981s-0.439-0.98-0.982-0.98H0.98C0.438,0.001,0,0.439,0,0.981
			S0.438,1.963,0.98,1.963z"/>
		<path d="M0.98,9.32h24.037C25.561,9.32,26,8.882,26,8.34s-0.439-0.981-0.982-0.981H0.98C0.438,7.358,0,7.798,0,8.34
			S0.438,9.32,0.98,9.32z"/>
		<path d="M0.98,16.679h24.037c0.543,0,0.982-0.439,0.982-0.981c0-0.541-0.439-0.979-0.982-0.979H0.98
			c-0.542,0-0.98,0.438-0.98,0.979S0.438,16.679,0.98,16.679z"/>
	</g>
</g>
</svg>
