<?xml version="1.0" encoding="utf-8"?>
<!-- Generator: Adobe Illustrator 16.0.0, SVG Export Plug-In . SVG Version: 6.00 Build 0)  -->
<!DOCTYPE svg PUBLIC "-//W3C//DTD SVG 1.1//EN" "http://www.w3.org/Graphics/SVG/1.1/DTD/svg11.dtd">
<svg version="1.1" id="Шар_1" xmlns="http://www.w3.org/2000/svg" xmlns:xlink="http://www.w3.org/1999/xlink" x="0px" y="0px"
	 width="48px" height="60.714px" viewBox="0 0 48 60.714" enable-background="new 0 0 48 60.714" xml:space="preserve">
<g>
	<path d="M12.617,32.962h1.239v4.352c0,0.533,0.435,0.969,0.97,0.969h3.9c0.535,0,0.969-0.436,0.969-0.969v-4.352h1.938v4.352
		c0,0.533,0.435,0.969,0.97,0.969h3.902c0.535,0,0.969-0.436,0.969-0.969v-4.352h1.238c0.535,0,0.969-0.434,0.969-0.969
		s-0.434-0.969-0.969-0.969h-0.58V17.477h2.648l8.459,4.819c1.568,0.904,2.895,3.197,2.895,5.008v6.553
		c0,0.533,0.436,0.969,0.969,0.969c0.535,0,0.971-0.436,0.971-0.969v-6.553c0-2.501-1.699-5.439-3.871-6.688l-8.686-4.949
		c-0.145-0.084-0.311-0.127-0.479-0.127h-2.904v-4.955c0-0.535-0.436-0.969-0.969-0.969h-1.633v-8.06c0-0.535-0.436-0.97-0.971-0.97
		h-7.792c-0.535,0-0.97,0.435-0.97,0.97v8.06h-1.631c-0.535,0-0.969,0.434-0.969,0.969v20.439h-0.582
		c-0.535,0-0.969,0.434-0.969,0.969S12.082,32.962,12.617,32.962L12.617,32.962z M17.757,36.343h-1.963v-3.381h1.963V36.343z
		 M25.535,36.343h-1.964v-3.381h1.964V36.343z M17.737,2.526h5.856v7.091h-5.856V2.526z M15.136,11.555h11.059v19.471H15.136V11.555
		z"/>
	<path d="M43.102,36.763c-2.697,0-4.895,2.197-4.895,4.896c0,2.369,1.688,4.35,3.926,4.801v12.904H2.437l2.376-5.539
		c0.69-1.611,2.758-2.975,4.513-2.975h29.85c0.535,0,0.969-0.434,0.969-0.969s-0.434-0.969-0.969-0.969H36.27V27.916
		c0-0.35-0.188-0.67-0.49-0.844l-4.264-2.416c-0.465-0.265-1.057-0.102-1.32,0.364c-0.264,0.465-0.1,1.058,0.365,1.321l3.771,2.138
		v12.21H12.617c-0.535,0-0.969,0.434-0.969,0.969v3.877c0,0.533,0.434,0.969,0.969,0.969h18.807c0.535,0,0.969-0.436,0.969-0.969
		c0-0.535-0.434-0.971-0.969-0.971H13.585v-1.938h20.747v6.285H9.326c-2.531,0-5.295,1.822-6.293,4.146l-2.955,6.891
		c-0.127,0.299-0.098,0.643,0.082,0.916c0.18,0.27,0.483,0.436,0.809,0.436h42.135c0.535,0,0.971-0.436,0.971-0.969V46.457
		c2.236-0.451,3.928-2.432,3.928-4.799C48,38.96,45.803,36.763,43.102,36.763L43.102,36.763z M43.102,44.619
		c-1.631,0-2.957-1.326-2.957-2.959c0-1.631,1.326-2.957,2.957-2.957c1.633,0,2.959,1.326,2.959,2.957
		C46.061,43.292,44.734,44.619,43.102,44.619z"/>
</g>
</svg>
