<?xml version="1.0" encoding="utf-8"?>
<!-- Generator: Adobe Illustrator 16.0.0, SVG Export Plug-In . SVG Version: 6.00 Build 0)  -->
<!DOCTYPE svg PUBLIC "-//W3C//DTD SVG 1.1//EN" "http://www.w3.org/Graphics/SVG/1.1/DTD/svg11.dtd">
<svg version="1.1" id="Layer_1" xmlns="http://www.w3.org/2000/svg" xmlns:xlink="http://www.w3.org/1999/xlink" x="0px" y="0px"
	 width="54px" height="60.277px" viewBox="0 0 54 60.277" enable-background="new 0 0 54 60.277" xml:space="preserve">
<g>
	<g>
		<g>
			<path d="M53.658,38.761c-0.805-2.862-3.016-6.129-6.254-9.394c5.135-5.928,7.27-11.565,5.047-15.082
				c-0.916-1.444-2.438-2.411-4.508-2.875c-2.699-0.604-6.24-0.303-10.234,0.766c-2.373-7.535-6.254-12.37-10.711-12.37
				c-4.447,0-8.302,4.785-10.675,12.256c-7.598-1.732-13.536-0.979-15.571,2.575c-0.83,1.457-0.979,3.215-0.416,5.224
				c0.893,3.216,3.566,6.907,7.459,10.574c-6.002,6.404-8.64,12.646-6.254,16.427c0.918,1.442,2.424,2.411,4.508,2.876
				c1.006,0.213,2.035,0.313,3.064,0.301c2.223,0,4.784-0.414,7.561-1.181c2.397,6.882,6.103,11.228,10.334,11.228
				c4.672,0,8.703-5.287,11.039-13.438c2.436,0.526,4.709,0.828,6.719,0.828c4.105,0,7.146-1.13,8.502-3.479
				C54.084,42.529,54.223,40.77,53.658,38.761z M37.119,21.18c-1.307-0.841-2.662-1.658-4.082-2.449
				c-0.816-0.452-1.619-0.879-2.438-1.293c1.758-0.804,3.566-1.52,5.4-2.135C36.477,17.236,36.854,19.195,37.119,21.18z
				 M26.996,2.318c3.064,0,6.242,3.932,8.326,10.574c-2.611,0.866-5.148,1.921-7.609,3.14c-2.9-1.345-5.902-2.462-8.967-3.354
				C20.818,6.173,23.971,2.318,26.996,2.318z M18.043,15.089c2.311,0.666,4.584,1.469,6.793,2.424
				c-1.481,0.816-2.963,1.683-4.444,2.637c-1.281,0.829-2.499,1.67-3.679,2.524C16.976,20.112,17.416,17.588,18.043,15.089z
				 M2.748,19.195c-0.377-1.343-0.314-2.448,0.176-3.303c1.332-2.323,6.127-2.9,12.695-1.419C14.777,17.839,14.238,21.28,14,24.745
				c-1.607,1.293-3.103,2.6-4.459,3.904C5.975,25.311,3.526,21.983,2.748,19.195z M13.85,32.206
				c-0.842-0.641-1.658-1.294-2.424-1.946c0.752-0.729,1.557-1.457,2.41-2.186c-0.013,0.603-0.024,1.192-0.024,1.809
				C13.811,30.673,13.823,31.44,13.85,32.206z M6.578,47.276c-1.394-0.313-2.386-0.904-2.926-1.759
				C2.07,43.005,4.28,37.82,9.643,32.118c1.344,1.155,2.813,2.298,4.369,3.403c0.314,3.992,0.968,7.697,1.885,10.949
				C12.203,47.49,8.963,47.816,6.578,47.276z M16.725,37.355c1.355,0.879,2.763,1.732,4.232,2.55
				c1.694,0.94,3.365,1.771,5.035,2.549c-2.486,1.281-5.061,2.373-7.71,3.277C17.541,42.981,17.014,40.18,16.725,37.355z
				 M26.996,57.573c-2.888,0-5.877-3.479-7.962-9.433c3.152-1.055,6.505-2.549,9.909-4.395c2.172,0.904,4.406,1.67,6.682,2.298
				C33.553,53.279,30.199,57.573,26.996,57.573z M36.24,43.621c-1.445-0.402-2.951-0.892-4.521-1.469
				c0.627-0.377,1.244-0.754,1.871-1.156c1.23-0.791,2.398-1.607,3.541-2.424C36.904,40.357,36.604,42.051,36.24,43.621z
				 M37.471,35.182c-1.621,1.269-3.354,2.499-5.236,3.691c-1.154,0.741-2.311,1.432-3.453,2.085
				c-2.261-0.967-4.458-2.06-6.605-3.253c-2.01-1.117-3.918-2.323-5.715-3.554c-0.074-1.369-0.138-2.75-0.138-4.208
				c0-1.355,0.05-2.662,0.126-3.942c1.633-1.269,3.391-2.524,5.299-3.742c1.984-1.269,3.993-2.424,5.977-3.441
				c1.346,0.641,2.701,1.331,4.082,2.098c1.984,1.104,3.867,2.272,5.639,3.491c0.139,1.771,0.227,3.604,0.227,5.524
				C37.672,31.753,37.596,33.5,37.471,35.182z M44.854,13.62c0.854-0.013,1.707,0.075,2.551,0.251
				c1.404,0.313,2.385,0.903,2.938,1.771c1.455,2.298-0.303,6.856-4.734,11.993c-1.82-1.645-3.742-3.177-5.752-4.596
				c-0.275-2.852-0.754-5.664-1.443-8.439C40.785,13.959,42.971,13.62,44.854,13.62z M40.082,26.303
				c1.369,1.042,2.648,2.097,3.816,3.152c-1.129,1.168-2.396,2.36-3.779,3.554c0.039-1.018,0.063-2.047,0.063-3.089
				C40.182,28.689,40.145,27.484,40.082,26.303z M51.07,42.742c-1.318,2.285-5.99,2.888-12.406,1.48
				c0.576-2.549,0.992-5.136,1.217-7.734c2.061-1.633,4.006-3.392,5.84-5.274c2.875,2.913,4.848,5.776,5.525,8.213
				C51.611,40.77,51.559,41.887,51.07,42.742z"/>
			<path d="M26.996,23.704c-3.466,0-6.279,2.813-6.279,6.278c0,3.467,2.813,6.278,6.279,6.278c3.467,0,6.279-2.813,6.279-6.278
				C33.264,26.517,30.463,23.704,26.996,23.704z M26.996,33.75c-2.084,0-3.768-1.684-3.768-3.769s1.684-3.768,3.768-3.768
				c2.086,0,3.768,1.683,3.768,3.768C30.764,32.068,29.082,33.75,26.996,33.75z"/>
		</g>
	</g>
</g>
</svg>
