<svg version="1.1" id="Шар_1" xmlns="http://www.w3.org/2000/svg" xmlns:xlink="http://www.w3.org/1999/xlink" x="0px" y="0px" width="2496px"
	 height="2499.78px" viewBox="0 0 2496 2499.78" style="enable-background:new 0 0 2496 2499.78;" xml:space="preserve">
<g>
	<path d="M374.134,2.987c-48.37,5.335-102.889,22.71-150.719,47.562
		C110.907,109.878,27.257,225.322,5.077,352.522C0.268,379.517,0,415.862,0,1255.789v875.202l6.148,27.257
		c38.478,173.974,161.41,296.906,335.384,335.384l27.257,6.148h1758.426l27.258-6.148c173.97-38.478,296.9-161.41,335.384-335.384
		l6.144-27.257v-875.197c0-839.927-0.268-876.272-5.078-903.262c-6.679-39.023-20.041-78.3-40.352-118.92
		c-63.335-127.473-190.541-215.665-333.242-231.166c-32.607-3.47-1711.663-3.203-1743.194,0.536V2.987z M1328.971,447.398
		c91.93,11.494,166.224,33.674,247.731,73.49c80.169,39.287,131.479,76.431,199.357,144.045
		c63.602,63.866,98.882,112.241,136.294,187.333c52.113,104.758,81.775,229.286,86.849,366.384
		c1.874,46.759,0.54,57.186-10.155,70.545c-20.306,25.928-64.937,21.648-80.17-7.479c-4.809-9.618-6.147-17.899-7.75-55.322
		c-2.677-57.454-6.679-94.598-14.696-138.962c-31.536-173.969-114.913-312.932-248-412.613
		c-110.902-83.377-225.548-124.002-375.731-132.818c-50.775-2.941-59.596-4.81-71.085-13.626
		c-21.381-16.839-22.447-56.388-1.874-74.824c12.56-11.499,21.381-13.1,64.941-11.762c22.715,0.799,56.115,3.471,74.289,5.614
		V447.398z M718.066,476.262c9.357,3.208,23.786,10.69,32.072,16.036c50.775,33.668,192.142,214.589,238.375,304.918
		c26.454,51.574,35.275,89.789,26.994,118.117c-8.558,30.465-22.714,46.501-86.054,97.544
		c-25.388,20.578-49.174,41.686-52.908,47.299c-9.624,13.899-17.379,41.156-17.379,60.395
		c0.272,44.626,29.131,125.599,67.083,187.868c29.389,48.37,82.039,110.365,134.148,157.938
		c61.198,56.121,115.181,94.331,176.111,124.533c78.3,39.014,126.14,48.906,161.147,32.602c8.816-4.006,18.168-9.351,21.113-11.751
		c2.668-2.41,23.246-27.529,45.698-55.321c43.287-54.52,53.175-63.337,82.842-73.491c37.684-12.827,76.162-9.356,114.908,10.418
		c29.398,15.238,93.537,55.055,134.955,83.913c54.515,38.215,171.029,133.354,186.803,152.331
		c27.793,34.203,32.602,78.026,13.894,126.401c-19.774,51.038-96.741,146.712-150.456,187.601
		c-48.638,36.882-83.104,51.038-128.54,53.18c-37.412,1.87-52.907-1.338-100.747-21.113
		c-375.2-154.729-674.772-385.623-912.618-702.834c-124.261-165.688-218.869-337.521-283.543-515.769
		c-37.675-103.956-39.544-149.118-8.548-202.298c13.363-22.447,70.287-78.032,111.705-109.032
		c68.948-51.311,100.752-70.287,126.14-75.628c17.369-3.743,47.562-0.803,66.806,6.149L718.066,476.262z M1347.41,641.147
		c162.218,23.781,287.817,99.146,370.128,221.541c46.233,68.949,75.092,149.921,84.979,236.769
		c3.471,31.804,3.471,89.799-0.264,99.418c-3.48,9.084-14.701,21.377-24.325,26.454c-10.419,5.345-32.599,4.81-44.891-1.606
		c-20.577-10.418-26.726-26.99-26.726-71.884c0-69.216-17.905-142.17-48.901-198.826c-35.28-64.669-86.585-118.117-149.117-155.266
		c-53.716-32.067-133.087-55.853-205.511-61.734c-26.191-2.132-40.62-7.477-50.507-18.971
		c-15.233-17.369-16.839-40.888-4.011-60.394C1262.163,634.999,1283.539,631.528,1347.41,641.147z M1404.334,842.909
		c52.646,11.226,93.002,31.268,127.474,63.608c44.358,41.949,68.681,92.724,79.366,165.683c7.22,47.567,4.279,66.276-12.56,81.776
		c-15.769,14.429-44.89,14.965-62.532,1.339c-12.828-9.624-16.834-19.78-19.774-47.304c-3.472-36.614-9.888-62.264-20.841-86.05
		c-23.523-50.508-64.941-76.698-134.955-85.252c-32.875-4.006-42.763-7.75-53.453-20.305c-19.508-23.255-12.024-60.93,14.965-74.829
		c10.16-5.077,14.434-5.613,36.881-4.274C1372.799,838.099,1393.381,840.504,1404.334,842.909"/>
</g>
</svg>
