<?xml version="1.0" encoding="utf-8"?>
<!-- Generator: Adobe Illustrator 16.0.0, SVG Export Plug-In . SVG Version: 6.00 Build 0)  -->
<!DOCTYPE svg PUBLIC "-//W3C//DTD SVG 1.1//EN" "http://www.w3.org/Graphics/SVG/1.1/DTD/svg11.dtd">
<svg version="1.1" id="Capa_1" xmlns="http://www.w3.org/2000/svg" xmlns:xlink="http://www.w3.org/1999/xlink" x="0px" y="0px"
	 width="24px" height="24px" viewBox="285.633 408.945 24 24" enable-background="new 285.633 408.945 24 24" xml:space="preserve">
<g>
	<path d="M304.922,432.946c-0.998,0-2.204-0.251-3.53-0.751c-2.908-1.097-6.072-3.263-8.908-6.1
		c-2.837-2.838-5.004-6.002-6.101-8.91c-0.997-2.644-1-4.813-0.006-5.806c0.143-0.143,0.288-0.296,0.438-0.455
		c0.906-0.954,1.931-2.026,3.289-1.978c0.936,0.039,1.842,0.62,2.771,1.775c2.743,3.411,1.506,4.627,0.075,6.037l-0.253,0.25
		c-0.234,0.234-0.676,1.318,3.439,5.434c1.343,1.343,2.489,2.326,3.404,2.921c0.577,0.375,1.607,0.941,2.03,0.519l0.255-0.257
		c1.407-1.428,2.623-2.661,6.032,0.08c1.155,0.928,1.735,1.834,1.774,2.771c0.056,1.356-1.025,2.384-1.979,3.289
		c-0.157,0.15-0.311,0.296-0.454,0.438C306.704,432.698,305.916,432.946,304.922,432.946z M290.007,409.752
		c-0.965,0-1.836,0.917-2.607,1.729c-0.155,0.163-0.305,0.321-0.453,0.469c-0.74,0.74-0.665,2.683,0.19,4.952
		c1.058,2.803,3.159,5.866,5.917,8.624c2.758,2.757,5.818,4.858,8.622,5.915c2.27,0.857,4.213,0.93,4.951,0.191
		c0.147-0.147,0.306-0.298,0.469-0.452c0.829-0.788,1.77-1.681,1.729-2.671c-0.028-0.681-0.524-1.413-1.474-2.176
		c-2.841-2.284-3.635-1.478-4.952-0.142l-0.259,0.261c-0.629,0.63-1.652,0.49-3.04-0.412c-0.963-0.626-2.153-1.646-3.535-3.028
		c-3.416-3.414-4.508-5.504-3.439-6.576l0.257-0.254c1.339-1.317,2.147-2.113-0.138-4.955c-0.765-0.948-1.496-1.444-2.176-1.473
		C290.049,409.752,290.028,409.752,290.007,409.752z"/>
</g>
</svg>
