<?xml version="1.0" encoding="utf-8"?>
<!-- Generator: Adobe Illustrator 16.0.0, SVG Export Plug-In . SVG Version: 6.00 Build 0)  -->
<!DOCTYPE svg PUBLIC "-//W3C//DTD SVG 1.1//EN" "http://www.w3.org/Graphics/SVG/1.1/DTD/svg11.dtd">
<svg version="1.1" id="Capa_1" xmlns="http://www.w3.org/2000/svg" xmlns:xlink="http://www.w3.org/1999/xlink" x="0px" y="0px"
	 width="50px" height="72.582px" viewBox="0 0 50 72.582" enable-background="new 0 0 50 72.582" xml:space="preserve">
<g>
	<path id="Facebook_Places" d="M48.817,18.066c-0.258-0.969-0.782-2-1.171-2.904C43.002,4,32.854,0,24.661,0
		C13.693,0,1.612,7.355,0,22.517v3.096c0,0.129,0.043,1.291,0.107,1.871c0.904,7.226,6.605,14.904,10.863,22.129
		c4.58,7.742,9.332,15.355,14.043,22.969c2.904-4.969,5.797-10,8.634-14.84c0.772-1.42,1.672-2.838,2.446-4.193
		c0.516-0.902,1.5-1.805,1.951-2.645c4.58-8.387,11.953-16.838,11.953-25.162v-3.418C50,21.421,48.881,18.26,48.817,18.066z
		 M24.862,33.615c-3.226,0-6.753-1.612-8.496-6.064c-0.259-0.709-0.239-2.129-0.239-2.259v-2c0-5.677,4.82-8.257,9.012-8.257
		c5.162,0,9.154,4.129,9.154,9.291C34.295,29.486,30.023,33.615,24.862,33.615z"/>
</g>
</svg>
