<?xml version="1.0" encoding="utf-8"?>
<!-- Generator: Adobe Illustrator 16.0.0, SVG Export Plug-In . SVG Version: 6.00 Build 0)  -->
<!DOCTYPE svg PUBLIC "-//W3C//DTD SVG 1.1//EN" "http://www.w3.org/Graphics/SVG/1.1/DTD/svg11.dtd">
<svg version="1.1" id="Capa_1" xmlns="http://www.w3.org/2000/svg" xmlns:xlink="http://www.w3.org/1999/xlink" x="0px" y="0px"
	 width="22px" height="22px" viewBox="286.64 409.945 22 22" enable-background="new 286.64 409.945 22 22" xml:space="preserve">
<g>
	<path d="M303.346,420.642l-8.066-5.5c-0.112-0.076-0.258-0.084-0.378-0.021c-0.12,0.063-0.195,0.188-0.195,0.324v11
		c0,0.137,0.075,0.261,0.195,0.324c0.053,0.028,0.112,0.043,0.171,0.043c0.072,0,0.144-0.021,0.206-0.064l8.066-5.5
		c0.101-0.068,0.16-0.182,0.16-0.303C303.506,420.824,303.447,420.71,303.346,420.642z M295.44,425.75v-9.611l7.05,4.806
		L295.44,425.75z"/>
	<path d="M297.64,409.945c-6.065,0-11,4.935-11,11s4.935,11,11,11s11-4.935,11-11S303.705,409.945,297.64,409.945z M297.64,431.211
		c-5.661,0-10.267-4.605-10.267-10.267c0-5.661,4.605-10.267,10.267-10.267s10.267,4.606,10.267,10.267
		C307.906,426.606,303.301,431.211,297.64,431.211z"/>
</g>
</svg>
