<?xml version="1.0" encoding="utf-8"?>
<!-- Generator: Adobe Illustrator 16.0.0, SVG Export Plug-In . SVG Version: 6.00 Build 0)  -->
<!DOCTYPE svg PUBLIC "-//W3C//DTD SVG 1.1//EN" "http://www.w3.org/Graphics/SVG/1.1/DTD/svg11.dtd">
<svg version="1.1" id="Capa_1" xmlns="http://www.w3.org/2000/svg" xmlns:xlink="http://www.w3.org/1999/xlink" x="0px" y="0px"
	 width="25px" height="25px" viewBox="188.496 188.497 25 25" enable-background="new 188.496 188.497 25 25" xml:space="preserve">
<g>
	<path d="M212.999,198.085c-0.331-0.332-0.733-0.497-1.207-0.497h-7.387v-7.387c0-0.473-0.166-0.876-0.497-1.208
		c-0.331-0.331-0.733-0.497-1.207-0.497h-3.409c-0.474,0-0.876,0.166-1.208,0.497s-0.497,0.734-0.497,1.208v7.387h-7.386
		c-0.474,0-0.876,0.166-1.208,0.497s-0.497,0.733-0.497,1.208v3.409c0,0.474,0.166,0.876,0.497,1.207
		c0.332,0.332,0.734,0.497,1.208,0.497h7.386v7.387c0,0.474,0.166,0.876,0.497,1.208c0.332,0.331,0.734,0.496,1.208,0.496h3.409
		c0.474,0,0.876-0.165,1.207-0.496c0.332-0.332,0.497-0.734,0.497-1.208v-7.387h7.387c0.474,0,0.876-0.165,1.207-0.497
		c0.332-0.331,0.498-0.733,0.498-1.207v-3.409C213.497,198.819,213.331,198.417,212.999,198.085z"/>
</g>
</svg>
