<?xml version="1.0" encoding="utf-8"?>
<!-- Generator: Adobe Illustrator 16.0.0, SVG Export Plug-In . SVG Version: 6.00 Build 0)  -->
<!DOCTYPE svg PUBLIC "-//W3C//DTD SVG 1.1//EN" "http://www.w3.org/Graphics/SVG/1.1/DTD/svg11.dtd">
<svg version="1.1" id="Layer_1" xmlns="http://www.w3.org/2000/svg" xmlns:xlink="http://www.w3.org/1999/xlink" x="0px" y="0px"
	 width="75px" height="53.708px" viewBox="260.14 394.091 75 53.708" enable-background="new 260.14 394.091 75 53.708"
	 xml:space="preserve">
<g>
	<g>
		<g>
			<path d="M330.207,410.372h-26.005c-1.157-4.03-3.429-7.704-6.611-10.553c-4.823-4.318-11.052-6.301-17.542-5.583
				c-10.408,1.151-18.731,9.552-19.792,19.977c-0.579,5.69,0.977,11.316,4.381,15.84c3.262,4.336,7.944,7.334,13.213,8.47
				l5.544,5.543c0.465,0.466,1.083,0.713,1.713,0.712c0.313,0,0.629-0.061,0.932-0.186c0.91-0.377,1.498-1.258,1.498-2.242v-3.881
				c0.912-0.204,1.8-0.463,2.662-0.771v0.154c0,2.719,2.213,4.932,4.933,4.932h8.281l4.412,4.412
				c0.395,0.395,0.919,0.604,1.453,0.604c0.266,0,0.533-0.052,0.789-0.157c0.771-0.32,1.271-1.065,1.271-1.901v-2.957h18.867
				c2.72,0,4.933-2.213,4.933-4.932v-22.548C335.14,412.585,332.927,410.372,330.207,410.372z M286.159,436.35
				c-0.56,0.1-0.968,0.587-0.968,1.156v4.843c0,0.027,0,0.052-0.048,0.072c-0.048,0.02-0.065,0.003-0.085-0.017l-5.792-5.792
				c-0.164-0.164-0.374-0.276-0.602-0.321c-4.846-0.964-9.16-3.681-12.147-7.65c-3.048-4.052-4.44-9.091-3.921-14.191
				c0.457-4.495,2.492-8.771,5.73-12.04c3.239-3.27,7.494-5.344,11.983-5.84c0.781-0.086,1.557-0.129,2.327-0.129
				c4.965,0,9.651,1.78,13.39,5.128c4.26,3.814,6.703,9.28,6.703,14.994C302.728,426.316,295.76,434.637,286.159,436.35z
				 M332.791,437.852c0,1.424-1.159,2.583-2.584,2.583h-20.042c-0.648,0-1.174,0.526-1.174,1.175v3.428l-4.259-4.258
				c-0.221-0.221-0.519-0.345-0.83-0.345h-8.769c-1.425,0-2.583-1.158-2.583-2.583v-1.146c7.517-3.694,12.526-11.404,12.526-20.144
				c0-1.297-0.114-2.582-0.334-3.842h25.465c1.425,0,2.584,1.159,2.584,2.583V437.852L332.791,437.852z"/>
		</g>
	</g>
	<g>
		<g>
			<path d="M326.028,419.484c-0.459-0.458-1.202-0.458-1.661,0L312.67,431.18l-5.43-5.43c-0.459-0.459-1.202-0.459-1.661,0
				c-0.458,0.459-0.458,1.202,0,1.66l6.261,6.261c0.229,0.229,0.53,0.344,0.83,0.344c0.301,0,0.602-0.114,0.831-0.344l12.526-12.526
				C326.486,420.687,326.486,419.943,326.028,419.484z"/>
		</g>
	</g>
	<g>
		<g>
			<path d="M282.609,425.408c-0.001,0-0.001,0-0.002,0c-0.648,0-1.175,0.526-1.175,1.176l0,0v0.001c0,0.648,0.526,1.175,1.175,1.175
				c0,0,0.001,0,0.002,0c0.648,0,1.175-0.526,1.175-1.175v-0.001l0,0C283.783,425.934,283.257,425.408,282.609,425.408z"/>
		</g>
	</g>
	<g>
		<g>
			<path d="M287.839,407.573c-1.423-1.423-3.281-2.206-5.232-2.206c-4.101,0-7.437,3.337-7.437,7.438
				c0,0.648,0.525,1.174,1.174,1.174c0.648,0,1.174-0.525,1.174-1.174c0-2.806,2.283-5.089,5.088-5.089
				c1.324,0,2.592,0.539,3.571,1.518s1.518,2.247,1.518,3.571c0,2.23-1.491,4.235-3.625,4.875c-1.579,0.473-2.639,1.888-2.639,3.519
				v0.375c0,0.648,0.526,1.174,1.174,1.174s1.174-0.525,1.174-1.174v-0.375c0-0.586,0.388-1.097,0.965-1.27
				c3.12-0.936,5.298-3.865,5.298-7.125C290.045,410.854,289.262,408.996,287.839,407.573z"/>
		</g>
	</g>
</g>
</svg>
