<?xml version="1.0" encoding="utf-8"?>
<!-- Generator: Adobe Illustrator 16.0.0, SVG Export Plug-In . SVG Version: 6.00 Build 0)  -->
<!DOCTYPE svg PUBLIC "-//W3C//DTD SVG 1.1//EN" "http://www.w3.org/Graphics/SVG/1.1/DTD/svg11.dtd">
<svg version="1.1" id="Capa_1" xmlns="http://www.w3.org/2000/svg" xmlns:xlink="http://www.w3.org/1999/xlink" x="0px" y="0px"
	 width="24px" height="25.743px" viewBox="285.64 408.074 24 25.743" enable-background="new 285.64 408.074 24 25.743"
	 xml:space="preserve">
<path d="M302.191,426.37c-0.229,0.229-0.425,0.479-0.596,0.746l-7.54-4.577c0.2-0.499,0.313-1.042,0.313-1.612
	c0-0.569-0.113-1.112-0.312-1.611l7.542-4.542c0.774,1.217,2.132,2.027,3.679,2.027c2.406,0,4.363-1.958,4.363-4.364
	c0-2.406-1.957-4.363-4.363-4.363s-4.364,1.958-4.364,4.363c0,0.548,0.106,1.071,0.292,1.555l-7.553,4.548
	c-0.78-1.188-2.123-1.976-3.648-1.976c-2.406,0-4.364,1.958-4.364,4.363s1.958,4.364,4.364,4.364c1.525,0,2.868-0.788,3.648-1.977
	l7.551,4.583c-0.188,0.491-0.29,1.017-0.29,1.559c0,1.165,0.454,2.261,1.278,3.085c0.851,0.851,1.968,1.276,3.085,1.276
	c1.118,0,2.235-0.426,3.086-1.276c0.824-0.824,1.278-1.92,1.278-3.085c0-1.166-0.454-2.262-1.278-3.086
	C306.66,424.667,303.892,424.667,302.191,426.37z M305.277,408.946c1.925,0,3.49,1.566,3.49,3.491s-1.565,3.491-3.49,3.491
	s-3.491-1.566-3.491-3.491S303.351,408.946,305.277,408.946z M290.004,424.417c-1.924,0-3.491-1.565-3.491-3.491
	c0-1.925,1.566-3.491,3.491-3.491c1.925,0,3.491,1.566,3.491,3.491C293.495,422.852,291.928,424.417,290.004,424.417z
	 M307.744,431.923c-1.361,1.361-3.575,1.361-4.937,0c-0.659-0.659-1.022-1.536-1.022-2.468c0-0.933,0.363-1.81,1.022-2.469
	c0.681-0.681,1.574-1.021,2.469-1.021c0.894,0,1.787,0.34,2.468,1.021c0.66,0.659,1.022,1.536,1.022,2.469
	C308.767,430.387,308.405,431.264,307.744,431.923z"/>
</svg>
