<?xml version="1.0" encoding="utf-8"?>
<!-- Generator: Adobe Illustrator 16.0.0, SVG Export Plug-In . SVG Version: 6.00 Build 0)  -->
<!DOCTYPE svg PUBLIC "-//W3C//DTD SVG 1.1//EN" "http://www.w3.org/Graphics/SVG/1.1/DTD/svg11.dtd">
<svg version="1.1" id="Layer_1" xmlns="http://www.w3.org/2000/svg" xmlns:xlink="http://www.w3.org/1999/xlink" x="0px" y="0px"
	 width="24px" height="20.951px" viewBox="285.641 410.47 24 20.951" enable-background="new 285.641 410.47 24 20.951"
	 xml:space="preserve">
<path fill="#00AAF2" d="M308.673,422.776c-0.381-0.526-0.558-1.169-0.557-1.819c0-0.004,0-0.008,0-0.011
	c0-5.786-4.69-10.476-10.476-10.476c-1.266,0-2.479,0.225-3.601,0.637c-0.608,0.223-1.273,0.266-1.896,0.09
	c-0.55-0.155-1.138-0.22-1.747-0.178c-2.557,0.176-4.616,2.272-4.749,4.832c-0.063,1.222,0.303,2.356,0.961,3.265
	c0.381,0.526,0.558,1.169,0.557,1.818c0,0.004,0,0.008,0,0.011c0,5.786,4.69,10.476,10.476,10.476c1.266,0,2.479-0.226,3.602-0.638
	c0.607-0.223,1.272-0.265,1.896-0.09c0.551,0.155,1.138,0.221,1.747,0.179c2.558-0.176,4.616-2.272,4.749-4.832
	C309.698,424.819,309.33,423.685,308.673,422.776z M298.024,419.067c2.113,0.502,5.304,1.261,5.304,4.778
	c0,1.731-0.853,3.053-2.401,3.72c-1.105,0.476-2.356,0.54-3.435,0.54c-3.313,0-5.404-2.575-5.492-2.686
	c-0.542-0.68-0.431-1.671,0.25-2.214c0.68-0.543,1.671-0.431,2.214,0.25c0.004,0.005,1.256,1.442,3.028,1.498
	c2.134,0.068,2.622-0.566,2.685-1.108c0.077-0.662-0.512-1.148-2.882-1.712c-2.009-0.478-5.045-1.2-5.045-4.438
	c0-1.008,0.41-4.298,5.688-4.298c3.333,0,5.299,2.624,5.381,2.735c0.516,0.701,0.365,1.688-0.336,2.203
	c-0.698,0.513-1.679,0.366-2.196-0.326c-0.037-0.048-1.162-1.3-2.849-1.46c-1.276-0.121-2.536,0.339-2.536,1.019
	C295.401,418.288,295.763,418.53,298.024,419.067z"/>
</svg>
