<?xml version="1.0" encoding="utf-8"?>
<!-- Generator: Adobe Illustrator 16.0.0, SVG Export Plug-In . SVG Version: 6.00 Build 0)  -->
<!DOCTYPE svg PUBLIC "-//W3C//DTD SVG 1.1//EN" "http://www.w3.org/Graphics/SVG/1.1/DTD/svg11.dtd">
<svg version="1.1" id="Шар_1" xmlns="http://www.w3.org/2000/svg" xmlns:xlink="http://www.w3.org/1999/xlink" x="0px" y="0px"
	 width="44px" height="45.577px" viewBox="0 0 44 45.577" enable-background="new 0 0 44 45.577" xml:space="preserve">
<g>
	<g>
		<path fill="#FFFFFF" d="M44,41.574H0V4.002h44V41.574z M0.889,40.685H43.11V4.892H0.889V40.685z"/>
	</g>
	<g>
		<path fill="#FFFFFF" d="M3.053,45.577L3.055,0h37.893v45.575L3.053,45.577z M3.944,0.889L3.942,44.688l36.115-0.002V0.889H3.944z"
			/>
	</g>
	<rect x="3.499" y="4.892" fill="#FFFFFF" width="37.003" height="35.793"/>
	<g>
		<path fill="#393939" d="M18.158,15.471c-0.206,0.206-0.206,0.541,0,0.746l6.577,6.564l-6.577,6.577
			c-0.206,0.206-0.206,0.541,0,0.747s0.54,0.206,0.746,0l6.938-6.938c0.104-0.103,0.154-0.231,0.154-0.373
			c0-0.128-0.051-0.27-0.154-0.373l-6.938-6.938C18.698,15.265,18.364,15.265,18.158,15.471z"/>
	</g>
</g>
</svg>
