<?xml version="1.0" encoding="utf-8"?>
<!-- Generator: Adobe Illustrator 16.0.0, SVG Export Plug-In . SVG Version: 6.00 Build 0)  -->
<!DOCTYPE svg PUBLIC "-//W3C//DTD SVG 1.1//EN" "http://www.w3.org/Graphics/SVG/1.1/DTD/svg11.dtd">
<svg version="1.1" id="Capa_1" xmlns="http://www.w3.org/2000/svg" xmlns:xlink="http://www.w3.org/1999/xlink" x="0px" y="0px"
	 width="21px" height="11.981px" viewBox="263.68 268.189 21 11.981" enable-background="new 263.68 268.189 21 11.981"
	 xml:space="preserve">
<g>
	<path d="M284.569,279.01c-0.025-0.056-0.05-0.101-0.071-0.137c-0.364-0.656-1.061-1.462-2.089-2.417l-0.021-0.021l-0.011-0.011
		l-0.011-0.012h-0.011c-0.467-0.444-0.763-0.743-0.886-0.896c-0.227-0.291-0.277-0.587-0.153-0.886
		c0.087-0.226,0.415-0.703,0.983-1.432c0.3-0.386,0.536-0.696,0.711-0.929c1.261-1.677,1.808-2.748,1.641-3.214l-0.065-0.109
		c-0.044-0.065-0.157-0.125-0.339-0.18c-0.183-0.055-0.416-0.064-0.7-0.027l-3.148,0.021c-0.051-0.018-0.124-0.016-0.219,0.006
		s-0.143,0.033-0.143,0.033l-0.055,0.027l-0.043,0.033c-0.037,0.021-0.077,0.06-0.121,0.115c-0.043,0.054-0.08,0.118-0.108,0.191
		c-0.343,0.882-0.733,1.702-1.171,2.46c-0.27,0.452-0.517,0.844-0.743,1.175c-0.226,0.332-0.415,0.576-0.568,0.732
		s-0.291,0.282-0.416,0.377c-0.124,0.095-0.218,0.135-0.284,0.121c-0.065-0.015-0.127-0.029-0.186-0.044
		c-0.103-0.065-0.184-0.155-0.246-0.268c-0.062-0.113-0.104-0.255-0.126-0.427c-0.021-0.171-0.034-0.319-0.038-0.443
		c-0.003-0.124-0.002-0.299,0.006-0.525s0.011-0.379,0.011-0.459c0-0.277,0.006-0.578,0.017-0.902
		c0.011-0.324,0.02-0.581,0.027-0.771c0.007-0.189,0.011-0.39,0.011-0.602s-0.013-0.377-0.038-0.498
		c-0.025-0.12-0.064-0.237-0.115-0.35c-0.051-0.113-0.126-0.201-0.224-0.263c-0.099-0.062-0.221-0.111-0.366-0.147
		c-0.387-0.087-0.878-0.135-1.477-0.142c-1.355-0.015-2.227,0.073-2.613,0.263c-0.153,0.08-0.292,0.189-0.416,0.328
		c-0.131,0.161-0.149,0.248-0.055,0.262c0.438,0.066,0.747,0.223,0.929,0.47l0.065,0.131c0.051,0.095,0.102,0.263,0.153,0.503
		c0.051,0.241,0.084,0.507,0.098,0.798c0.037,0.532,0.037,0.988,0,1.367c-0.036,0.379-0.071,0.674-0.104,0.886
		c-0.033,0.211-0.082,0.383-0.148,0.514c-0.065,0.131-0.109,0.211-0.131,0.24c-0.022,0.029-0.041,0.047-0.055,0.055
		c-0.095,0.037-0.193,0.055-0.295,0.055s-0.226-0.051-0.372-0.153c-0.146-0.102-0.297-0.243-0.454-0.421
		c-0.157-0.179-0.333-0.429-0.531-0.749c-0.197-0.321-0.401-0.7-0.612-1.137l-0.175-0.317c-0.109-0.204-0.258-0.501-0.448-0.891
		c-0.189-0.39-0.357-0.768-0.503-1.132c-0.058-0.153-0.146-0.27-0.262-0.35l-0.055-0.033c-0.037-0.029-0.095-0.06-0.175-0.093
		c-0.081-0.033-0.164-0.057-0.251-0.071l-2.996,0.022c-0.306,0-0.514,0.069-0.623,0.208l-0.044,0.066
		c-0.022,0.036-0.033,0.095-0.033,0.175s0.021,0.179,0.065,0.295c0.438,1.028,0.913,2.02,1.427,2.974
		c0.514,0.955,0.96,1.724,1.339,2.307c0.379,0.584,0.766,1.134,1.159,1.651s0.654,0.85,0.782,0.995s0.228,0.255,0.301,0.328
		l0.273,0.262c0.175,0.176,0.432,0.385,0.771,0.629s0.714,0.485,1.126,0.722c0.412,0.237,0.891,0.431,1.438,0.58
		c0.547,0.149,1.079,0.209,1.597,0.181h1.257c0.255-0.022,0.448-0.103,0.579-0.241l0.044-0.055c0.029-0.044,0.057-0.111,0.082-0.202
		s0.038-0.191,0.038-0.301c-0.008-0.313,0.017-0.596,0.071-0.847c0.054-0.252,0.116-0.441,0.186-0.569
		c0.069-0.127,0.147-0.234,0.235-0.322c0.087-0.087,0.149-0.141,0.186-0.158c0.037-0.019,0.065-0.031,0.088-0.038
		c0.175-0.059,0.381-0.002,0.617,0.169c0.237,0.172,0.46,0.383,0.668,0.635c0.207,0.251,0.457,0.533,0.748,0.847
		c0.292,0.313,0.547,0.547,0.766,0.7l0.219,0.131c0.146,0.088,0.336,0.168,0.568,0.241c0.233,0.072,0.438,0.091,0.612,0.055
		l2.799-0.044c0.277,0,0.492-0.046,0.646-0.137s0.244-0.191,0.273-0.301s0.03-0.233,0.006-0.372
		C284.619,279.162,284.594,279.065,284.569,279.01z"/>
</g>
</svg>
