<?xml version="1.0" encoding="utf-8"?>
<!-- Generator: Adobe Illustrator 16.0.0, SVG Export Plug-In . SVG Version: 6.00 Build 0)  -->
<!DOCTYPE svg PUBLIC "-//W3C//DTD SVG 1.1//EN" "http://www.w3.org/Graphics/SVG/1.1/DTD/svg11.dtd">
<svg version="1.1" id="Capa_1" xmlns="http://www.w3.org/2000/svg" xmlns:xlink="http://www.w3.org/1999/xlink" x="0px" y="0px"
	 width="49px" height="48.957px" viewBox="19.188 9.297 49 48.957" enable-background="new 19.188 9.297 49 48.957"
	 xml:space="preserve">
<g display="none">
	<path display="inline" fill="#BBBABB" d="M22.712,42.575c-1.309-0.099-2.613-0.297-3.887-0.587l0.32-1.401
		c1.2,0.276,2.437,0.463,3.67,0.557L22.712,42.575z M29.563,42.2l-0.266-1.414c1.215-0.221,2.425-0.543,3.59-0.951l0.474,1.358
		C32.125,41.618,30.847,41.961,29.563,42.2z M12.393,39.586c-1.156-0.619-2.274-1.322-3.325-2.105l0.857-1.146
		c0.993,0.733,2.047,1.4,3.139,1.985L12.393,39.586z M39.489,38.098l-0.811-1.18c1.021-0.701,1.996-1.48,2.904-2.316l0.979,1.049
		C41.599,36.54,40.566,37.37,39.489,38.098z M4.134,32.713c-0.811-1.029-1.555-2.119-2.203-3.256l1.242-0.713
		c0.616,1.071,1.317,2.104,2.087,3.072L4.134,32.713z M46.946,30.37l-1.216-0.765c0.665-1.043,1.249-2.155,1.742-3.283l1.313,0.576
		C48.263,28.097,47.645,29.263,46.946,30.37z M-0.685,23.112c-0.333-1.263-0.574-2.562-0.713-3.865l1.429-0.154
		c0.132,1.232,0.36,2.459,0.675,3.653L-0.685,23.112z M50.688,20.299l-1.42-0.211c0.184-1.218,0.275-2.465,0.275-3.708
		c0-0.875-0.047-1.77-0.138-2.637l1.427-0.149c0.104,0.922,0.146,1.861,0.146,2.786C50.977,17.689,50.881,19.01,50.688,20.299z
		 M0.166,12.605l-1.42-0.217c0.199-1.292,0.492-2.585,0.884-3.83l1.366,0.427C0.634,10.16,0.351,11.379,0.166,12.605z M47.883,7.429
		c-0.447-1.148-0.979-2.275-1.596-3.353l1.248-0.709c0.646,1.138,1.211,2.328,1.688,3.546L47.883,7.429z M3.726,3.098L2.518,2.327
		c0.703-1.105,1.489-2.164,2.347-3.152l1.087,0.942C5.135,1.05,4.39,2.052,3.726,3.098z M42.359-1.087
		c-0.866-0.879-1.812-1.7-2.805-2.442l0.862-1.146c1.047,0.781,2.045,1.648,2.961,2.579L42.359-1.087z M10.804-4.192L10.002-5.38
		c1.083-0.734,2.23-1.392,3.406-1.955l0.623,1.296C12.909-5.507,11.827-4.889,10.804-4.192z M33.894-6.698
		c-1.146-0.457-2.341-0.831-3.544-1.111l0.325-1.399c1.274,0.297,2.536,0.692,3.753,1.177L33.894-6.698z M20.193-8.046l-0.26-1.407
		c1.284-0.238,2.599-0.376,3.907-0.42l0.046,1.435C22.648-8.397,21.409-8.266,20.193-8.046z"/>
</g>
<g>
	<g>
		<path fill="#BBBABB" d="M45.608,58.254l-0.079-1.018c0.668-0.053,1.336-0.134,1.983-0.24l0.166,1.008
			C47.001,58.116,46.305,58.2,45.608,58.254z M40.406,58.114c-0.688-0.092-1.378-0.214-2.052-0.362l0.22-0.997
			c0.647,0.143,1.309,0.259,1.968,0.348L40.406,58.114z M52.696,56.617l-0.377-0.95c0.62-0.246,1.234-0.521,1.825-0.813l0.454,0.913
			C53.983,56.074,53.342,56.359,52.696,56.617z M33.418,56.089c-0.633-0.292-1.257-0.613-1.855-0.953l0.506-0.888
			c0.572,0.326,1.17,0.633,1.777,0.913L33.418,56.089z M58.983,52.962l-0.639-0.796c0.521-0.419,1.027-0.861,1.506-1.315l0.704,0.74
			C60.055,52.066,59.527,52.526,58.983,52.962z M27.338,52.095c-0.52-0.465-1.023-0.953-1.495-1.455l0.743-0.7
			c0.453,0.479,0.935,0.948,1.432,1.394L27.338,52.095z M63.929,47.629l-0.845-0.577c0.373-0.545,0.729-1.116,1.057-1.696
			l0.89,0.503C64.689,46.464,64.318,47.06,63.929,47.629z M22.69,46.5c-0.361-0.595-0.699-1.211-1.003-1.827l0.916-0.453
			c0.292,0.591,0.616,1.181,0.962,1.752L22.69,46.5z M67.094,41.079l-0.976-0.304c0.196-0.632,0.367-1.282,0.509-1.932l0.997,0.218
			C67.477,39.74,67.298,40.417,67.094,41.079z M19.89,39.788c-0.167-0.67-0.309-1.357-0.419-2.042l1.009-0.164
			c0.106,0.657,0.241,1.315,0.401,1.958L19.89,39.788z M67.167,33.886c0-0.714-0.025-1.362-0.077-1.999l1.018-0.084
			c0.055,0.665,0.081,1.341,0.081,2.011L67.167,33.886z M20.209,32.601l-1.021-0.052c0.036-0.689,0.1-1.388,0.193-2.076l1.013,0.138
			C20.305,31.27,20.242,31.939,20.209,32.601z M66.16,26.987c-0.193-0.636-0.416-1.271-0.661-1.885l0.948-0.379
			c0.256,0.642,0.488,1.304,0.69,1.968L66.16,26.987z M21.592,25.768l-0.96-0.35c0.236-0.649,0.505-1.298,0.798-1.929l0.927,0.431
			C22.076,24.525,21.818,25.146,21.592,25.768z M63.166,20.694c-0.367-0.546-0.766-1.086-1.186-1.607l0.796-0.641
			c0.438,0.543,0.854,1.108,1.237,1.679L63.166,20.694z M24.928,19.646l-0.814-0.616c0.417-0.551,0.863-1.091,1.327-1.608
			l0.76,0.683C25.756,18.6,25.328,19.119,24.928,19.646z M58.458,15.553c-0.52-0.42-1.06-0.822-1.605-1.193l0.572-0.845
			c0.571,0.387,1.135,0.805,1.675,1.244L58.458,15.553z M29.911,14.769l-0.599-0.828c0.56-0.405,1.145-0.792,1.739-1.149
			l0.526,0.875C31.008,14.009,30.447,14.38,29.911,14.769z M52.452,12.013c-0.619-0.25-1.253-0.474-1.886-0.667l0.3-0.977
			c0.659,0.202,1.321,0.437,1.967,0.696L52.452,12.013z M36.101,11.565l-0.329-0.968c0.658-0.224,1.331-0.42,2.001-0.586
			l0.246,0.992C37.376,11.162,36.731,11.351,36.101,11.565z M45.669,10.402c-0.897-0.076-1.815-0.1-2.711-0.073l-0.029-1.021
			c0.932-0.026,1.889-0.002,2.826,0.077L45.669,10.402z"/>
	</g>
	<g>
		<g>
			<path fill="#7F7F7F" d="M54.286,38.75c-0.023-0.058-0.05-0.104-0.071-0.14c-0.371-0.67-1.084-1.494-2.134-2.47L52.06,36.12
				l-0.013-0.012l-0.011-0.012h-0.012c-0.478-0.454-0.781-0.759-0.907-0.916c-0.231-0.297-0.282-0.6-0.154-0.904
				c0.088-0.23,0.423-0.719,1.003-1.464c0.307-0.395,0.548-0.71,0.726-0.949c1.29-1.713,1.849-2.807,1.677-3.283l-0.064-0.11
				c-0.044-0.066-0.159-0.127-0.345-0.185c-0.189-0.056-0.426-0.064-0.717-0.026l-3.216,0.021c-0.052-0.019-0.126-0.017-0.224,0.006
				c-0.096,0.022-0.146,0.034-0.146,0.034l-0.056,0.026l-0.044,0.033c-0.038,0.021-0.08,0.062-0.124,0.117
				c-0.044,0.056-0.082,0.121-0.108,0.195c-0.353,0.901-0.751,1.739-1.197,2.513c-0.276,0.46-0.53,0.861-0.759,1.199
				c-0.232,0.34-0.425,0.588-0.58,0.748c-0.155,0.158-0.298,0.287-0.425,0.385c-0.128,0.098-0.224,0.138-0.292,0.124
				c-0.065-0.017-0.129-0.03-0.189-0.044c-0.104-0.067-0.188-0.16-0.251-0.275c-0.063-0.116-0.106-0.262-0.128-0.438
				c-0.021-0.174-0.036-0.325-0.04-0.452c-0.002-0.126-0.002-0.305,0.006-0.535c0.011-0.232,0.013-0.387,0.013-0.469
				c0-0.283,0.006-0.591,0.018-0.922c0.011-0.331,0.021-0.593,0.028-0.787c0.006-0.192,0.01-0.398,0.01-0.615
				s-0.012-0.385-0.038-0.509c-0.024-0.123-0.064-0.242-0.116-0.357c-0.054-0.116-0.13-0.206-0.23-0.27
				c-0.103-0.063-0.226-0.112-0.373-0.149c-0.396-0.089-0.898-0.138-1.509-0.146c-1.385-0.015-2.276,0.075-2.67,0.27
				c-0.156,0.082-0.299,0.192-0.425,0.335c-0.134,0.164-0.152,0.253-0.056,0.267c0.447,0.067,0.762,0.228,0.947,0.48l0.066,0.134
				c0.054,0.098,0.105,0.27,0.157,0.514c0.052,0.246,0.086,0.518,0.1,0.816c0.038,0.542,0.038,1.008,0,1.396
				c-0.035,0.388-0.071,0.688-0.105,0.906c-0.034,0.216-0.084,0.392-0.151,0.524c-0.066,0.134-0.112,0.216-0.134,0.246
				c-0.021,0.027-0.042,0.048-0.056,0.056c-0.099,0.038-0.197,0.056-0.302,0.056c-0.106,0-0.232-0.052-0.381-0.155
				c-0.149-0.104-0.303-0.247-0.463-0.429c-0.161-0.185-0.341-0.44-0.543-0.767c-0.201-0.329-0.408-0.716-0.624-1.162l-0.179-0.322
				c-0.11-0.209-0.264-0.513-0.458-0.911c-0.191-0.398-0.363-0.785-0.514-1.156c-0.06-0.156-0.148-0.276-0.268-0.358l-0.057-0.034
				c-0.038-0.029-0.098-0.061-0.18-0.095c-0.083-0.034-0.167-0.06-0.256-0.072l-3.061,0.022c-0.313,0-0.525,0.069-0.636,0.212
				l-0.045,0.066c-0.021,0.036-0.034,0.097-0.034,0.178c0,0.082,0.021,0.184,0.066,0.301c0.448,1.051,0.933,2.065,1.458,3.039
				c0.525,0.978,0.981,1.762,1.369,2.357c0.387,0.596,0.783,1.158,1.183,1.687c0.402,0.527,0.669,0.868,0.799,1.016
				c0.131,0.148,0.232,0.262,0.309,0.335l0.277,0.268c0.18,0.181,0.443,0.394,0.788,0.643c0.348,0.249,0.73,0.496,1.151,0.738
				c0.421,0.241,0.91,0.44,1.469,0.592c0.559,0.152,1.101,0.214,1.632,0.186h1.282c0.262-0.021,0.459-0.105,0.593-0.245l0.044-0.058
				c0.03-0.045,0.059-0.111,0.084-0.205c0.026-0.095,0.04-0.195,0.04-0.309c-0.008-0.32,0.016-0.608,0.071-0.865
				c0.057-0.257,0.118-0.451,0.189-0.581c0.072-0.13,0.15-0.238,0.242-0.328c0.088-0.088,0.151-0.146,0.189-0.162
				c0.038-0.02,0.065-0.031,0.09-0.038c0.179-0.06,0.39-0.002,0.63,0.173c0.242,0.176,0.469,0.391,0.683,0.648
				c0.212,0.257,0.467,0.545,0.765,0.867c0.297,0.319,0.559,0.559,0.782,0.713l0.224,0.135c0.148,0.09,0.344,0.172,0.581,0.245
				c0.236,0.074,0.447,0.094,0.623,0.059l2.859-0.046c0.283,0,0.503-0.049,0.66-0.142c0.158-0.093,0.25-0.194,0.279-0.307
				c0.03-0.114,0.03-0.238,0.006-0.38C54.336,38.906,54.31,38.805,54.286,38.75z"/>
		</g>
	</g>
</g>
</svg>
