<?xml version="1.0" encoding="utf-8"?>
<!-- Generator: Adobe Illustrator 16.0.0, SVG Export Plug-In . SVG Version: 6.00 Build 0)  -->
<!DOCTYPE svg PUBLIC "-//W3C//DTD SVG 1.1//EN" "http://www.w3.org/Graphics/SVG/1.1/DTD/svg11.dtd">
<svg version="1.1" id="Шар_1" xmlns="http://www.w3.org/2000/svg" xmlns:xlink="http://www.w3.org/1999/xlink" x="0px" y="0px"
	 width="23px" height="23px" viewBox="244.5 193.112 23 23" enable-background="new 244.5 193.112 23 23" xml:space="preserve">
<g enable-background="new    ">
	<g>
		<g>
			<path fill="#E60012" d="M260.848,194.189c-1.998,0.996-3.356,2.826-3.426,4.934c2.97,0.508,5.24,3.015,5.24,6.037
				c0,3.415-2.854,6.157-6.349,6.157c-3.866,0-6.5-3.38-6.432-7.168c0-5.538,4.622-10.02,10.333-10.02
				c0.18,0,0.357,0.006,0.534,0.015c-1.456-0.663-3.073-1.032-4.773-1.032c-6.343,0-11.476,5.133-11.476,11.476
				c0,6.392,5.133,11.524,11.476,11.524c6.343,0,11.524-5.133,11.524-11.524C267.5,199.984,264.77,196.019,260.848,194.189z
				 M260.922,194.152c-0.058-0.003-0.115-0.005-0.173-0.008c0.033,0.015,0.066,0.03,0.099,0.045
				C260.872,194.177,260.897,194.165,260.922,194.152z"/>
		</g>
	</g>
</g>
</svg>
