<?xml version="1.0" encoding="utf-8"?>
<!-- Generator: Adobe Illustrator 16.0.0, SVG Export Plug-In . SVG Version: 6.00 Build 0)  -->
<!DOCTYPE svg PUBLIC "-//W3C//DTD SVG 1.1//EN" "http://www.w3.org/Graphics/SVG/1.1/DTD/svg11.dtd">
<svg version="1.1" id="Capa_1" xmlns="http://www.w3.org/2000/svg" xmlns:xlink="http://www.w3.org/1999/xlink" x="0px" y="0px"
	 width="13px" height="15.65px" viewBox="291.141 413.122 13 15.65" enable-background="new 291.141 413.122 13 15.65"
	 xml:space="preserve">
<g>
	<path d="M300.353,422.303l-0.04-0.018c-0.096-0.044-0.192-0.085-0.29-0.123c-0.107-0.043-0.216-0.082-0.326-0.119
		c-0.087-0.029-0.174-0.056-0.263-0.082c-0.135-0.039-0.271-0.074-0.411-0.105c-0.048-0.01-0.097-0.019-0.145-0.027l-0.033-0.007
		c-0.083-0.016-0.166-0.03-0.25-0.043l-0.024-0.004c-0.001,0-0.001,0-0.002,0l-0.024-0.003c-0.07-0.011-0.14-0.021-0.212-0.029
		l-0.246-0.02c-0.303-0.021-0.615-0.02-0.915,0.002l-0.087,0.008l-0.041,0.003l-0.102,0.009c-0.093,0.01-0.187,0.023-0.279,0.038
		l-0.027,0.004c-0.063,0.011-0.127,0.022-0.189,0.034c-0.07,0.012-0.138,0.025-0.207,0.041c-0.132,0.029-0.264,0.063-0.392,0.101
		c-0.102,0.029-0.202,0.062-0.296,0.094l-0.065,0.023c-0.2,0.07-0.399,0.152-0.591,0.241l-0.051,0.024l-0.001,0.001
		c-2.25,1.077-3.701,3.371-3.701,5.861c0,0.057,0.004,0.113,0.007,0.17l0.017,0.395h12.952l0.018-0.391
		c0.003-0.058,0.007-0.115,0.007-0.174C304.141,425.678,302.655,423.364,300.353,422.303z M291.776,428.137
		c0.027-2.235,1.349-4.286,3.363-5.23l0.064-0.025l0.008-0.007c0.158-0.072,0.32-0.139,0.486-0.196l0.052-0.019
		c0.09-0.031,0.179-0.06,0.272-0.086c0.116-0.034,0.234-0.064,0.352-0.092c0.062-0.013,0.123-0.025,0.186-0.037
		c0.05-0.009,0.1-0.019,0.15-0.026l0.025-0.004c0.09-0.015,0.182-0.027,0.272-0.037l0.208-0.019c0.272-0.02,0.532-0.022,0.847,0
		l0.202,0.017c0.05,0.006,0.1,0.013,0.161,0.021l0.072,0.01c0.076,0.012,0.151,0.024,0.228,0.039l0.036,0.007
		c0.043,0.008,0.085,0.016,0.125,0.024c0.126,0.027,0.248,0.06,0.37,0.095c0.081,0.023,0.161,0.048,0.239,0.074
		c0.099,0.032,0.196,0.068,0.293,0.107c0.094,0.036,0.186,0.075,0.276,0.116l0.016,0.008c2.06,0.945,3.397,3.002,3.425,5.259
		L291.776,428.137L291.776,428.137z M296.072,420.907c0.048,0.02,0.097,0.038,0.146,0.055l0.103,0.037
		c0.04,0.015,0.08,0.03,0.121,0.043c0.378,0.119,0.774,0.18,1.177,0.184l0.032,0c0.138,0,0.276-0.007,0.409-0.021
		c0.045-0.004,0.09-0.012,0.135-0.019l0.099-0.015c0.057-0.007,0.112-0.016,0.171-0.027c0.04-0.008,0.078-0.019,0.117-0.029
		l0.108-0.027c0.054-0.013,0.107-0.026,0.16-0.043c0.033-0.01,0.065-0.022,0.098-0.034l0.087-0.032
		c0.063-0.021,0.125-0.043,0.188-0.07c0.024-0.011,0.048-0.022,0.071-0.034l0.028-0.014c0.086-0.039,0.172-0.078,0.257-0.124
		l0.056-0.033c0.095-0.054,0.19-0.11,0.286-0.175c0.05-0.034,0.098-0.072,0.145-0.109l0.162-0.126
		c0.935-0.774,1.472-1.909,1.472-3.086l0.002-0.034c0-2.234-1.817-4.052-4.052-4.052c-2.133,0-3.907,1.667-4.039,3.796l-0.004,0.053
		c-0.005,0.067-0.009,0.134-0.009,0.203C293.597,418.806,294.568,420.271,296.072,420.907z M294.24,417.015l0.003-0.057
		c0.112-1.795,1.608-3.201,3.406-3.201c1.884,0,3.417,1.533,3.419,3.388l-0.002,0.033c-0.002,1.017-0.455,1.974-1.247,2.631
		l-0.15,0.115c-0.034,0.027-0.068,0.055-0.11,0.084c-0.076,0.052-0.157,0.098-0.238,0.145l-0.046,0.028
		c-0.068,0.037-0.141,0.069-0.216,0.103l-0.084,0.041c-0.048,0.02-0.099,0.037-0.149,0.055l-0.104,0.038
		c-0.021,0.008-0.041,0.016-0.061,0.022c-0.039,0.012-0.079,0.021-0.119,0.031l-0.127,0.032c-0.027,0.007-0.054,0.015-0.078,0.02
		c-0.042,0.008-0.085,0.014-0.128,0.02l-0.121,0.018c-0.029,0.005-0.059,0.01-0.091,0.014c-0.105,0.011-0.212,0.017-0.32,0.018
		l-0.03,0h-0.001c-0.348,0-0.689-0.052-1.015-0.154c-0.028-0.009-0.056-0.02-0.083-0.03l-0.119-0.043
		c-0.037-0.013-0.074-0.026-0.11-0.041c-1.267-0.536-2.086-1.772-2.086-3.148C294.232,417.121,294.236,417.068,294.24,417.015z"/>
</g>
</svg>
