<?xml version="1.0" encoding="utf-8"?>
<!-- Generator: Adobe Illustrator 16.0.0, SVG Export Plug-In . SVG Version: 6.00 Build 0)  -->
<!DOCTYPE svg PUBLIC "-//W3C//DTD SVG 1.1//EN" "http://www.w3.org/Graphics/SVG/1.1/DTD/svg11.dtd">
<svg version="1.1" id="Шар_1" xmlns="http://www.w3.org/2000/svg" xmlns:xlink="http://www.w3.org/1999/xlink" x="0px" y="0px"
	 width="430.283px" height="305.637px" viewBox="0 0 430.283 305.637" enable-background="new 0 0 430.283 305.637"
	 xml:space="preserve">
<g>
	<g>
		<path fill="#FFFFFF" d="M143.864,305.512l-13.998-0.029L0.142,10.846L7.154,0.125h86.425v15.28H18.852l118.058,268.145
			l69.533-155.81L154.964,10.846l7.016-10.721h106.358l6.982,10.751l-52.167,116.9l68.581,155.773l119.64-268.145h-77.025V0.125
			h88.812l6.981,10.751L298.686,305.512l-13.994-0.029l-69.921-158.876L143.864,305.512z M173.677,15.405l41.183,93.497
			l41.721-93.497H173.677z"/>
		<path fill="#CECECE" d="M298.767,305.637h-0.081l-14.076-0.029l-0.032-0.074L214.77,146.916l-70.824,158.722h-0.081l-14.08-0.029
			l-0.032-0.074L0,10.834L7.087,0h86.617v15.53H19.043L136.91,283.241l69.396-155.501L154.822,10.834L161.912,0h106.493
			l7.057,10.865l-0.027,0.062l-52.145,116.85l68.445,155.464L411.182,15.53h-76.958V0h89.005l0.036,0.057l7.019,10.808l-0.027,0.062
			L298.767,305.637z M129.948,305.358l13.835,0.029l70.988-159.089l0.113,0.258l69.889,158.801l13.831,0.029L430,10.888
			L423.093,0.25h-88.619v15.03h77.093l-0.078,0.176L291.733,283.858l-0.113-0.258l-68.604-155.824l0.022-0.05l52.14-116.838
			L268.27,0.25H162.047l-6.941,10.608l51.474,116.882l-0.022,0.05l-69.648,156.067l-0.113-0.258L18.66,15.28h74.794V0.25H7.222
			L0.283,10.858L129.948,305.358z M214.858,109.21l-0.113-0.258l-41.26-93.672h83.287l-0.078,0.176L214.858,109.21z M173.868,15.53
			l40.992,93.063l41.527-93.063H173.868z"/>
	</g>
</g>
</svg>
