<?xml version="1.0" encoding="utf-8"?>
<!-- Generator: Adobe Illustrator 16.0.0, SVG Export Plug-In . SVG Version: 6.00 Build 0)  -->
<!DOCTYPE svg PUBLIC "-//W3C//DTD SVG 1.1//EN" "http://www.w3.org/Graphics/SVG/1.1/DTD/svg11.dtd">
<svg version="1.1" id="Шар_1" xmlns="http://www.w3.org/2000/svg" xmlns:xlink="http://www.w3.org/1999/xlink" x="0px" y="0px"
	 width="418.856px" height="395.991px" viewBox="0 0 418.856 395.991" enable-background="new 0 0 418.856 395.991"
	 xml:space="preserve">
<g>
	<g>
		<g>
			<path fill="#767676" d="M332.427,228.536H90.556V22.001h241.871V228.536z M95.444,223.647h232.093V26.891H95.444V223.647z"/>
		</g>
		<g>
			<path fill="#767676" d="M107.343,250.538L107.353,0h208.297v250.528L107.343,250.538z M112.241,4.889l-0.009,240.759
				l198.528-0.01V4.889H112.241z"/>
		</g>
	</g>
	<g>
		<g>
			<path fill="#767676" d="M22.699,294.354h2.225l6.99,16.654l7.114-16.654h2.225L33.25,312.98l10.17,23.515l18.172-42.522h2.417
				L44.5,339.102h-2.167l-10.361-24.026L21.61,339.102h-2.158L0,293.973h2.359l18.239,42.522l10.103-23.515L22.699,294.354z"/>
		</g>
		<g>
			<path fill="#767676" d="M99.599,339.102H97.44v-18.435c0-8.642-2.989-13.092-8.709-13.092c-5.844,0-11.631,4.703-13.283,10.866
				v20.661h-2.158v-46.4h2.158v21.61c2.73-5.338,8.069-8.771,13.665-8.771c7.057,0,10.485,5.405,10.485,14.873V339.102z"/>
		</g>
		<g>
			<path fill="#767676" d="M112.633,298.041v-5.338h2.158v5.338H112.633z M112.633,339.102v-33.055h2.158v33.055H112.633z"/>
		</g>
		<g>
			<path fill="#767676" d="M141.997,337.578c-0.315,0.125-2.922,1.843-6.417,1.843c-3.313,0-6.102-2.034-6.102-5.467v-25.997h-4.708
				v-1.911h4.708v-11.373h2.158v11.373h7.821v1.911h-7.821v25.677c0.191,2.478,2.158,3.753,4.316,3.753
				c2.741,0,5.023-1.399,5.214-1.59L141.997,337.578z"/>
		</g>
		<g>
			<path fill="#767676" d="M148.538,322.386c0-9.282,6.934-16.845,15.833-16.845c9.091,0,16.014,7.691,16.08,17.036
				c0,0.191,0,0.888-0.066,0.951h-29.622c0.64,8.135,6.675,14.366,13.989,14.366c4.822,0,9.53-2.73,11.306-6.674l1.977,0.511
				c-1.843,4.641-7.506,8.006-13.417,8.006C155.662,339.736,148.538,331.854,148.538,322.386z M178.284,321.684
				c-0.573-8.323-6.417-14.233-13.855-14.233c-7.43,0-13.217,6.035-13.666,14.233H178.284z"/>
		</g>
		<g>
			<path fill="#767676" d="M228.246,339.102l-6.294-6.546c-3.304,4.321-8.137,7.18-13.989,7.18c-7.181,0-13.979-4.258-13.979-11.693
				c0-6.23,4.831-10.046,10.484-13.86c-5.146-5.401-6.923-8.26-6.923-11.374c0-5.023,4.699-9.406,10.8-9.406
				c5.663,0,9.788,3.687,9.788,8.321c0,5.215-5.147,8.9-10.733,12.716l14.429,15.063c2.033-3.495,3.171-7.691,3.171-12.013h1.977
				c0,4.827-1.404,9.535-3.82,13.412l7.945,8.198H228.246z M220.683,331.219l-14.935-15.699c-5.214,3.562-9.606,7.181-9.606,12.648
				c0,6.545,6.426,9.725,12.08,9.725C213.435,337.893,217.761,335.287,220.683,331.219z M206.063,313.104
				c6.101-4.129,10.036-6.989,10.036-11.249c0-3.752-3.304-6.55-7.754-6.55c-4.956,0-8.7,3.37-8.7,7.505
				C199.645,305.036,200.725,307.451,206.063,313.104z"/>
		</g>
		<g>
			<path fill="#767676" d="M261.104,294.354h2.225l6.989,16.654l7.124-16.654h2.226l-8.012,18.626l10.169,23.515l18.183-42.522
				h2.416l-19.519,45.129h-2.158l-10.361-24.026l-10.361,24.026h-2.158l-19.451-45.129h2.35l18.239,42.522l10.111-23.515
				L261.104,294.354z"/>
		</g>
		<g>
			<path fill="#767676" d="M338.013,339.102h-2.167v-18.435c0-8.642-2.979-13.092-8.699-13.092c-5.854,0-11.641,4.703-13.293,10.866
				v20.661h-2.157v-46.4h2.157v21.61c2.741-5.338,8.079-8.771,13.665-8.771c7.057,0,10.494,5.405,10.494,14.873V339.102z"/>
		</g>
		<g>
			<path fill="#767676" d="M351.039,298.041v-5.338h2.158v5.338H351.039z M351.039,339.102v-33.055h2.158v33.055H351.039z"/>
		</g>
		<g>
			<path fill="#767676" d="M380.402,337.578c-0.315,0.125-2.922,1.843-6.417,1.843c-3.304,0-6.102-2.034-6.102-5.467v-25.997h-4.708
				v-1.911h4.708v-11.373h2.157v11.373h7.821v1.911h-7.821v25.677c0.191,2.478,2.158,3.753,4.327,3.753
				c2.73,0,5.022-1.399,5.213-1.59L380.402,337.578z"/>
		</g>
		<g>
			<path fill="#767676" d="M386.953,322.386c0-9.282,6.924-16.845,15.823-16.845c9.091,0,16.015,7.691,16.08,17.036
				c0,0.191,0,0.888-0.065,0.951h-29.622c0.64,8.135,6.674,14.366,13.989,14.366c4.832,0,9.53-2.73,11.315-6.674l1.967,0.511
				c-1.842,4.641-7.495,8.006-13.406,8.006C394.067,339.736,386.953,331.854,386.953,322.386z M416.698,321.684
				c-0.572-8.323-6.426-14.233-13.855-14.233c-7.439,0-13.226,6.035-13.674,14.233H416.698z"/>
		</g>
		<g>
			<path fill="#767676" d="M99.694,387.793c0,1.16-0.2,2.23-0.602,3.208c-0.392,0.979-0.955,1.824-1.681,2.541
				s-1.604,1.275-2.626,1.671c-1.022,0.401-2.158,0.602-3.409,0.602H85.15v-16.028h6.226c1.251,0,2.387,0.201,3.409,0.606
				c1.022,0.401,1.9,0.959,2.626,1.671c0.726,0.71,1.289,1.557,1.681,2.535C99.494,385.577,99.694,386.643,99.694,387.793z
				 M95.894,387.793c0-0.792-0.105-1.504-0.315-2.144c-0.2-0.639-0.497-1.179-0.878-1.623c-0.392-0.444-0.859-0.783-1.413-1.022
				c-0.563-0.238-1.194-0.357-1.91-0.357h-2.482v10.308h2.482c0.716,0,1.347-0.12,1.91-0.358c0.554-0.239,1.021-0.579,1.413-1.022
				c0.382-0.444,0.678-0.983,0.878-1.623C95.788,389.311,95.894,388.595,95.894,387.793z"/>
		</g>
		<g>
			<path fill="#767676" d="M118.811,379.787v2.86h-6.579v3.738h5.042v2.75h-5.042v3.82h6.579v2.86h-10.312v-16.028H118.811z"/>
		</g>
		<g>
			<path fill="#767676" d="M130.07,379.81c0.114,0.015,0.209,0.043,0.295,0.082c0.086,0.039,0.172,0.096,0.258,0.172
				c0.076,0.072,0.172,0.172,0.267,0.296l7.621,9.625c-0.039-0.31-0.057-0.606-0.067-0.897c-0.019-0.292-0.028-0.564-0.028-0.822
				v-8.479h3.285v16.028h-1.938c-0.287,0-0.525-0.048-0.726-0.139c-0.191-0.09-0.382-0.248-0.573-0.477l-7.553-9.55
				c0.019,0.278,0.038,0.554,0.047,0.822c0.019,0.267,0.029,0.516,0.029,0.755v8.589h-3.285v-16.028h1.958
				C129.822,379.787,129.956,379.795,130.07,379.81z"/>
		</g>
		<g>
			<path fill="#767676" d="M162.919,379.787v2.95h-4.517v13.078h-3.714v-13.078h-4.507v-2.95H162.919z"/>
		</g>
		<g>
			<path fill="#767676" d="M184.214,395.815h-2.883c-0.325,0-0.583-0.077-0.783-0.225c-0.191-0.153-0.344-0.344-0.449-0.578
				l-0.945-2.794h-6.092l-0.945,2.794c-0.086,0.205-0.229,0.391-0.439,0.553c-0.21,0.167-0.468,0.249-0.773,0.249h-2.903
				l6.208-16.028h3.8L184.214,395.815z M173.92,389.689h4.374l-1.47-4.393c-0.115-0.278-0.229-0.607-0.354-0.984
				s-0.248-0.788-0.373-1.228c-0.115,0.45-0.239,0.865-0.362,1.246c-0.115,0.382-0.23,0.712-0.344,0.988L173.92,389.689z"/>
		</g>
		<g>
			<path fill="#767676" d="M195.797,392.845h5.939v2.97h-9.654v-16.028h3.715V392.845z"/>
		</g>
		<g>
			<path fill="#767676" d="M230.107,383.042c-0.104,0.178-0.219,0.311-0.344,0.397c-0.124,0.086-0.276,0.133-0.468,0.133
				c-0.172,0-0.353-0.053-0.545-0.162c-0.19-0.104-0.419-0.225-0.658-0.358c-0.248-0.129-0.525-0.249-0.841-0.358
				c-0.315-0.104-0.678-0.157-1.079-0.157c-0.697,0-1.223,0.147-1.557,0.444c-0.344,0.301-0.516,0.702-0.516,1.208
				c0,0.321,0.104,0.587,0.306,0.802c0.21,0.21,0.478,0.396,0.812,0.55c0.334,0.152,0.717,0.295,1.146,0.424s0.869,0.272,1.317,0.43
				c0.439,0.158,0.879,0.339,1.309,0.554s0.812,0.483,1.146,0.812c0.333,0.334,0.602,0.735,0.812,1.208
				c0.2,0.473,0.306,1.042,0.306,1.71c0,0.739-0.125,1.433-0.383,2.077c-0.258,0.649-0.63,1.212-1.117,1.69
				c-0.487,0.482-1.089,0.859-1.805,1.131c-0.716,0.277-1.528,0.416-2.435,0.416c-0.507,0-1.013-0.053-1.528-0.153
				c-0.516-0.104-1.013-0.248-1.5-0.434c-0.486-0.19-0.935-0.411-1.364-0.668s-0.793-0.54-1.107-0.859l1.098-1.738
				c0.086-0.125,0.2-0.229,0.344-0.311c0.143-0.086,0.296-0.129,0.468-0.129c0.219,0,0.439,0.072,0.669,0.21
				c0.219,0.138,0.477,0.295,0.753,0.463c0.287,0.167,0.612,0.319,0.975,0.462c0.372,0.139,0.802,0.206,1.299,0.206
				c0.678,0,1.203-0.147,1.575-0.444c0.373-0.296,0.564-0.769,0.564-1.414c0-0.373-0.105-0.678-0.315-0.912
				c-0.2-0.234-0.468-0.43-0.802-0.582c-0.335-0.157-0.718-0.292-1.147-0.411c-0.419-0.115-0.859-0.244-1.308-0.387
				c-0.439-0.144-0.878-0.32-1.308-0.53c-0.421-0.21-0.802-0.482-1.137-0.826c-0.334-0.338-0.602-0.764-0.812-1.275
				c-0.2-0.511-0.306-1.136-0.306-1.886c0-0.602,0.124-1.188,0.363-1.761c0.248-0.573,0.602-1.079,1.068-1.528
				c0.469-0.448,1.042-0.807,1.729-1.074c0.677-0.267,1.461-0.401,2.339-0.401c0.497,0,0.975,0.039,1.434,0.114
				c0.468,0.082,0.916,0.192,1.327,0.344c0.42,0.149,0.811,0.33,1.175,0.54c0.362,0.205,0.688,0.444,0.974,0.706L230.107,383.042z"
				/>
		</g>
		<g>
			<path fill="#767676" d="M251.556,379.787v2.95h-4.509v13.078h-3.714v-13.078h-4.517v-2.95H251.556z"/>
		</g>
		<g>
			<path fill="#767676" d="M266.729,392.877c0.495,0,0.945-0.08,1.336-0.248c0.392-0.167,0.727-0.401,0.993-0.712
				c0.277-0.305,0.478-0.682,0.621-1.126s0.219-0.945,0.219-1.514v-9.492h3.716v9.492c0,0.984-0.162,1.886-0.479,2.707
				c-0.315,0.821-0.773,1.528-1.365,2.124c-0.602,0.593-1.317,1.056-2.168,1.385c-0.85,0.33-1.813,0.497-2.873,0.497
				c-1.07,0-2.034-0.167-2.885-0.497c-0.85-0.329-1.575-0.792-2.167-1.385c-0.593-0.596-1.052-1.303-1.366-2.124
				c-0.315-0.821-0.469-1.723-0.469-2.707v-9.492h3.716v9.481c0,0.564,0.077,1.07,0.22,1.514c0.144,0.444,0.344,0.821,0.62,1.131
				c0.269,0.315,0.602,0.549,0.993,0.716C265.784,392.797,266.232,392.877,266.729,392.877z"/>
		</g>
		<g>
			<path fill="#767676" d="M297.669,387.793c0,1.16-0.201,2.23-0.602,3.208c-0.401,0.979-0.966,1.824-1.691,2.541
				c-0.725,0.716-1.604,1.275-2.626,1.671c-1.022,0.401-2.158,0.602-3.399,0.602h-6.227v-16.028h6.227
				c1.241,0,2.377,0.201,3.399,0.606c1.021,0.401,1.901,0.959,2.626,1.671c0.726,0.71,1.29,1.557,1.691,2.535
				C297.468,385.577,297.669,386.643,297.669,387.793z M293.857,387.793c0-0.792-0.104-1.504-0.305-2.144
				c-0.211-0.639-0.507-1.179-0.889-1.623c-0.382-0.444-0.859-0.783-1.413-1.022c-0.555-0.238-1.193-0.357-1.9-0.357h-2.492v10.308
				h2.492c0.707,0,1.346-0.12,1.9-0.358c0.554-0.239,1.031-0.579,1.413-1.022s0.678-0.983,0.889-1.623
				C293.753,389.311,293.857,388.595,293.857,387.793z"/>
		</g>
		<g>
			<path fill="#767676" d="M310.207,395.815h-3.744v-16.028h3.744V395.815z"/>
		</g>
		<g>
			<path fill="#767676" d="M335.636,387.793c0,1.16-0.201,2.24-0.602,3.237c-0.392,0.999-0.954,1.863-1.681,2.603
				c-0.726,0.735-1.604,1.313-2.625,1.733c-1.022,0.416-2.159,0.626-3.41,0.626c-1.242,0-2.378-0.21-3.409-0.626
				c-1.021-0.419-1.9-0.998-2.636-1.733c-0.726-0.739-1.289-1.604-1.689-2.603c-0.401-0.997-0.602-2.077-0.602-3.237
				c0-1.156,0.2-2.234,0.602-3.232c0.4-0.997,0.964-1.862,1.689-2.597c0.735-0.73,1.614-1.309,2.636-1.724
				c1.031-0.419,2.167-0.63,3.409-0.63c1.251,0,2.388,0.21,3.41,0.635c1.021,0.42,1.899,0.998,2.625,1.733
				c0.727,0.73,1.289,1.594,1.681,2.592C335.435,385.568,335.636,386.643,335.636,387.793z M331.835,387.793
				c0-0.792-0.104-1.504-0.314-2.139c-0.201-0.636-0.497-1.17-0.878-1.609c-0.393-0.439-0.859-0.778-1.414-1.013
				c-0.564-0.233-1.194-0.353-1.91-0.353c-0.717,0-1.356,0.119-1.92,0.353c-0.562,0.235-1.031,0.573-1.413,1.013
				c-0.392,0.439-0.688,0.974-0.888,1.609c-0.21,0.635-0.306,1.347-0.306,2.139c0,0.802,0.096,1.518,0.306,2.154
				c0.2,0.635,0.496,1.169,0.888,1.609c0.382,0.444,0.851,0.778,1.413,1.007c0.563,0.235,1.203,0.349,1.92,0.349
				c0.716,0,1.346-0.114,1.91-0.349c0.555-0.229,1.021-0.563,1.414-1.007c0.381-0.44,0.677-0.974,0.878-1.609
				C331.73,389.311,331.835,388.595,331.835,387.793z"/>
		</g>
	</g>
	<g>
		<path fill="#767676" d="M188.683,178.293l-4.479-0.01l-41.511-94.279l2.245-3.431h27.654v4.889h-23.911l37.777,85.802
			l22.25-49.857l-16.472-37.404l2.244-3.431h34.034l2.234,3.44l-16.693,37.407l21.944,49.845l38.283-85.802h-24.646v-4.889h28.418
			l2.234,3.44l-42.063,94.28l-4.479-0.01l-22.374-50.837L188.683,178.293z M198.223,85.463l13.179,29.918l13.349-29.918H198.223z"/>
	</g>
</g>
</svg>
